<?xml version="1.0" encoding="utf-8"?>
<!-- Generator: Adobe Illustrator 28.0.0, SVG Export Plug-In . SVG Version: 6.00 Build 0)  -->
<svg version="1.1" id="Layer_1" xmlns="http://www.w3.org/2000/svg" xmlns:xlink="http://www.w3.org/1999/xlink" x="0px" y="0px"
	 viewBox="0 0 375 375" style="enable-background:new 0 0 375 375;" xml:space="preserve">
<style type="text/css">
	.st0{clip-path:url(#SVGID_00000062909361527381268620000006837525290202308501_);}
	.st1{font-family:'MyriadPro-Regular';}
	.st2{font-size:101.61px;}
	.st3{clip-path:url(#SVGID_00000158730342127418581600000010539715368731559560_);}
	.st4{clip-path:url(#SVGID_00000079465005753893385660000017281001656356489110_);}
	.st5{clip-path:url(#SVGID_00000155836174290668061440000012613095677186239665_);}
	.st6{clip-path:url(#SVGID_00000176005968544516559470000013323334472128013982_);}
	.st7{fill:#FFFFFF;}
	.st8{font-size:13px;}
	.st9{font-size:12.03px;}
</style>
<g>
	<defs>
		<rect id="SVGID_1_" width="375" height="375"/>
	</defs>
	<clipPath id="SVGID_00000041262635643867353200000009897507032521971597_">
		<use xlink:href="#SVGID_1_"  style="overflow:visible;"/>
	</clipPath>
	<g style="clip-path:url(#SVGID_00000041262635643867353200000009897507032521971597_);">
		<text transform="matrix(1 0 0 1 143.83 192.57)" class="st1 st2">V</text>
	</g>
</g>
<g>
	<defs>
		<rect id="SVGID_00000156573040890574031090000000141356496412464536_" width="375" height="375"/>
	</defs>
	<clipPath id="SVGID_00000022557825623733307370000005851494177160928408_">
		<use xlink:href="#SVGID_00000156573040890574031090000000141356496412464536_"  style="overflow:visible;"/>
	</clipPath>
	<g style="clip-path:url(#SVGID_00000022557825623733307370000005851494177160928408_);">
		<g>
			<defs>
				<rect id="SVGID_00000052819615981324616640000008078797199621823913_" width="375" height="375"/>
			</defs>
			<clipPath id="SVGID_00000047759574118226399500000012466975709364564631_">
				<use xlink:href="#SVGID_00000052819615981324616640000008078797199621823913_"  style="overflow:visible;"/>
			</clipPath>
			<g style="clip-path:url(#SVGID_00000047759574118226399500000012466975709364564631_);">
				<g>
					<defs>
						
							<rect id="SVGID_00000109740813428853956870000006959192680515339422_" x="152.1" y="118.4" transform="matrix(0.6637 -0.748 0.748 0.6637 -60.158 202.5794)" width="86.3" height="99.6"/>
					</defs>
					<clipPath id="SVGID_00000108294596685064113170000001370030613311323799_">
						<use xlink:href="#SVGID_00000109740813428853956870000006959192680515339422_"  style="overflow:visible;"/>
					</clipPath>
					<g style="clip-path:url(#SVGID_00000108294596685064113170000001370030613311323799_);">
						<g>
							<defs>
								<polygon id="SVGID_00000170996056681792702260000005620904007307771545_" points="261.1,169 166.6,200.5 186.6,102.9 
																	"/>
							</defs>
							<clipPath id="SVGID_00000114790140056685325680000002764161428850573227_">
								<use xlink:href="#SVGID_00000170996056681792702260000005620904007307771545_"  style="overflow:visible;"/>
							</clipPath>
							<g style="clip-path:url(#SVGID_00000114790140056685325680000002764161428850573227_);">
								
									<rect x="152.1" y="118.4" transform="matrix(0.6637 -0.748 0.748 0.6637 -60.158 202.5794)" class="st7" width="86.3" height="99.6"/>
							</g>
						</g>
					</g>
				</g>
			</g>
		</g>
	</g>
</g>
<g>
	<g>
		<text transform="matrix(1 0 0 1 172.91 192.57)" class="st1 st2">L</text>
		<text transform="matrix(1 0 0 1 109.57 230.33)" class="st1 st8">V</text>
		<text transform="matrix(1 0 0 1 118.94 230.33)" class="st1 st8">I</text>
		<text transform="matrix(1 0 0 1 125.18 230.33)" class="st1 st8">C</text>
		<text transform="matrix(1 0 0 1 134.29 230.33)" class="st1 st8">T</text>
		<text transform="matrix(1 0 0 1 143.21 230.33)" class="st1 st8">O</text>
		<text transform="matrix(1 0 0 1 153.55 230.33)" class="st1 st8">R</text>
		<text transform="matrix(1 0 0 1 163.12 230.33)" class="st1 st8">I</text>
		<text transform="matrix(1 0 0 1 169.35 230.33)" class="st1 st8">A</text>
		<text transform="matrix(1 0 0 1 183.56 230.33)" class="st1 st8">L</text>
		<text transform="matrix(1 0 0 1 192.46 230.33)" class="st1 st8">A</text>
		<text transform="matrix(1 0 0 1 202.45 230.33)" class="st1 st8">N</text>
		<text transform="matrix(1 0 0 1 212.76 230.33)" class="st1 st8">C</text>
		<text transform="matrix(1 0 0 1 221.88 230.33)" class="st1 st8">A</text>
		<text transform="matrix(1 0 0 1 231.86 230.33)" class="st1 st8">S</text>
		<text transform="matrix(1 0 0 1 239.97 230.33)" class="st1 st8">T</text>
		<text transform="matrix(1 0 0 1 248.88 230.33)" class="st1 st8">E</text>
		<text transform="matrix(1 0 0 1 257.79 230.33)" class="st1 st8">R</text>
		<text transform="matrix(1 0 0 1 138.14 248.08)" class="st1 st9">R</text>
		<text transform="matrix(1 0 0 1 148.79 248.08)" class="st1 st9">E</text>
		<text transform="matrix(1 0 0 1 158.84 248.08)" class="st1 st9">A</text>
		<text transform="matrix(1 0 0 1 169.88 248.08)" class="st1 st9">L</text>
		<text transform="matrix(1 0 0 1 179.92 248.08)" class="st1 st9">E</text>
		<text transform="matrix(1 0 0 1 189.96 248.08)" class="st1 st9">S</text>
		<text transform="matrix(1 0 0 1 199.27 248.08)" class="st1 st9">T</text>
		<text transform="matrix(1 0 0 1 209.32 248.08)" class="st1 st9">A</text>
		<text transform="matrix(1 0 0 1 220.37 248.08)" class="st1 st9">T</text>
		<text transform="matrix(1 0 0 1 230.42 248.08)" class="st1 st9">E</text>
	</g>
</g>
</svg>
