<?xml version="1.0" encoding="UTF-8"?>
<svg id="Layer_1" xmlns="http://www.w3.org/2000/svg" version="1.1" viewBox="0 0 375 375">
  <!-- Generator: Adobe Illustrator 29.5.1, SVG Export Plug-In . SVG Version: 2.1.0 Build 141)  -->
  <defs>
    <style>
      .st0 {
        fill: #00638b;
      }
    </style>
  </defs>
  <g>
    <path class="st0" d="M165.55,203.42v-2.19h5.26c2.48,0,4.56-.36,6.24-1.1,1.68-.73,2.96-2.19,3.83-4.38.88-2.19,1.32-5.55,1.32-10.07v-120.9c0-4.52-.44-7.88-1.32-10.07-.88-2.19-2.16-3.65-3.83-4.38-1.68-.73-3.76-1.1-6.24-1.1h-5.26v-2.19h62.86v2.19h-5.48c-2.49,0-4.6.33-6.35.99-1.75.66-3.07,2.05-3.94,4.16-.88,2.12-1.31,5.37-1.31,9.75v137.1h25.19c7.59,0,13.72-.99,18.4-2.96,4.67-1.97,8.14-5.18,10.4-9.64,2.26-4.45,3.61-10.33,4.05-17.63l.88-15.55h2.19l-1.53,47.96h-105.35Z"/>
    <path class="st0" d="M25.92,266.36c-.09-.35-.2-.62-.31-.8s-.25-.3-.42-.38-.39-.11-.67-.11h-.31v-.28h7.51v.28h-1.01c-.43,0-.71.06-.84.17s-.2.3-.2.56c0,.13.01.29.04.48.03.19.07.39.11.62.05.22.1.47.15.73l2.38,9.66c.07.32.17.73.29,1.25.12.51.24,1.06.36,1.62.12.57.24,1.11.35,1.61s.2.9.25,1.18c.13-.54.25-1.05.36-1.53s.24-.99.38-1.55c.14-.56.31-1.25.52-2.07l2.21-9.08c.13-.5.23-.93.29-1.28.07-.34.12-.64.15-.9.04-.25.06-.48.06-.69,0-.3-.1-.5-.31-.62s-.61-.17-1.21-.17h-.78v-.28h4.9v.28h-.59c-.36,0-.64.04-.85.11-.22.07-.38.21-.5.41-.12.2-.23.47-.32.83l-4.48,18.38h-2.58l-4.96-18.43Z"/>
    <path class="st0" d="M45.03,284.8v-.28h1.09c.28,0,.49-.05.64-.15.15-.1.25-.28.31-.53.06-.25.08-.6.08-1.05v-15.88c0-.48-.03-.86-.08-1.12-.06-.26-.16-.44-.31-.55-.15-.1-.36-.15-.64-.15h-1.09v-.28h8.04v.28h-1.12c-.28,0-.5.05-.64.15-.15.1-.26.29-.32.55-.07.26-.1.64-.1,1.12v15.88c0,.45.03.8.1,1.05.07.25.17.43.32.53.15.1.36.15.64.15h1.12v.28h-8.04Z"/>
    <path class="st0" d="M66.99,285.08c-1.74,0-3.19-.43-4.36-1.29-1.17-.86-2.05-2.06-2.63-3.6s-.88-3.35-.88-5.42.29-3.85.88-5.38,1.47-2.73,2.63-3.58c1.17-.86,2.62-1.29,4.36-1.29,1.18,0,2.16.15,2.96.45.79.3,1.39.7,1.79,1.19.4.5.6,1.04.6,1.64,0,.64-.24,1.16-.71,1.58-.48.42-1.2.63-2.17.63,0-1.25-.08-2.26-.25-3.03-.17-.77-.44-1.32-.83-1.67s-.9-.52-1.55-.52c-.91,0-1.65.35-2.21,1.04-.56.69-.97,1.77-1.22,3.24-.25,1.47-.38,3.37-.38,5.7s.15,4.24.45,5.7c.3,1.47.79,2.55,1.47,3.24.68.69,1.57,1.04,2.68,1.04,1.2,0,2.11-.4,2.74-1.21.63-.8,1.02-1.92,1.15-3.36.35.11.58.31.69.59.1.28.15.52.15.73,0,.37-.09.77-.27,1.18-.18.41-.47.8-.87,1.16-.4.37-.95.66-1.64.9s-1.55.35-2.58.35Z"/>
    <path class="st0" d="M80.86,284.8v-.28h.81c.39,0,.7-.06.91-.17.21-.11.36-.31.43-.6s.11-.7.11-1.22v-17.45h-1.26c-.92,0-1.64.1-2.19.31s-.93.56-1.18,1.06c-.24.5-.39,1.2-.45,2.07l-.08,1.4h-.28l.2-5.13h14.23l.2,5.13h-.28l-.08-1.4c-.06-.88-.21-1.57-.45-2.07-.24-.51-.63-.86-1.16-1.06s-1.27-.31-2.2-.31h-1.23v17.45c0,.52.04.93.13,1.22s.23.49.43.6.5.17.9.17h.78v.28h-8.29Z"/>
    <path class="st0" d="M105.79,285.08c-1.76,0-3.21-.43-4.37-1.29s-2.02-2.06-2.59-3.61c-.57-1.55-.85-3.36-.85-5.44s.28-3.93.85-5.46c.57-1.53,1.44-2.71,2.6-3.54,1.17-.83,2.63-1.25,4.39-1.25s3.1.41,4.24,1.23,2.02,2,2.61,3.53c.59,1.53.88,3.37.88,5.52s-.3,3.91-.91,5.45c-.61,1.54-1.49,2.74-2.63,3.59s-2.55,1.28-4.22,1.28ZM105.79,284.8c.71,0,1.31-.17,1.79-.52s.88-.91,1.19-1.68.53-1.81.67-3.1c.14-1.29.21-2.87.21-4.73s-.07-3.47-.2-4.75-.35-2.31-.64-3.08c-.3-.77-.69-1.33-1.18-1.67s-1.09-.5-1.82-.5-1.35.17-1.85.5-.91.89-1.22,1.67c-.31.78-.53,1.8-.67,3.08-.14,1.28-.21,2.86-.21,4.75s.07,3.44.21,4.72c.14,1.28.36,2.31.67,3.1s.71,1.35,1.22,1.69,1.11.52,1.82.52Z"/>
    <path class="st0" d="M119.63,284.8v-.28h.81c.35,0,.63-.05.81-.15s.32-.29.39-.55c.07-.26.11-.63.11-1.12v-15.77c0-.51-.04-.89-.11-1.15-.07-.26-.21-.44-.39-.55-.19-.1-.46-.15-.81-.15h-.81v-.28h7.51c1.61,0,2.89.21,3.84.63.95.42,1.64,1.02,2.06,1.81.42.78.63,1.73.63,2.83,0,1.05-.15,1.92-.45,2.63-.3.71-.72,1.28-1.26,1.71-.54.43-1.2.75-1.96.95l3.03,5.74c.43.82.77,1.47,1.04,1.93.26.47.47.8.63,1.01.16.21.29.34.39.39.1.06.21.08.32.08h.08v.28h-.87c-.73,0-1.35-.04-1.88-.13-.52-.08-.98-.23-1.36-.44-.38-.2-.72-.48-1.01-.83-.29-.35-.56-.77-.8-1.28l-3.08-6.58h-1.01v7.14c0,.49.03.86.1,1.12s.19.44.38.55c.19.1.44.15.76.15h.62v.28h-7.7ZM126.72,275.27c.73,0,1.31-.18,1.75-.55.44-.37.76-.94.95-1.72.2-.78.29-1.8.29-3.05,0-1.14-.1-2.07-.29-2.79-.2-.72-.51-1.25-.95-1.58s-1.02-.5-1.75-.5h-1.23v10.2h1.23Z"/>
    <path class="st0" d="M140.25,284.8v-.28h1.09c.28,0,.49-.05.64-.15.15-.1.25-.28.31-.53.06-.25.08-.6.08-1.05v-15.88c0-.48-.03-.86-.08-1.12-.06-.26-.16-.44-.31-.55-.15-.1-.36-.15-.64-.15h-1.09v-.28h8.04v.28h-1.12c-.28,0-.5.05-.64.15-.15.1-.26.29-.32.55-.07.26-.1.64-.1,1.12v15.88c0,.45.03.8.1,1.05.07.25.17.43.32.53.15.1.36.15.64.15h1.12v.28h-8.04Z"/>
    <path class="st0" d="M153.19,284.8v-.28h.87c.36,0,.64-.06.85-.18.22-.12.4-.33.56-.63.16-.3.31-.73.46-1.29l4.68-17.62h2.89l5.16,18.18c.11.39.23.7.35.92.12.22.27.38.46.48.19.09.42.14.7.14h.22v.28h-7.59v-.28h1.06c.43,0,.72-.08.87-.24.15-.16.22-.39.22-.69,0-.13-.01-.27-.04-.43-.03-.16-.07-.33-.11-.52-.05-.19-.1-.36-.15-.53l-1.15-4.62h-5.97l-1.09,4.17c-.07.26-.14.52-.2.77-.06.25-.1.48-.14.69-.04.21-.06.38-.06.53,0,.3.08.52.24.66.16.14.43.21.83.21h1.46v.28h-5.38ZM157.62,277.2h5.8l-1.96-7.82c-.11-.47-.22-.9-.32-1.29-.1-.39-.2-.78-.28-1.16-.08-.38-.17-.78-.27-1.19-.06.28-.11.55-.17.81-.06.26-.12.52-.18.77-.07.25-.13.51-.2.77-.07.26-.14.53-.21.81l-2.21,8.29Z"/>
    <path class="st0" d="M184.31,284.8v-.28h.67c.32,0,.58-.05.8-.14.21-.09.38-.28.49-.56.11-.28.17-.71.17-1.29v-15.46c0-.58-.06-1.01-.17-1.29-.11-.28-.28-.47-.49-.56-.22-.09-.48-.14-.8-.14h-.67v-.28h8.04v.28h-.7c-.32,0-.59.04-.81.13-.22.08-.39.26-.5.53s-.17.69-.17,1.25v17.54h3.22c.97,0,1.76-.13,2.35-.38.6-.25,1.04-.66,1.33-1.23.29-.57.46-1.32.52-2.26l.11-1.99h.28l-.2,6.14h-13.47Z"/>
    <path class="st0" d="M203,284.8v-.28h.87c.36,0,.64-.06.85-.18.22-.12.4-.33.56-.63.16-.3.31-.73.46-1.29l4.68-17.62h2.89l5.16,18.18c.11.39.23.7.35.92.12.22.27.38.46.48.19.09.42.14.7.14h.22v.28h-7.59v-.28h1.06c.43,0,.72-.08.87-.24.15-.16.22-.39.22-.69,0-.13-.01-.27-.04-.43-.03-.16-.07-.33-.11-.52-.05-.19-.1-.36-.15-.53l-1.15-4.62h-5.97l-1.09,4.17c-.07.26-.14.52-.2.77-.06.25-.1.48-.14.69-.04.21-.06.38-.06.53,0,.3.08.52.24.66.16.14.43.21.83.21h1.46v.28h-5.38ZM207.42,277.2h5.8l-1.96-7.82c-.11-.47-.22-.9-.32-1.29-.1-.39-.2-.78-.28-1.16-.08-.38-.17-.78-.27-1.19-.06.28-.11.55-.17.81-.06.26-.12.52-.18.77-.07.25-.13.51-.2.77-.07.26-.14.53-.21.81l-2.21,8.29Z"/>
    <path class="st0" d="M225.01,284.8v-.28h1.12c.37,0,.66-.06.87-.17.2-.11.35-.31.43-.59.08-.28.13-.67.13-1.18v-15.66c0-.51-.04-.89-.11-1.15-.07-.26-.2-.44-.38-.55-.18-.1-.43-.15-.77-.15h-1.29v-.28h5.88l8.15,16.14v-14.01c0-.51-.03-.89-.1-1.15-.07-.26-.19-.44-.37-.55-.18-.1-.43-.15-.77-.15h-1.57v-.28h5.85v.28h-1.51c-.34,0-.6.06-.78.17-.19.11-.31.3-.38.57s-.1.67-.1,1.19v17.79h-2.05l-9.44-18.69v16.47c0,.5.03.9.1,1.18.07.28.19.48.38.59.19.11.44.17.76.17h1.6v.28h-5.66Z"/>
    <path class="st0" d="M255.77,285.08c-1.74,0-3.19-.43-4.36-1.29-1.17-.86-2.05-2.06-2.63-3.6s-.88-3.35-.88-5.42.29-3.85.88-5.38,1.47-2.73,2.63-3.58c1.17-.86,2.62-1.29,4.36-1.29,1.18,0,2.16.15,2.96.45.79.3,1.39.7,1.79,1.19.4.5.6,1.04.6,1.64,0,.64-.24,1.16-.71,1.58-.48.42-1.2.63-2.17.63,0-1.25-.08-2.26-.25-3.03-.17-.77-.44-1.32-.83-1.67s-.9-.52-1.55-.52c-.91,0-1.65.35-2.21,1.04-.56.69-.97,1.77-1.22,3.24-.25,1.47-.38,3.37-.38,5.7s.15,4.24.45,5.7c.3,1.47.79,2.55,1.47,3.24.68.69,1.57,1.04,2.68,1.04,1.2,0,2.11-.4,2.74-1.21.63-.8,1.02-1.92,1.15-3.36.35.11.58.31.69.59.1.28.15.52.15.73,0,.37-.09.77-.27,1.18-.18.41-.47.8-.87,1.16-.4.37-.95.66-1.64.9s-1.55.35-2.58.35Z"/>
    <path class="st0" d="M266.39,284.8v-.28h.87c.36,0,.64-.06.85-.18.22-.12.4-.33.56-.63.16-.3.31-.73.46-1.29l4.68-17.62h2.89l5.16,18.18c.11.39.23.7.35.92.12.22.27.38.46.48.19.09.42.14.7.14h.22v.28h-7.59v-.28h1.06c.43,0,.72-.08.87-.24.15-.16.22-.39.22-.69,0-.13-.01-.27-.04-.43-.03-.16-.07-.33-.11-.52-.05-.19-.1-.36-.15-.53l-1.15-4.62h-5.97l-1.09,4.17c-.07.26-.14.52-.2.77-.06.25-.1.48-.14.69-.04.21-.06.38-.06.53,0,.3.08.52.24.66.16.14.43.21.83.21h1.46v.28h-5.38ZM270.82,277.2h5.8l-1.96-7.82c-.11-.47-.22-.9-.32-1.29-.1-.39-.2-.78-.28-1.16-.08-.38-.17-.78-.27-1.19-.06.28-.11.55-.17.81-.06.26-.12.52-.18.77-.07.25-.13.51-.2.77-.07.26-.14.53-.21.81l-2.21,8.29Z"/>
    <path class="st0" d="M294.12,285.08c-1.12,0-2.05-.12-2.77-.37-.73-.24-1.3-.56-1.71-.95-.41-.39-.7-.82-.85-1.27-.16-.46-.24-.89-.24-1.3,0-.56.12-1.01.35-1.36.23-.35.54-.6.92-.77s.79-.25,1.22-.25c0,1.31.13,2.41.38,3.29.25.89.64,1.56,1.16,2,.52.45,1.21.67,2.05.67.99,0,1.75-.3,2.27-.9.52-.6.78-1.48.78-2.66,0-.99-.19-1.79-.57-2.39-.38-.61-.9-1.12-1.56-1.54-.65-.42-1.41-.85-2.27-1.3-.78-.39-1.45-.8-1.99-1.23-.54-.43-.98-.89-1.32-1.37-.34-.49-.58-1-.73-1.56-.15-.55-.22-1.13-.22-1.75,0-1.18.25-2.18.74-3,.49-.82,1.18-1.45,2.05-1.89s1.84-.66,2.93-.66c1.14,0,2.07.17,2.8.51.73.34,1.26.77,1.61,1.29.34.52.52,1.07.52,1.65s-.21,1.02-.62,1.39c-.41.36-1.11.55-2.1.55,0-1.76-.22-3.04-.64-3.87-.43-.82-1.08-1.23-1.96-1.23-.47,0-.91.12-1.33.35-.42.23-.77.6-1.04,1.11-.27.51-.41,1.15-.41,1.93s.14,1.42.42,1.98c.28.55.74,1.06,1.37,1.51.63.46,1.48.95,2.52,1.47,1.08.52,1.94,1.07,2.58,1.65.63.58,1.1,1.21,1.39,1.9.29.69.43,1.48.43,2.38,0,1.23-.25,2.3-.76,3.19-.5.9-1.21,1.59-2.13,2.07-.91.49-2.01.73-3.28.73Z"/>
    <path class="st0" d="M308.63,284.8v-.28h.81c.39,0,.7-.06.91-.17.21-.11.36-.31.43-.6s.11-.7.11-1.22v-17.45h-1.26c-.92,0-1.64.1-2.19.31s-.93.56-1.18,1.06c-.24.5-.39,1.2-.45,2.07l-.08,1.4h-.28l.2-5.13h14.23l.2,5.13h-.28l-.08-1.4c-.06-.88-.21-1.57-.45-2.07-.24-.51-.63-.86-1.16-1.06s-1.27-.31-2.2-.31h-1.23v17.45c0,.52.04.93.13,1.22s.23.49.43.6.5.17.9.17h.78v.28h-8.29Z"/>
    <path class="st0" d="M325.11,284.8v-.28h.64c.32,0,.59-.04.81-.13.22-.08.39-.26.5-.53.11-.27.17-.68.17-1.22v-15.58c0-.58-.06-1.01-.17-1.29-.11-.28-.28-.47-.49-.56-.22-.09-.49-.14-.83-.14h-.64v-.28h12.75l.17,5.01h-.28l-.08-1.18c-.06-.9-.22-1.61-.49-2.13-.27-.52-.68-.89-1.22-1.11-.54-.21-1.27-.32-2.19-.32h-2.83v9.13h5.88v.28h-5.88v10.03h3.61c.9,0,1.61-.11,2.16-.32.54-.22.94-.57,1.21-1.08.26-.5.43-1.19.5-2.05l.08-1.29h.28l-.17,5.01h-13.5Z"/>
    <path class="st0" d="M344.29,284.8v-.28h.81c.35,0,.63-.05.81-.15s.32-.29.39-.55c.07-.26.11-.63.11-1.12v-15.77c0-.51-.04-.89-.11-1.15-.07-.26-.21-.44-.39-.55-.19-.1-.46-.15-.81-.15h-.81v-.28h7.51c1.61,0,2.89.21,3.84.63.95.42,1.64,1.02,2.06,1.81.42.78.63,1.73.63,2.83,0,1.05-.15,1.92-.45,2.63-.3.71-.72,1.28-1.26,1.71-.54.43-1.2.75-1.96.95l3.03,5.74c.43.82.77,1.47,1.04,1.93.26.47.47.8.63,1.01.16.21.29.34.39.39.1.06.21.08.32.08h.08v.28h-.87c-.73,0-1.35-.04-1.88-.13-.52-.08-.98-.23-1.36-.44-.38-.2-.72-.48-1.01-.83-.29-.35-.56-.77-.8-1.28l-3.08-6.58h-1.01v7.14c0,.49.03.86.1,1.12s.19.44.38.55c.19.1.44.15.76.15h.62v.28h-7.7ZM351.38,275.27c.73,0,1.31-.18,1.75-.55.44-.37.76-.94.95-1.72.2-.78.29-1.8.29-3.05,0-1.14-.1-2.07-.29-2.79-.2-.72-.51-1.25-.95-1.58s-1.02-.5-1.75-.5h-1.23v10.2h1.23Z"/>
    <path class="st0" d="M86.36,323.05v-.26h.75c.33,0,.58-.05.75-.14.17-.09.29-.26.36-.51.07-.24.1-.59.1-1.04v-14.6c0-.47-.03-.82-.1-1.06-.07-.24-.19-.41-.36-.51-.17-.09-.42-.14-.75-.14h-.75v-.26h6.95c1.49,0,2.67.19,3.55.58.88.39,1.52.95,1.91,1.67.39.73.58,1.6.58,2.62s-.14,1.78-.42,2.44c-.28.66-.66,1.18-1.17,1.58s-1.11.69-1.82.88l2.8,5.31c.4.76.72,1.36.96,1.79.24.43.44.74.58.93.15.19.27.31.36.36.09.05.19.08.3.08h.08v.26h-.8c-.67,0-1.25-.04-1.74-.12-.48-.08-.9-.21-1.26-.4s-.66-.44-.93-.77c-.27-.32-.51-.71-.74-1.18l-2.85-6.09h-.93v6.61c0,.45.03.8.09,1.04.06.24.18.41.35.51.17.1.41.14.7.14h.57v.26h-7.13ZM92.92,314.23c.67,0,1.21-.17,1.62-.51s.7-.87.88-1.59c.18-.73.27-1.67.27-2.83,0-1.05-.09-1.91-.27-2.58-.18-.67-.48-1.15-.88-1.46-.41-.31-.95-.47-1.62-.47h-1.14v9.44h1.14Z"/>
    <path class="st0" d="M109.33,323.05v-.26h.6c.29,0,.55-.04.75-.12.21-.08.36-.24.47-.49.1-.25.15-.63.15-1.13v-14.42c0-.54-.05-.93-.15-1.19-.1-.26-.26-.43-.45-.52s-.45-.13-.77-.13h-.6v-.26h11.8l.16,4.64h-.26l-.08-1.09c-.05-.83-.2-1.49-.45-1.97-.25-.48-.63-.83-1.13-1.02-.5-.2-1.18-.3-2.02-.3h-2.62v8.45h5.45v.26h-5.45v9.28h3.34c.83,0,1.5-.1,2-.3s.87-.53,1.12-1c.24-.47.4-1.1.47-1.89l.08-1.19h.26l-.16,4.64h-12.5Z"/>
    <path class="st0" d="M130.51,323.05v-.26h.8c.33,0,.59-.06.79-.17s.37-.31.52-.58c.15-.28.29-.67.43-1.19l4.33-16.31h2.67l4.77,16.83c.1.36.21.65.32.86.11.21.26.35.43.44.17.09.39.13.65.13h.21v.26h-7.03v-.26h.99c.4,0,.67-.07.8-.22.14-.15.21-.36.21-.63,0-.12-.01-.26-.04-.4-.03-.15-.06-.31-.1-.48-.04-.17-.09-.34-.14-.49l-1.06-4.28h-5.52l-1.01,3.86c-.07.24-.13.48-.18.71s-.1.45-.13.64c-.04.19-.05.35-.05.49,0,.28.07.48.22.61.15.13.4.19.77.19h1.35v.26h-4.98ZM134.6,316.02h5.37l-1.82-7.23c-.1-.43-.2-.83-.3-1.19-.1-.36-.18-.72-.26-1.08s-.16-.72-.25-1.1c-.05.26-.1.51-.15.75-.05.24-.11.48-.17.71-.06.23-.12.47-.18.71-.06.24-.13.49-.19.75l-2.05,7.68Z"/>
    <path class="st0" d="M154.77,323.05v-.26h.62c.29,0,.54-.04.74-.13.2-.09.35-.26.45-.52.1-.26.15-.66.15-1.19v-14.31c0-.54-.05-.93-.15-1.19-.1-.26-.26-.43-.45-.52s-.44-.13-.74-.13h-.62v-.26h7.44v.26h-.65c-.29,0-.54.04-.75.12-.21.08-.36.24-.47.49-.1.25-.15.63-.15,1.15v16.23h2.98c.9,0,1.62-.12,2.18-.35.55-.23.96-.61,1.23-1.14.27-.53.43-1.22.48-2.09l.1-1.84h.26l-.18,5.68h-12.47Z"/>
    <path class="st0" d="M176.41,323.05v-.26h.6c.29,0,.55-.04.75-.12.21-.08.36-.24.47-.49.1-.25.15-.63.15-1.13v-14.42c0-.54-.05-.93-.15-1.19-.1-.26-.26-.43-.45-.52s-.45-.13-.77-.13h-.6v-.26h11.8l.16,4.64h-.26l-.08-1.09c-.05-.83-.2-1.49-.45-1.97-.25-.48-.63-.83-1.13-1.02-.5-.2-1.18-.3-2.02-.3h-2.62v8.45h5.45v.26h-5.45v9.28h3.34c.83,0,1.5-.1,2-.3s.87-.53,1.12-1c.24-.47.4-1.1.47-1.89l.08-1.19h.26l-.16,4.64h-12.5Z"/>
    <path class="st0" d="M203.35,323.31c-1.04,0-1.89-.11-2.57-.34-.67-.22-1.2-.52-1.58-.88-.38-.36-.64-.76-.79-1.18-.15-.42-.22-.83-.22-1.21,0-.52.11-.94.32-1.26.22-.32.5-.56.86-.71.35-.15.73-.23,1.13-.23,0,1.21.12,2.23.35,3.05s.59,1.44,1.08,1.85c.48.41,1.12.62,1.89.62.92,0,1.62-.28,2.1-.83.48-.55.73-1.37.73-2.46,0-.92-.18-1.65-.53-2.22s-.83-1.04-1.44-1.43c-.6-.39-1.31-.79-2.1-1.21-.73-.36-1.34-.74-1.84-1.14-.5-.4-.91-.82-1.22-1.27-.31-.45-.54-.93-.67-1.44-.14-.51-.21-1.05-.21-1.62,0-1.09.23-2.01.69-2.77.46-.76,1.09-1.34,1.89-1.75s1.71-.61,2.71-.61c1.05,0,1.92.16,2.59.47.67.31,1.17.71,1.49,1.19.32.48.48.99.48,1.53s-.19.95-.57,1.28c-.38.34-1.03.51-1.94.51,0-1.62-.2-2.82-.6-3.58-.4-.76-1-1.14-1.82-1.14-.43,0-.84.11-1.23.32s-.71.56-.96,1.02c-.25.47-.38,1.06-.38,1.79s.13,1.32.39,1.83c.26.51.68.98,1.27,1.4.59.42,1.37.88,2.33,1.36,1,.48,1.8.99,2.38,1.53.59.54,1.02,1.12,1.28,1.76.27.64.4,1.37.4,2.2,0,1.14-.23,2.13-.7,2.96-.47.83-1.12,1.47-1.97,1.92-.85.45-1.86.67-3.03.67Z"/>
    <path class="st0" d="M220.67,323.05v-.26h.75c.36,0,.64-.05.84-.15.2-.1.33-.29.4-.56.07-.27.1-.64.1-1.13v-16.15h-1.17c-.85,0-1.52.09-2.02.28-.5.19-.86.52-1.09.99s-.36,1.11-.41,1.92l-.08,1.3h-.26l.18-4.75h13.17l.18,4.75h-.26l-.08-1.3c-.05-.81-.19-1.45-.41-1.92s-.58-.8-1.08-.99c-.49-.19-1.17-.28-2.04-.28h-1.14v16.15c0,.48.04.86.12,1.13.08.27.21.45.4.56s.47.15.83.15h.73v.26h-7.68Z"/>
    <path class="st0" d="M239.33,323.05v-.26h.8c.33,0,.59-.06.79-.17s.37-.31.52-.58c.15-.28.29-.67.43-1.19l4.33-16.31h2.67l4.77,16.83c.1.36.21.65.32.86.11.21.26.35.43.44.17.09.39.13.65.13h.21v.26h-7.03v-.26h.99c.4,0,.67-.07.8-.22.14-.15.21-.36.21-.63,0-.12-.01-.26-.04-.4-.03-.15-.06-.31-.1-.48-.04-.17-.09-.34-.14-.49l-1.06-4.28h-5.52l-1.01,3.86c-.07.24-.13.48-.18.71s-.1.45-.13.64c-.04.19-.05.35-.05.49,0,.28.07.48.22.61.15.13.4.19.77.19h1.35v.26h-4.98ZM243.43,316.02h5.37l-1.82-7.23c-.1-.43-.2-.83-.3-1.19-.1-.36-.18-.72-.26-1.08s-.16-.72-.25-1.1c-.05.26-.1.51-.15.75-.05.24-.11.48-.17.71-.06.23-.12.47-.18.71-.06.24-.13.49-.19.75l-2.05,7.68Z"/>
    <path class="st0" d="M266.13,323.05v-.26h.75c.36,0,.64-.05.84-.15.2-.1.33-.29.4-.56.07-.27.1-.64.1-1.13v-16.15h-1.17c-.85,0-1.52.09-2.02.28-.5.19-.86.52-1.09.99s-.36,1.11-.41,1.92l-.08,1.3h-.26l.18-4.75h13.17l.18,4.75h-.26l-.08-1.3c-.05-.81-.19-1.45-.41-1.92s-.58-.8-1.08-.99c-.49-.19-1.17-.28-2.04-.28h-1.14v16.15c0,.48.04.86.12,1.13.08.27.21.45.4.56s.47.15.83.15h.73v.26h-7.68Z"/>
    <path class="st0" d="M285.26,323.05v-.26h.6c.29,0,.55-.04.75-.12.21-.08.36-.24.47-.49.1-.25.15-.63.15-1.13v-14.42c0-.54-.05-.93-.15-1.19-.1-.26-.26-.43-.45-.52s-.45-.13-.77-.13h-.6v-.26h11.8l.16,4.64h-.26l-.08-1.09c-.05-.83-.2-1.49-.45-1.97-.25-.48-.63-.83-1.13-1.02-.5-.2-1.18-.3-2.02-.3h-2.62v8.45h5.45v.26h-5.45v9.28h3.34c.83,0,1.5-.1,2-.3s.87-.53,1.12-1c.24-.47.4-1.1.47-1.89l.08-1.19h.26l-.16,4.64h-12.5Z"/>
  </g>
  <path class="st0" d="M162.18,146.35l-11.73,57.07h-.26L111.42,59.3c-.73-2.77-1.53-4.85-2.41-6.24-.88-1.39-1.97-2.38-3.28-2.96-1.31-.58-3.07-.88-5.26-.88h-2.41v-2.19h58.7v2.19h-7.88c-3.37,0-5.56.43-6.57,1.31-1.03.88-1.53,2.34-1.53,4.38,0,1.03.11,2.26.33,3.73.21,1.46.51,3.07.87,4.81.37,1.76.77,3.65,1.21,5.69l18.61,75.56c.12.51.25,1.05.38,1.63Z"/>
  <path class="st0" d="M165.55,203.42v-2.19h5.26c2.48,0,4.56-.36,6.24-1.1,1.68-.73,2.96-2.19,3.83-4.38.88-2.19,1.32-5.55,1.32-10.07v-120.9c0-4.52-.44-7.88-1.32-10.07-.88-2.19-2.16-3.65-3.83-4.38-1.68-.73-3.76-1.1-6.24-1.1h-5.26v-2.19h62.86v2.19h-5.48c-2.49,0-4.6.33-6.35.99-1.75.66-3.07,2.05-3.94,4.16-.88,2.12-1.31,5.37-1.31,9.75v137.1h25.19c7.59,0,13.72-.99,18.4-2.96,4.67-1.97,8.14-5.18,10.4-9.64,2.26-4.45,3.61-10.33,4.05-17.63l.88-15.55h2.19l-1.53,47.96h-105.35Z"/>
</svg>