<?xml version="1.0" encoding="utf-8"?>
<!-- Generator: Adobe Illustrator 28.0.0, SVG Export Plug-In . SVG Version: 6.00 Build 0)  -->
<svg version="1.1" id="Layer_1" xmlns="http://www.w3.org/2000/svg" xmlns:xlink="http://www.w3.org/1999/xlink" x="0px" y="0px"
	 viewBox="0 0 665.8 419.1" style="enable-background:new 0 0 665.8 419.1;" xml:space="preserve">
<style type="text/css">
	.st0{fill:#FFFFFF;}
</style>
<g>
	<g>
		<path class="st0" d="M25.6,328.9c-0.2-0.7-0.4-1.2-0.7-1.6c-0.3-0.4-0.6-0.6-0.9-0.8c-0.4-0.1-0.8-0.2-1.2-0.2h-1v-0.6h18v0.6
			h-2.5c-0.7,0-1.1,0.1-1.4,0.3s-0.3,0.6-0.3,1.1c0,0.3,0,0.6,0.1,0.9s0.1,0.6,0.2,1c0.1,0.3,0.2,0.7,0.3,1.2l5.1,19.5
			c0.2,0.6,0.4,1.4,0.7,2.4c0.2,1,0.5,2,0.7,3.1c0.2,1.1,0.5,2.1,0.7,3c0.2,0.9,0.3,1.6,0.4,2c0.2-0.9,0.4-1.8,0.7-2.7
			c0.2-0.9,0.4-1.8,0.7-2.8c0.3-1,0.6-2.2,0.9-3.5l4.9-18.9c0.2-0.8,0.3-1.5,0.5-2.1c0.1-0.6,0.2-1.1,0.3-1.5c0-0.4,0.1-0.8,0.1-1.1
			c0-0.7-0.2-1.2-0.7-1.5c-0.4-0.3-1.2-0.4-2.3-0.4h-2.6v-0.6h11.3v0.6h-1.8c-0.6,0-1.2,0.1-1.6,0.3c-0.4,0.2-0.8,0.5-1.1,0.9
			c-0.3,0.4-0.5,1.1-0.8,1.9l-9.4,36.7h-6.4L25.6,328.9L25.6,328.9z"/>
		<path class="st0" d="M99.8,366.7c-4.1,0-7.5-0.9-10.2-2.6c-2.7-1.7-4.7-4.2-6-7.3c-1.3-3.1-2-6.8-2-10.9s0.7-7.7,2.1-10.8
			c1.4-3.1,3.4-5.5,6.1-7.3s6-2.6,10-2.6c2.8,0,5,0.3,6.8,0.9s3.2,1.4,4.1,2.4c0.9,1,1.4,2.1,1.4,3.4c0,1.5-0.6,2.7-1.9,3.7
			s-3.2,1.5-5.8,1.5c0-2.7-0.2-4.8-0.5-6.5c-0.3-1.7-0.9-2.9-1.6-3.7c-0.8-0.8-1.8-1.2-3.1-1.2c-1.7,0-3.1,0.7-4.2,2
			c-1,1.3-1.8,3.4-2.2,6.4c-0.4,2.9-0.7,6.9-0.7,11.8c0,4.9,0.3,8.8,0.9,11.8s1.6,5.1,2.9,6.4c1.4,1.3,3.2,2,5.4,2
			c2.7,0,4.8-0.9,6.2-2.7c1.5-1.8,2.4-4.3,2.6-7.7c0.8,0.3,1.3,0.7,1.5,1.3c0.3,0.6,0.4,1.2,0.4,1.8c0,0.8-0.2,1.7-0.6,2.6
			c-0.4,0.9-1,1.8-1.9,2.6c-0.9,0.8-2.2,1.5-3.8,2C104.4,366.5,102.3,366.7,99.8,366.7L99.8,366.7z"/>
		<path class="st0" d="M121.7,366.2v-0.6h1.7c0.7,0,1.3-0.1,1.8-0.3c0.4-0.2,0.8-0.6,1-1.1s0.3-1.3,0.3-2.2v-35.6h-2.1
			c-2.1,0-3.9,0.2-5.1,0.7c-1.3,0.5-2.2,1.3-2.8,2.5c-0.6,1.2-1,2.8-1.1,4.8l-0.2,2.5h-0.6l0.4-11.2H148l0.4,11.2h-0.6l-0.2-2.5
			c-0.1-2-0.5-3.7-1.1-4.8c-0.6-1.2-1.6-2-2.8-2.5c-1.3-0.5-3-0.7-5.1-0.7h-2V362c0,0.9,0.1,1.7,0.3,2.2c0.2,0.5,0.5,0.9,1,1.1
			c0.5,0.2,1,0.3,1.8,0.3h1.6v0.6H121.7L121.7,366.2z"/>
		<path class="st0" d="M168,366.7c-4,0-7.3-0.9-10-2.6c-2.6-1.7-4.6-4.2-5.9-7.3c-1.3-3.1-2-6.8-2-11s0.7-7.8,2-10.9
			c1.3-3.1,3.3-5.5,5.9-7.2c2.7-1.7,6-2.6,10-2.6s7,0.9,9.6,2.6c2.6,1.7,4.6,4.1,6,7.2c1.4,3.1,2.1,6.8,2.1,10.9s-0.7,7.8-2.1,10.9
			c-1.4,3.1-3.4,5.5-6,7.3C175,365.9,171.8,366.7,168,366.7L168,366.7z M168,366.2c1.4,0,2.6-0.3,3.5-1s1.7-1.7,2.2-3.3
			c0.6-1.5,1-3.6,1.2-6.2c0.2-2.6,0.4-5.9,0.4-9.8c0-3.9-0.1-7.1-0.4-9.8c-0.2-2.6-0.7-4.7-1.2-6.2c-0.6-1.5-1.3-2.6-2.2-3.3
			c-0.9-0.6-2.1-1-3.4-1s-2.5,0.3-3.5,1c-0.9,0.6-1.7,1.7-2.3,3.3c-0.6,1.5-1,3.6-1.2,6.2c-0.2,2.6-0.4,5.9-0.4,9.8s0.1,7.2,0.4,9.8
			c0.2,2.6,0.7,4.7,1.2,6.2c0.6,1.5,1.3,2.6,2.3,3.3C165.5,365.9,166.6,366.2,168,366.2L168,366.2z"/>
		<path class="st0" d="M189.5,366.2v-0.6h1.9c0.6,0,1-0.1,1.4-0.3c0.4-0.2,0.7-0.5,0.9-1c0.2-0.5,0.3-1.1,0.3-2v-32.8
			c0-0.9-0.1-1.5-0.3-2s-0.5-0.8-0.9-1c-0.4-0.2-0.9-0.3-1.4-0.3h-1.9v-0.6h18c3.7,0,6.7,0.4,8.9,1.3c2.2,0.9,3.8,2.1,4.7,3.7
			c1,1.6,1.4,3.5,1.4,5.7c0,2.2-0.3,3.9-1,5.3c-0.7,1.4-1.6,2.5-2.7,3.3c-1.1,0.8-2.5,1.4-4,1.8l6.4,11.8c0.9,1.7,1.6,3,2.1,3.9
			c0.5,0.9,1,1.6,1.3,2s0.6,0.7,0.8,0.8s0.4,0.2,0.5,0.2h0.1v0.6h-2.5c-1.7,0-3.1-0.1-4.4-0.2c-1.3-0.1-2.4-0.4-3.4-0.8
			c-0.9-0.4-1.8-0.9-2.4-1.6s-1.3-1.6-1.8-2.6l-6.2-13.5h-1.3v15c0,0.8,0.1,1.5,0.3,2s0.4,0.8,0.8,1c0.4,0.2,0.8,0.3,1.4,0.3h1.2
			v0.6L189.5,366.2L189.5,366.2z M206.4,346.8c1.4,0,2.4-0.3,3.3-1c0.8-0.7,1.4-1.8,1.8-3.3c0.4-1.5,0.5-3.5,0.5-5.9
			c0-2.5-0.2-4.4-0.6-5.9c-0.4-1.5-1-2.6-1.8-3.2s-1.9-1-3.3-1h-2.1v20.4L206.4,346.8L206.4,346.8z"/>
		<path class="st0" d="M227.1,366.2v-0.6h2.5c0.5,0,0.9-0.1,1.2-0.3c0.3-0.2,0.5-0.5,0.7-0.9c0.1-0.4,0.2-1,0.2-1.7v-33.2
			c0-0.8-0.1-1.5-0.2-1.9c-0.1-0.4-0.3-0.8-0.7-1s-0.7-0.3-1.2-0.3h-2.5v-0.6h19.2v0.6h-2.6c-0.5,0-0.9,0.1-1.2,0.3s-0.5,0.5-0.7,1
			c-0.1,0.4-0.2,1.1-0.2,1.9v33c0,0.8,0.1,1.3,0.2,1.8c0.1,0.4,0.3,0.7,0.7,0.9c0.3,0.2,0.7,0.3,1.2,0.3h2.6v0.6H227.1z"/>
		<path class="st0" d="M59.8,366.2v-0.6h2.5c0.5,0,0.9-0.1,1.2-0.3c0.3-0.2,0.5-0.5,0.7-0.9c0.1-0.4,0.2-1,0.2-1.7v-33.2
			c0-0.8-0.1-1.5-0.2-1.9c-0.1-0.4-0.3-0.8-0.7-1c-0.3-0.2-0.7-0.3-1.2-0.3h-2.5v-0.6h19.2v0.6h-2.6c-0.5,0-0.9,0.1-1.2,0.3
			c-0.3,0.2-0.5,0.5-0.7,1c-0.1,0.4-0.2,1.1-0.2,1.9v33c0,0.8,0.1,1.3,0.2,1.8c0.1,0.4,0.3,0.7,0.7,0.9c0.3,0.2,0.7,0.3,1.2,0.3h2.6
			v0.6C79.1,366.2,59.8,366.2,59.8,366.2z"/>
		<path class="st0" d="M247.7,366.2v-0.6h2c0.7,0,1.3-0.1,1.8-0.3c0.5-0.2,1-0.6,1.3-1.2c0.4-0.6,0.7-1.4,1-2.4l10.1-35.8h7.8
			l11,36.3c0.3,0.9,0.6,1.6,1,2.1s0.7,0.9,1.1,1.1c0.4,0.2,0.9,0.3,1.5,0.3h0.4v0.6h-18.3v-0.6h2.4c0.8,0,1.3-0.2,1.6-0.5
			c0.3-0.3,0.4-0.8,0.4-1.4c0-0.3,0-0.6-0.1-0.9c-0.1-0.3-0.1-0.6-0.2-1s-0.1-0.7-0.2-1l-2.6-9.5h-12.6l-2.4,8.6
			c-0.1,0.5-0.3,1-0.4,1.5c-0.1,0.5-0.2,0.9-0.3,1.2c-0.1,0.4-0.1,0.7-0.1,1c0,0.6,0.1,1.1,0.4,1.4c0.3,0.3,0.8,0.5,1.5,0.5h3.6v0.6
			L247.7,366.2L247.7,366.2z M257.4,350.8h12.2l-4.1-15.6c-0.2-0.7-0.4-1.4-0.6-2.2c-0.2-0.8-0.4-1.6-0.6-2.4
			c-0.2-0.9-0.4-1.7-0.6-2.6c-0.1,0.6-0.3,1.3-0.4,1.9c-0.1,0.6-0.3,1.2-0.5,1.8c-0.2,0.6-0.3,1.2-0.5,1.8c-0.2,0.6-0.3,1.1-0.5,1.7
			L257.4,350.8L257.4,350.8z"/>
		<path class="st0" d="M298.6,366.2v-0.6h1.9c0.5,0,0.9-0.1,1.4-0.3c0.4-0.2,0.7-0.5,1-1c0.2-0.5,0.4-1.2,0.4-2.1v-32.4
			c0-1-0.1-1.7-0.4-2.2c-0.2-0.5-0.6-0.8-1-1c-0.4-0.2-0.9-0.3-1.4-0.3h-1.8v-0.6h19.2v0.6h-1.9c-0.6,0-1.1,0.1-1.5,0.3
			c-0.4,0.2-0.7,0.5-0.9,1c-0.2,0.5-0.3,1.1-0.3,2v36h5.5c2.4,0,4.4-0.3,5.8-0.9c1.5-0.6,2.6-1.6,3.3-3c0.8-1.4,1.2-3.3,1.4-5.6
			l0.2-2.6h0.6l-0.4,12.7L298.6,366.2L298.6,366.2z"/>
		<path class="st0" d="M331.7,366.2v-0.6h2c0.7,0,1.3-0.1,1.8-0.3c0.5-0.2,1-0.6,1.3-1.2c0.4-0.6,0.7-1.4,1-2.4l10.1-35.8h7.8
			l11,36.3c0.3,0.9,0.6,1.6,1,2.1s0.7,0.9,1.1,1.1c0.4,0.2,0.9,0.3,1.5,0.3h0.4v0.6h-18.3v-0.6h2.4c0.8,0,1.3-0.2,1.6-0.5
			c0.3-0.3,0.4-0.8,0.4-1.4c0-0.3,0-0.6-0.1-0.9c-0.1-0.3-0.1-0.6-0.2-1s-0.1-0.7-0.2-1l-2.6-9.5h-12.6l-2.4,8.6
			c-0.1,0.5-0.3,1-0.4,1.5c-0.1,0.5-0.2,0.9-0.3,1.2c-0.1,0.4-0.1,0.7-0.1,1c0,0.6,0.1,1.1,0.4,1.4s0.8,0.5,1.5,0.5h3.6v0.6
			L331.7,366.2L331.7,366.2z M341.4,350.8h12.2l-4.1-15.6c-0.2-0.7-0.4-1.4-0.6-2.2c-0.2-0.8-0.4-1.6-0.6-2.4
			c-0.2-0.9-0.4-1.7-0.6-2.6c-0.1,0.6-0.3,1.3-0.4,1.9c-0.1,0.6-0.3,1.2-0.5,1.8c-0.2,0.6-0.3,1.2-0.5,1.8c-0.2,0.6-0.3,1.1-0.5,1.7
			L341.4,350.8L341.4,350.8z"/>
		<path class="st0" d="M371.8,366.2v-0.6h2.9c0.7,0,1.2-0.1,1.7-0.3c0.4-0.2,0.8-0.5,1-1.1c0.2-0.5,0.3-1.2,0.3-2.1v-32.5
			c0-0.9-0.1-1.5-0.3-2c-0.2-0.5-0.5-0.8-0.8-1c-0.4-0.2-0.8-0.3-1.4-0.3h-3.4v-0.6h14.9l17,30.1v-26.3c0-0.8-0.1-1.5-0.2-2
			c-0.1-0.5-0.4-0.8-0.8-1c-0.4-0.2-0.8-0.3-1.4-0.3h-4v-0.6h13.2v0.6h-3.8c-0.6,0-1,0.1-1.4,0.3c-0.4,0.2-0.6,0.6-0.8,1.1
			s-0.3,1.2-0.3,2.1v36.3h-4.8l-21.2-37.6v33.5c0,0.9,0.1,1.6,0.2,2.1c0.1,0.5,0.4,0.9,0.7,1.1c0.4,0.2,0.8,0.3,1.4,0.3h4v0.6
			L371.8,366.2L371.8,366.2z"/>
		<path class="st0" d="M431.8,366.7c-4.1,0-7.5-0.9-10.2-2.6c-2.7-1.7-4.7-4.2-6-7.3s-2-6.8-2-10.9s0.7-7.7,2.1-10.8
			s3.4-5.5,6.1-7.3c2.7-1.7,6-2.6,10-2.6c2.8,0,5,0.3,6.8,0.9c1.8,0.6,3.2,1.4,4.1,2.4c0.9,1,1.4,2.1,1.4,3.4c0,1.5-0.6,2.7-1.9,3.7
			c-1.3,1-3.2,1.5-5.8,1.5c0-2.7-0.2-4.8-0.5-6.5c-0.3-1.7-0.9-2.9-1.6-3.7c-0.8-0.8-1.8-1.2-3.1-1.2c-1.7,0-3.1,0.7-4.2,2
			c-1,1.3-1.8,3.4-2.2,6.4c-0.5,2.9-0.7,6.9-0.7,11.8c0,4.9,0.3,8.8,0.9,11.8s1.6,5.1,2.9,6.4c1.4,1.3,3.2,2,5.4,2
			c2.7,0,4.8-0.9,6.2-2.7c1.5-1.8,2.4-4.3,2.6-7.7c0.8,0.3,1.3,0.7,1.5,1.3c0.3,0.6,0.4,1.2,0.4,1.8c0,0.8-0.2,1.7-0.6,2.6
			c-0.4,0.9-1,1.8-1.9,2.6s-2.2,1.5-3.8,2C436.3,366.5,434.3,366.7,431.8,366.7L431.8,366.7z"/>
		<path class="st0" d="M446.7,366.2v-0.6h2c0.7,0,1.3-0.1,1.8-0.3c0.5-0.2,1-0.6,1.3-1.2c0.4-0.6,0.7-1.4,1-2.4l10.1-35.8h7.8
			l11,36.3c0.3,0.9,0.6,1.6,1,2.1c0.3,0.5,0.7,0.9,1.1,1.1c0.4,0.2,0.9,0.3,1.5,0.3h0.4v0.6h-18.3v-0.6h2.4c0.8,0,1.3-0.2,1.6-0.5
			c0.3-0.3,0.4-0.8,0.4-1.4c0-0.3,0-0.6-0.1-0.9c-0.1-0.3-0.1-0.6-0.2-1c-0.1-0.3-0.1-0.7-0.2-1l-2.6-9.5h-12.6l-2.4,8.6
			c-0.1,0.5-0.3,1-0.4,1.5c-0.1,0.5-0.2,0.9-0.3,1.2c-0.1,0.4-0.1,0.7-0.1,1c0,0.6,0.1,1.1,0.4,1.4s0.8,0.5,1.5,0.5h3.6v0.6
			L446.7,366.2L446.7,366.2z M456.5,350.8h12.2l-4.1-15.6c-0.2-0.7-0.4-1.4-0.6-2.2c-0.2-0.8-0.4-1.6-0.6-2.4
			c-0.2-0.9-0.4-1.7-0.6-2.6c-0.1,0.6-0.3,1.3-0.4,1.9c-0.1,0.6-0.3,1.2-0.5,1.8c-0.2,0.6-0.3,1.2-0.5,1.8c-0.2,0.6-0.3,1.1-0.5,1.7
			L456.5,350.8L456.5,350.8z"/>
		<path class="st0" d="M500,366.7c-2.7,0-4.9-0.3-6.6-0.8c-1.7-0.5-3-1.2-4-2c-0.9-0.8-1.6-1.7-1.9-2.6c-0.4-0.9-0.5-1.8-0.5-2.6
			c0-1.5,0.3-2.7,1-3.5c0.6-0.8,1.5-1.4,2.5-1.8c1-0.4,2.1-0.5,3.2-0.5c0,3,0.3,5.4,0.8,7.4c0.5,1.9,1.4,3.4,2.5,4.3
			c1.1,0.9,2.6,1.4,4.4,1.4c2,0,3.6-0.6,4.7-1.7c1.1-1.1,1.6-2.8,1.6-4.8c0-2-0.4-3.5-1.3-4.7c-0.9-1.2-2-2.2-3.5-3
			c-1.5-0.8-3.2-1.7-5.1-2.6c-1.6-0.8-3.1-1.7-4.3-2.5c-1.2-0.9-2.3-1.8-3-2.7s-1.4-2.1-1.8-3.2c-0.4-1.2-0.6-2.4-0.6-3.8
			c0-2.4,0.6-4.6,1.8-6.3c1.2-1.8,2.8-3.1,4.9-4c2-0.9,4.3-1.4,6.8-1.4c2.7,0,4.9,0.3,6.6,1c1.7,0.7,3,1.6,3.8,2.7
			c0.8,1.1,1.2,2.2,1.2,3.4c0,1.3-0.5,2.4-1.6,3.3c-1.1,0.9-2.9,1.3-5.7,1.3c0-3.9-0.4-6.8-1.3-8.5s-2.3-2.7-4.2-2.7
			c-0.9,0-1.8,0.2-2.6,0.6c-0.9,0.4-1.6,1.1-2.1,2s-0.8,2.1-0.8,3.6c0,1.5,0.3,2.7,1,3.8c0.6,1,1.7,2,3.1,2.9
			c1.4,0.9,3.4,1.9,5.9,3.1c2.3,1.1,4.2,2.2,5.6,3.3c1.4,1.2,2.5,2.5,3.1,3.9c0.7,1.4,1,3.1,1,5c0,2.6-0.6,4.8-1.8,6.7
			c-1.2,1.9-2.9,3.4-5,4.4C505.6,366.2,503,366.7,500,366.7L500,366.7z"/>
		<path class="st0" d="M522.6,366.2v-0.6h1.7c0.7,0,1.3-0.1,1.8-0.3c0.4-0.2,0.8-0.6,1-1.1s0.3-1.3,0.3-2.2v-35.6h-2.1
			c-2.1,0-3.9,0.2-5.1,0.7c-1.3,0.5-2.2,1.3-2.8,2.5c-0.6,1.2-1,2.8-1.1,4.8L516,337h-0.6l0.4-11.2h33.1l0.4,11.2h-0.6l-0.2-2.5
			c-0.1-2-0.5-3.7-1.1-4.8c-0.6-1.2-1.6-2-2.8-2.5c-1.3-0.5-3-0.7-5.1-0.7h-2V362c0,0.9,0.1,1.7,0.3,2.2c0.2,0.5,0.5,0.9,1,1.1
			c0.4,0.2,1,0.3,1.8,0.3h1.6v0.6H522.6L522.6,366.2z"/>
		<path class="st0" d="M550.5,366.2v-0.6h1.9c0.5,0,1-0.1,1.4-0.3c0.4-0.2,0.7-0.5,1-1c0.2-0.5,0.4-1.1,0.4-2v-32.5
			c0-1.1-0.1-1.8-0.4-2.3c-0.2-0.5-0.6-0.8-1-1s-0.9-0.2-1.4-0.2h-1.8v-0.6h29.4l0.4,10.5h-0.6l-0.2-1.9c-0.2-2-0.6-3.6-1.2-4.8
			c-0.6-1.2-1.6-2-2.9-2.6c-1.3-0.5-2.9-0.8-5-0.8H565v18.4h12.6v0.6H565v20.3h7.1c2,0,3.7-0.3,5-0.8c1.3-0.5,2.2-1.4,2.9-2.6
			c0.7-1.2,1.1-2.8,1.2-4.8l0.2-1.8h0.6l-0.4,10.5H550.5L550.5,366.2z"/>
		<path class="st0" d="M584.3,366.2v-0.6h1.9c0.6,0,1-0.1,1.4-0.3c0.4-0.2,0.7-0.5,0.9-1c0.2-0.5,0.3-1.1,0.3-2v-32.8
			c0-0.9-0.1-1.5-0.3-2c-0.2-0.5-0.5-0.8-0.9-1c-0.4-0.2-0.8-0.3-1.4-0.3h-1.9v-0.6h18c3.7,0,6.7,0.4,8.9,1.3
			c2.2,0.9,3.8,2.1,4.7,3.7c1,1.6,1.4,3.5,1.4,5.7c0,2.2-0.3,3.9-1,5.3c-0.7,1.4-1.6,2.5-2.7,3.3c-1.1,0.8-2.5,1.4-4,1.8l6.4,11.8
			c0.9,1.7,1.6,3,2.1,3.9c0.5,0.9,1,1.6,1.3,2s0.6,0.7,0.8,0.8c0.2,0.1,0.4,0.2,0.5,0.2h0.1v0.6h-2.5c-1.7,0-3.1-0.1-4.4-0.2
			c-1.3-0.1-2.4-0.4-3.4-0.8c-0.9-0.4-1.8-0.9-2.4-1.6s-1.3-1.6-1.8-2.6l-6.2-13.5h-1.3v15c0,0.8,0.1,1.5,0.3,2
			c0.2,0.5,0.4,0.8,0.8,1c0.4,0.2,0.8,0.3,1.4,0.3h1.2v0.6L584.3,366.2L584.3,366.2z M601.1,346.8c1.4,0,2.4-0.3,3.3-1
			c0.8-0.7,1.4-1.8,1.8-3.3c0.4-1.5,0.5-3.5,0.5-5.9c0-2.5-0.2-4.4-0.6-5.9c-0.4-1.5-1-2.6-1.8-3.2c-0.8-0.7-1.9-1-3.3-1h-2.1v20.4
			L601.1,346.8L601.1,346.8z"/>
	</g>
	<g>
		<path class="st0" d="M212.6,413.1v-0.3h1.2c0.3,0,0.6-0.1,0.9-0.2c0.2-0.1,0.4-0.3,0.6-0.6c0.1-0.3,0.2-0.7,0.2-1.2v-20.3
			c0-0.5-0.1-1-0.2-1.2c-0.1-0.3-0.3-0.5-0.6-0.6c-0.2-0.1-0.5-0.2-0.9-0.2h-1.2v-0.4h11.2c2.3,0,4.1,0.3,5.5,0.8
			c1.4,0.5,2.3,1.3,2.9,2.3c0.6,1,0.9,2.2,0.9,3.5c0,1.4-0.2,2.4-0.6,3.3s-1,1.5-1.7,2c-0.7,0.5-1.5,0.9-2.5,1.1l4,7.3
			c0.5,1,1,1.8,1.3,2.4c0.3,0.6,0.6,1,0.8,1.2c0.2,0.3,0.4,0.4,0.5,0.5c0.1,0.1,0.2,0.1,0.3,0.1h0.1v0.3h-1.5c-1,0-1.9,0-2.7-0.1
			c-0.8-0.1-1.5-0.3-2.1-0.5c-0.6-0.2-1.1-0.6-1.5-1c-0.4-0.4-0.8-1-1.1-1.6l-3.8-8.4h-0.8v9.3c0,0.5,0.1,0.9,0.2,1.2
			c0.1,0.3,0.3,0.5,0.5,0.6c0.2,0.1,0.5,0.2,0.9,0.2h0.7v0.3L212.6,413.1L212.6,413.1z M223,401.1c0.8,0,1.5-0.2,2-0.6
			c0.5-0.4,0.9-1.1,1.1-2s0.3-2.2,0.3-3.7c0-1.5-0.1-2.7-0.3-3.6c-0.2-0.9-0.6-1.6-1.1-2c-0.5-0.4-1.2-0.6-2-0.6h-1.3v12.6
			L223,401.1L223,401.1z"/>
		<path class="st0" d="M235.8,413.1v-0.3h1.2c0.3,0,0.6-0.1,0.9-0.2c0.2-0.1,0.4-0.3,0.6-0.6c0.1-0.3,0.2-0.7,0.2-1.2v-20.1
			c0-0.7-0.1-1.1-0.2-1.4s-0.4-0.5-0.6-0.6c-0.3-0.1-0.6-0.1-0.9-0.1h-1.1v-0.4H254l0.2,6.5h-0.3l-0.1-1.2c-0.1-1.2-0.4-2.2-0.8-2.9
			s-1-1.3-1.8-1.6c-0.8-0.3-1.8-0.5-3.1-0.5h-3.4v11.4h7.8v0.4h-7.8v12.5h4.4c1.3,0,2.3-0.2,3.1-0.5c0.8-0.3,1.4-0.9,1.8-1.6
			c0.4-0.7,0.7-1.7,0.8-3l0.1-1.1h0.3l-0.2,6.5L235.8,413.1L235.8,413.1z"/>
		<path class="st0" d="M256.2,413.1v-0.3h1.2c0.4,0,0.8-0.1,1.1-0.2c0.3-0.1,0.6-0.4,0.8-0.8c0.2-0.4,0.4-0.9,0.6-1.5l6.3-22.1h4.8
			l6.8,22.4c0.2,0.5,0.4,1,0.6,1.3c0.2,0.3,0.4,0.6,0.7,0.7c0.3,0.1,0.6,0.2,0.9,0.2h0.2v0.3H269v-0.3h1.5c0.5,0,0.8-0.1,1-0.3
			c0.2-0.2,0.3-0.5,0.3-0.8c0-0.2,0-0.4-0.1-0.6s-0.1-0.4-0.1-0.6c0-0.2-0.1-0.4-0.1-0.6l-1.6-5.9h-7.8l-1.5,5.3
			c-0.1,0.3-0.2,0.6-0.2,0.9c-0.1,0.3-0.1,0.5-0.2,0.8s-0.1,0.4-0.1,0.6c0,0.4,0.1,0.7,0.3,0.9s0.5,0.3,0.9,0.3h2.2v0.3L256.2,413.1
			L256.2,413.1z M262.3,403.6h7.6l-2.5-9.6c-0.1-0.4-0.2-0.9-0.3-1.3c-0.1-0.5-0.2-1-0.4-1.5s-0.3-1.1-0.4-1.6
			c-0.1,0.4-0.2,0.8-0.3,1.2c-0.1,0.4-0.2,0.7-0.3,1.1c-0.1,0.4-0.2,0.7-0.3,1.1s-0.2,0.7-0.3,1L262.3,403.6L262.3,403.6z"/>
		<path class="st0" d="M281,413.1v-0.3h1.2c0.3,0,0.6-0.1,0.8-0.2c0.3-0.1,0.5-0.3,0.6-0.6c0.1-0.3,0.2-0.7,0.2-1.3v-20
			c0-0.6-0.1-1.1-0.2-1.3c-0.1-0.3-0.4-0.5-0.6-0.6c-0.3-0.1-0.6-0.2-0.9-0.2h-1.1v-0.4h11.9v0.4h-1.2c-0.3,0-0.7,0.1-0.9,0.2
			c-0.3,0.1-0.4,0.3-0.6,0.6c-0.1,0.3-0.2,0.7-0.2,1.2v22.3h3.4c1.5,0,2.7-0.2,3.6-0.6c0.9-0.4,1.6-1,2.1-1.9c0.5-0.9,0.7-2,0.8-3.5
			l0.1-1.6h0.3l-0.3,7.9L281,413.1L281,413.1z"/>
		<path class="st0" d="M308.6,413.1v-0.3h1.2c0.3,0,0.6-0.1,0.9-0.2c0.2-0.1,0.4-0.3,0.6-0.6c0.1-0.3,0.2-0.7,0.2-1.2v-20.1
			c0-0.7-0.1-1.1-0.2-1.4c-0.1-0.3-0.4-0.5-0.6-0.6c-0.3-0.1-0.6-0.1-0.9-0.1h-1.1v-0.4h18.2l0.2,6.5h-0.3l-0.1-1.2
			c-0.1-1.2-0.4-2.2-0.8-2.9s-1-1.3-1.8-1.6c-0.8-0.3-1.8-0.5-3.1-0.5h-3.4v11.4h7.8v0.4h-7.8v12.5h4.4c1.3,0,2.3-0.2,3.1-0.5
			c0.8-0.3,1.4-0.9,1.8-1.6c0.4-0.7,0.7-1.7,0.8-3l0.1-1.1h0.3l-0.2,6.5L308.6,413.1L308.6,413.1z"/>
		<path class="st0" d="M337.6,413.4c-1.7,0-3-0.2-4.1-0.5c-1.1-0.3-1.9-0.7-2.4-1.2c-0.6-0.5-1-1-1.2-1.6c-0.2-0.6-0.3-1.1-0.3-1.6
			c0-0.9,0.2-1.7,0.6-2.2c0.4-0.5,0.9-0.9,1.5-1.1c0.6-0.2,1.3-0.3,2-0.3c0,1.8,0.2,3.4,0.5,4.6s0.9,2.1,1.6,2.7
			c0.7,0.6,1.6,0.9,2.7,0.9c1.3,0,2.2-0.4,2.9-1.1c0.7-0.7,1-1.7,1-3c0-1.2-0.3-2.2-0.8-2.9c-0.5-0.7-1.3-1.4-2.2-1.9
			c-0.9-0.5-2-1-3.2-1.6c-1-0.5-1.9-1-2.7-1.6c-0.8-0.5-1.4-1.1-1.9-1.7s-0.8-1.3-1.1-2c-0.2-0.7-0.4-1.5-0.4-2.4
			c0-1.5,0.4-2.8,1.1-3.9c0.7-1.1,1.7-1.9,3-2.5c1.3-0.6,2.7-0.9,4.2-0.9c1.7,0,3,0.2,4.1,0.6c1.1,0.4,1.8,1,2.3,1.6
			s0.7,1.4,0.7,2.1c0,0.8-0.3,1.5-1,2c-0.7,0.6-1.8,0.8-3.5,0.8c0-2.4-0.3-4.2-0.8-5.3c-0.6-1.1-1.4-1.6-2.6-1.6
			c-0.6,0-1.1,0.1-1.6,0.4c-0.5,0.3-1,0.7-1.3,1.2c-0.3,0.6-0.5,1.3-0.5,2.2s0.2,1.7,0.6,2.3c0.4,0.6,1,1.2,1.9,1.8
			c0.9,0.6,2.1,1.2,3.6,1.9c1.4,0.7,2.6,1.3,3.5,2.1c0.9,0.7,1.5,1.5,1.9,2.4c0.4,0.9,0.6,1.9,0.6,3.1c0,1.6-0.4,3-1.1,4.2
			c-0.7,1.2-1.8,2.1-3.1,2.7C341,413.1,339.4,413.4,337.6,413.4L337.6,413.4z"/>
		<path class="st0" d="M351.5,413.1v-0.3h1c0.4,0,0.8-0.1,1.1-0.2c0.3-0.1,0.5-0.4,0.6-0.7s0.2-0.8,0.2-1.4v-22h-1.3
			c-1.3,0-2.4,0.1-3.2,0.5c-0.8,0.3-1.4,0.8-1.7,1.6c-0.4,0.7-0.6,1.7-0.7,3l-0.1,1.6h-0.3l0.2-6.9h20.5l0.2,6.9h-0.3l-0.1-1.6
			c-0.1-1.3-0.3-2.3-0.7-3c-0.4-0.7-1-1.3-1.7-1.6c-0.8-0.3-1.8-0.5-3.1-0.5h-1.3v22c0,0.6,0.1,1,0.2,1.4c0.1,0.3,0.3,0.6,0.6,0.7
			c0.3,0.1,0.6,0.2,1.1,0.2h1v0.3H351.5L351.5,413.1z"/>
		<path class="st0" d="M366.5,413.1v-0.3h1.2c0.4,0,0.8-0.1,1.1-0.2c0.3-0.1,0.6-0.4,0.8-0.8c0.2-0.4,0.4-0.9,0.6-1.5l6.3-22.1h4.8
			l6.8,22.4c0.2,0.5,0.4,1,0.6,1.3c0.2,0.3,0.4,0.6,0.7,0.7c0.3,0.1,0.6,0.2,0.9,0.2h0.2v0.3h-11.3v-0.3h1.5c0.5,0,0.8-0.1,1-0.3
			c0.2-0.2,0.3-0.5,0.3-0.8c0-0.2,0-0.4-0.1-0.6c0-0.2-0.1-0.4-0.1-0.6c0-0.2-0.1-0.4-0.1-0.6l-1.6-5.9h-7.8l-1.5,5.3
			c-0.1,0.3-0.2,0.6-0.2,0.9c-0.1,0.3-0.1,0.5-0.2,0.8s-0.1,0.4-0.1,0.6c0,0.4,0.1,0.7,0.3,0.9c0.2,0.2,0.5,0.3,0.9,0.3h2.2v0.3
			L366.5,413.1L366.5,413.1z M372.5,403.6h7.6l-2.5-9.6c-0.1-0.4-0.2-0.9-0.3-1.3c-0.1-0.5-0.2-1-0.4-1.5s-0.3-1.1-0.4-1.6
			c-0.1,0.4-0.2,0.8-0.3,1.2c-0.1,0.4-0.2,0.7-0.3,1.1c-0.1,0.4-0.2,0.7-0.3,1.1s-0.2,0.7-0.3,1L372.5,403.6L372.5,403.6z"/>
		<path class="st0" d="M393.3,413.1v-0.3h1c0.4,0,0.8-0.1,1.1-0.2c0.3-0.1,0.5-0.4,0.6-0.7c0.1-0.3,0.2-0.8,0.2-1.4v-22h-1.3
			c-1.3,0-2.4,0.1-3.2,0.5c-0.8,0.3-1.4,0.8-1.7,1.6c-0.4,0.7-0.6,1.7-0.7,3l-0.1,1.6h-0.3l0.2-6.9h20.5l0.2,6.9h-0.4l-0.1-1.6
			c-0.1-1.3-0.3-2.3-0.7-3c-0.4-0.7-1-1.3-1.7-1.6c-0.8-0.3-1.8-0.5-3.1-0.5h-1.3v22c0,0.6,0.1,1,0.2,1.4c0.1,0.3,0.3,0.6,0.6,0.7
			c0.3,0.1,0.6,0.2,1.1,0.2h1v0.3H393.3L393.3,413.1z"/>
		<path class="st0" d="M410.5,413.1v-0.3h1.2c0.3,0,0.6-0.1,0.9-0.2c0.2-0.1,0.4-0.3,0.6-0.6c0.1-0.3,0.2-0.7,0.2-1.2v-20.1
			c0-0.7-0.1-1.1-0.2-1.4c-0.1-0.3-0.4-0.5-0.6-0.6c-0.3-0.1-0.6-0.1-0.9-0.1h-1.1v-0.4h18.2l0.2,6.5h-0.3l-0.1-1.2
			c-0.1-1.2-0.4-2.2-0.8-2.9s-1-1.3-1.8-1.6c-0.8-0.3-1.8-0.5-3.1-0.5h-3.4v11.4h7.8v0.4h-7.8v12.5h4.4c1.3,0,2.3-0.2,3.1-0.5
			c0.8-0.3,1.4-0.9,1.8-1.6s0.7-1.7,0.8-3l0.1-1.1h0.4l-0.2,6.5L410.5,413.1L410.5,413.1z"/>
	</g>
	<g>
		<path class="st0" d="M224.8,40.2c-0.7-2.2-1.3-4.3-1.8-6.3c-0.5-2-0.9-3.9-1.3-5.8c-0.4-1.8-0.6-3.5-0.6-5c0-5.2,1.8-8.8,5.4-10.8
			c3.6-2,8.7-3,15.4-3h12.6V5.7H146.9v3.7h4.5c4.5,0,8.2,0.6,11.3,1.7s5.8,3.1,8.2,6s4.4,6.7,6.1,11.7L246.6,227
			c0.3-1.2,0.7-2.5,1-3.7c1.4-5.1,3-10.5,4.8-16.2c1.9-5.7,3.7-11.4,5.6-17.2c1.8-5.8,3.9-11.8,6.1-18l3-8.7L224.8,40.2L224.8,40.2z
			"/>
		<path class="st0" d="M495.6,190.1l-28.4,80.5H261.6l-1.3-3.7h6.9c0.4,0,0.8,0,1.3,0c8.8-0.6,14.5-13,16.3-17.4
			c4.4-13.5,8.8-27.2,13.4-40.9c4.1-12.4,8.2-24.6,12.4-36.8l45.3-131.7c0.7-2.2,1.3-4.3,1.8-6.3c0.5-2,0.9-3.9,1.3-5.8
			c0.4-1.8,0.6-3.5,0.6-5c0-5.2-1.8-8.8-5.4-10.8c-3.6-2-8.7-3-15.4-3h-12.6V5.7h107.6v3.7h-4.5c-4.5,0-8.2,0.6-11.3,1.7
			s-5.8,3.1-8.2,6c-2.4,2.8-4.4,6.7-6.1,11.7l-72.6,206.6l-11.1,31.7h99.7c3.2,0,6.1-0.4,8.8-0.9c28.8-5.7,44.4-35.6,49-45.4
			c4.8-10.2,9.6-20.3,14.4-30.5L495.6,190.1L495.6,190.1z"/>
	</g>
</g>
<path class="st0" d="M217.7,276.1h0.7C217.9,276.1,217.7,276.1,217.7,276.1z"/>
</svg>
