<?xml version="1.0" encoding="utf-8"?>
<!-- Generator: Adobe Illustrator 28.0.0, SVG Export Plug-In . SVG Version: 6.00 Build 0)  -->
<svg version="1.1" id="Layer_1" xmlns="http://www.w3.org/2000/svg" xmlns:xlink="http://www.w3.org/1999/xlink" x="0px" y="0px"
	 viewBox="0 0 640.7 365" style="enable-background:new 0 0 640.7 365;" xml:space="preserve">
<style type="text/css">
	.st0{fill:#FFFFFF;}
</style>
<g>
	<path class="st0" d="M231.1,32c-0.7-2.1-1.2-4-1.7-5.8s-0.9-3.6-1.2-5.3c-0.3-1.7-0.5-3.2-0.5-4.6c0-4.8,1.7-8.1,5-10
		c3.3-1.8,8.1-2.8,14.2-2.8h11.7V0h-99.6v3.4h4.1c4.1,0,7.6,0.5,10.5,1.5s5.4,2.9,7.6,5.5c2.2,2.6,4.1,6.2,5.7,10.8l64.5,183.6
		c0.3-1.1,0.6-2.3,0.9-3.4c1.3-4.7,2.8-9.7,4.5-14.9c1.7-5.3,3.4-10.6,5.2-16c1.7-5.4,3.6-10.9,5.7-16.7l2.8-8.1L231.1,32L231.1,32z
		"/>
	<path class="st0" d="M481.7,170.7l-26.3,74.6H265.1l-1.2-3.4h6.4c0.4,0,0.8,0,1.2,0c8.1-0.5,13.4-12,15.1-16.1
		c4-12.5,8.2-25.1,12.4-37.8c3.8-11.4,7.6-22.8,11.5-34l41.9-122c0.7-2.1,1.2-4,1.7-5.8s0.9-3.6,1.2-5.3c0.3-1.7,0.5-3.2,0.5-4.6
		c0-4.8-1.7-8.1-5-10c-3.3-1.8-8.1-2.8-14.2-2.8h-11.7V0h99.6v3.4h-4.1c-4.1,0-7.6,0.5-10.5,1.5c-2.9,1-5.4,2.9-7.5,5.5
		s-4.1,6.2-5.7,10.8l-67.2,191.2l-10.3,29.3h92.3c2.9-0.1,5.7-0.4,8.2-0.9c26.7-5.2,41.1-33,45.4-42c4.4-9.4,8.9-18.8,13.3-28.2
		H481.7L481.7,170.7z"/>
</g>
<path class="st0" d="M298.1,250.3h0.7C298.3,250.3,298.1,250.3,298.1,250.3z"/>
<g>
	<path class="st0" d="M14.7,286.9H5.2c-0.6-1.2-1.3-2.1-2.2-2.6s-1.7-0.8-2.6-0.8H0V283h17.2v0.5h-0.5c-0.7,0-1.3,0.3-1.8,0.9
		C14.4,285,14.3,285.9,14.7,286.9L14.7,286.9z M21.4,321.9L3.5,283.3h9.7l11.6,28.2L21.4,321.9z M21.4,321.9l-0.2-6.6L35,283.1h3.9
		l-14.3,31.7c-0.1,0.2-0.2,0.6-0.5,1.2c-0.3,0.6-0.6,1.3-0.9,2s-0.6,1.5-0.8,2.2c-0.2,0.7-0.4,1.2-0.4,1.6H21.4L21.4,321.9z
		 M33.4,286.9c0.5-1.1,0.4-1.9-0.2-2.5c-0.6-0.6-1.2-0.9-1.9-0.9h-0.5V283h11.6v0.5h-0.5c-0.8,0-1.6,0.3-2.5,0.8
		c-0.9,0.5-1.6,1.4-2.2,2.6L33.4,286.9L33.4,286.9z"/>
	<path class="st0" d="M47.5,286.9h-0.2c0-0.9-0.4-1.7-1-2.4c-0.7-0.7-1.5-1-2.4-1h-0.7V283h4.3L47.5,286.9L47.5,286.9z M47.5,316.9
		v4h-4.3v-0.5h0.7c0.9,0,1.7-0.3,2.4-1s1-1.5,1-2.4H47.5L47.5,316.9z M55.5,283v37.9h-8.1V283H55.5z M55.3,286.9v-4h4.3v0.5h-0.7
		c-0.9,0-1.7,0.3-2.4,1s-1,1.5-1,2.4H55.3L55.3,286.9z M55.3,316.9h0.2c0,0.9,0.4,1.7,1,2.4c0.7,0.7,1.5,1,2.4,1h0.7v0.5h-4.3
		L55.3,316.9L55.3,316.9z"/>
	<path class="st0" d="M99.8,305.1l0.5,9.3c-0.8,1.3-1.9,2.5-3.2,3.6s-3,2-5,2.6c-2,0.7-4.3,1-7,1c-4.4,0-8.2-0.8-11.6-2.4
		s-5.8-3.8-7.7-6.7s-2.7-6.5-2.7-10.6s0.9-7.5,2.6-10.5s4.3-5.2,7.6-6.8c3.3-1.6,7.2-2.4,11.8-2.4c2.9,0,5.5,0.3,7.8,0.9
		s4.2,1.3,5.8,2.1l0.1,9.2h-0.5c-1-3.6-2.6-6.1-4.8-7.6c-2.2-1.5-4.8-2.3-7.7-2.3s-5.4,0.7-7.4,2.1c-2.1,1.4-3.6,3.4-4.8,6
		s-1.7,5.6-1.7,9.2s0.5,6.6,1.6,9.2c1.1,2.6,2.6,4.6,4.5,6.1c2,1.4,4.3,2.2,6.9,2.3c2.8,0,5.1-0.5,7-1.4c1.9-0.9,3.4-2.4,4.6-4.5
		c1.2-2.1,2.1-4.9,2.6-8.4L99.8,305.1L99.8,305.1z"/>
	<path class="st0" d="M103.7,282c0.4,0.1,0.9,0.3,1.7,0.4c0.7,0.1,1.6,0.3,2.5,0.4c0.9,0.1,1.7,0.2,2.5,0.2l-6.6,0.6V282L103.7,282z
		 M138.3,282.9v2.3h-34.6v-2.3H138.3z M109.7,285v0.2c-1.7,0-3,0.5-4,1.5s-1.5,2.3-1.5,4v0.6l-0.5,0V285L109.7,285L109.7,285z
		 M117.1,316.9v4h-4.3v-0.5h0.7c0.9,0,1.7-0.3,2.4-1s1-1.5,1.1-2.4H117.1L117.1,316.9z M125.1,283.1v37.7H117v-37.7H125.1z
		 M124.9,316.9h0.2c0,0.9,0.4,1.7,1.1,2.4c0.7,0.7,1.5,1,2.4,1h0.7v0.5h-4.3L124.9,316.9L124.9,316.9z M138.3,282v1.6l-6.6-0.6
		c0.8,0,1.6,0,2.5-0.2c0.9-0.1,1.7-0.2,2.5-0.4C137.5,282.3,138,282.1,138.3,282L138.3,282z M138.3,285v6.4l-0.5,0v-0.6
		c0-1.7-0.5-3-1.5-4s-2.3-1.5-4-1.5v-0.2L138.3,285L138.3,285z"/>
	<path class="st0" d="M162.4,282.2c4.3,0,8.1,0.8,11.3,2.4c3.2,1.6,5.7,3.9,7.4,6.8s2.6,6.4,2.6,10.5s-0.9,7.5-2.6,10.5
		s-4.2,5.2-7.4,6.8c-3.2,1.6-6.9,2.4-11.3,2.4s-8.1-0.8-11.3-2.4c-3.2-1.6-5.6-3.9-7.4-6.8c-1.7-2.9-2.6-6.4-2.6-10.5
		s0.9-7.5,2.6-10.5c1.7-2.9,4.2-5.2,7.4-6.8C154.3,283,158.1,282.2,162.4,282.2z M162.4,319.3c2.6,0,4.8-0.7,6.6-2.1
		c1.8-1.4,3.3-3.4,4.3-6c1-2.6,1.5-5.7,1.5-9.2s-0.5-6.6-1.5-9.2c-1-2.6-2.4-4.6-4.3-6c-1.8-1.4-4-2.1-6.6-2.1s-4.7,0.7-6.6,2.1
		c-1.9,1.4-3.3,3.4-4.3,6c-1,2.6-1.5,5.7-1.5,9.2s0.5,6.6,1.5,9.2s2.4,4.6,4.3,6C157.7,318.6,159.9,319.3,162.4,319.3z"/>
	<path class="st0" d="M191.7,286.9h-0.2c0-0.9-0.4-1.7-1.1-2.4c-0.7-0.7-1.5-1-2.4-1h-0.7V283h4.3L191.7,286.9L191.7,286.9z
		 M191.7,316.9v4h-4.3v-0.5h0.7c0.9,0,1.7-0.3,2.4-1s1-1.5,1.1-2.4H191.7L191.7,316.9z M199.7,283v37.9h-8.1V283H199.7z M205.9,283
		c1.6,0,3.2,0.2,4.8,0.5c1.6,0.4,2.9,0.9,4.1,1.7s2.2,1.8,2.9,3.1c0.7,1.3,1.1,2.9,1.1,4.8c0,1.5-0.3,3-0.9,4.5
		c-0.6,1.5-1.6,2.8-2.9,3.8c-1.3,1.1-3,1.7-5,1.9c1.1,0.4,2.2,1,3.2,2c1,0.9,1.7,1.9,2.4,2.8c0,0.1,0.2,0.4,0.6,1
		c0.4,0.6,0.9,1.3,1.4,2.1s1.1,1.7,1.8,2.6c0.6,0.9,1.2,1.6,1.7,2.3c0.8,1,1.5,1.8,2.2,2.4c0.6,0.6,1.3,1,2.1,1.3
		c0.7,0.3,1.6,0.4,2.5,0.5v0.5h-5.3c-1.9,0-3.7-0.2-5.3-0.5s-3-0.9-4.2-1.8c-1.2-0.8-2.3-2-3.2-3.4c-0.3-0.4-0.6-1-0.9-1.6
		c-0.3-0.7-0.7-1.4-1.1-2.1s-0.7-1.5-1.1-2.2s-0.6-1.3-0.9-1.9c-0.2-0.6-0.4-1-0.5-1.4c-0.5-1.1-1-2-1.6-2.6c-0.6-0.6-1.3-0.9-2-1
		v-0.5h1.7c1,0,1.9-0.2,2.8-0.6s1.7-1,2.5-2c0.7-0.9,1.2-2.1,1.5-3.7c0.1-0.3,0.1-0.7,0.2-1.1s0.1-0.9,0-1.5
		c-0.1-2.6-0.8-4.5-1.9-5.7s-2.7-1.8-4.4-1.9c-0.5,0-1.1,0-1.6,0c-0.6,0-1.1,0-1.6,0h-1c0,0-0.1-0.2-0.1-0.6s-0.2-1-0.4-1.8
		L205.9,283L205.9,283z M199.5,316.9h0.2c0,0.9,0.3,1.7,1,2.4c0.7,0.7,1.5,1,2.4,1h0.6v0.5h-4.3L199.5,316.9L199.5,316.9z"/>
	<path class="st0" d="M231.3,286.9h-0.2c0-0.9-0.4-1.7-1.1-2.4c-0.7-0.7-1.5-1-2.4-1H227V283h4.3L231.3,286.9L231.3,286.9z
		 M231.3,316.9v4H227v-0.5h0.7c0.9,0,1.7-0.3,2.4-1s1-1.5,1.1-2.4H231.3L231.3,316.9z M239.3,283v37.9h-8.1V283H239.3z M239.1,286.9
		v-4h4.3v0.5h-0.7c-0.9,0-1.7,0.3-2.4,1s-1,1.5-1.1,2.4H239.1L239.1,286.9z M239.1,316.9h0.2c0,0.9,0.4,1.7,1.1,2.4
		c0.7,0.7,1.5,1,2.4,1h0.7v0.5h-4.3L239.1,316.9L239.1,316.9z"/>
	<path class="st0" d="M252.8,316.9c-0.3,0.7-0.3,1.3-0.2,1.8s0.5,0.9,0.9,1.2s0.9,0.4,1.3,0.4h0.5v0.5h-11.6v-0.5h0.5
		c0.8,0,1.7-0.3,2.6-0.8s1.6-1.4,2.2-2.6L252.8,316.9L252.8,316.9z M264.5,281.9l0.2,6.6l-13.4,32.2h-3.9l14-31.7
		c0.1-0.2,0.3-0.6,0.6-1.2c0.3-0.6,0.6-1.3,0.9-2s0.6-1.5,0.8-2.2s0.4-1.2,0.4-1.6H264.5L264.5,281.9z M270.1,308v2.3h-15.9V308
		H270.1z M264.5,281.9l17.7,38.6h-9.7l-11.2-28.2L264.5,281.9z M271,316.9h9.5c0.6,1.2,1.4,2.1,2.2,2.6c0.9,0.5,1.7,0.8,2.5,0.8h0.4
		v0.5h-17.2v-0.5h0.5c0.7,0,1.4-0.3,1.9-0.9C271.3,318.8,271.4,318,271,316.9L271,316.9z"/>
	<path class="st0" d="M304.2,286.9h-0.2c0-0.9-0.4-1.7-1-2.4c-0.7-0.7-1.5-1-2.4-1h-0.7V283h4.3L304.2,286.9L304.2,286.9z
		 M304.2,316.9v4h-4.3v-0.5h0.7c0.9,0,1.7-0.3,2.4-1s1-1.5,1-2.4H304.2L304.2,316.9z M312.2,283v37.9h-8.1V283H312.2z M312,286.9v-4
		h4.3v0.5h-0.7c-0.9,0-1.7,0.3-2.4,1s-1,1.5-1,2.4H312L312,286.9z M326.5,318.5l1.3,2.3H312v-2.3H326.5z M330.4,309.8l-2.5,11.1
		h-10.6l2-2.3c1.8,0,3.4-0.4,4.8-1c1.4-0.7,2.5-1.7,3.5-3c1-1.3,1.8-2.9,2.3-4.7L330.4,309.8L330.4,309.8z"/>
	<path class="st0" d="M338.5,316.9c-0.3,0.7-0.3,1.3-0.2,1.8s0.5,0.9,0.9,1.2s0.9,0.4,1.3,0.4h0.5v0.5h-11.6v-0.5h0.5
		c0.8,0,1.7-0.3,2.6-0.8s1.6-1.4,2.2-2.6L338.5,316.9L338.5,316.9z M350.2,281.9l0.2,6.6L337,320.7h-4l14-31.7
		c0.1-0.2,0.3-0.6,0.6-1.2c0.3-0.6,0.6-1.3,0.9-2s0.6-1.5,0.8-2.2s0.4-1.2,0.4-1.6H350.2L350.2,281.9z M355.8,308v2.3h-15.9V308
		H355.8z M350.2,281.9l17.7,38.6h-9.7l-11.2-28.2L350.2,281.9z M356.6,316.9h9.5c0.6,1.2,1.4,2.1,2.2,2.6c0.9,0.5,1.7,0.8,2.5,0.8
		h0.4v0.5h-17.2v-0.5h0.5c0.7,0,1.4-0.3,1.9-0.9C357,318.8,357.1,318,356.6,316.9L356.6,316.9z"/>
	<path class="st0" d="M375.9,317v3.8h-4.5v-0.5h1c0.9,0,1.7-0.3,2.3-1s1-1.4,1-2.3H375.9z M375.6,282.2l7.8,8.3l0,30.4h-7.7v-31.9
		c0-2-0.2-4.3-0.6-6.8L375.6,282.2L375.6,282.2z M375.6,282.2l34.5,32.9l0.6,6.5l-34.5-32.8L375.6,282.2z M383.5,317
		c0,0.9,0.3,1.7,1,2.3s1.4,1,2.3,1h1v0.5h-4.5V317H383.5z M398.6,283h4.5v3.8H403c0-0.9-0.4-1.7-1-2.4s-1.4-1-2.4-1h-1V283
		L398.6,283z M410.6,283v31.7c0,1.3,0,2.5,0.2,3.6c0.1,1.1,0.3,2.2,0.5,3.3h-0.5l-7.8-8.8V283L410.6,283L410.6,283z M415,283v0.5h-1
		c-0.9,0-1.7,0.3-2.3,1s-1,1.4-1,2.4h-0.2V283L415,283L415,283z"/>
	<path class="st0" d="M454.7,305.1l0.5,9.3c-0.8,1.3-1.9,2.5-3.2,3.6c-1.3,1.1-3,2-5,2.6c-2,0.7-4.3,1-7,1c-4.4,0-8.2-0.8-11.5-2.4
		s-5.9-3.8-7.6-6.7s-2.7-6.5-2.7-10.6s0.9-7.5,2.6-10.5s4.3-5.2,7.6-6.8c3.3-1.6,7.2-2.4,11.8-2.4c2.9,0,5.5,0.3,7.8,0.9
		s4.2,1.3,5.8,2.1l0,9.2h-0.5c-1-3.6-2.6-6.1-4.8-7.6s-4.8-2.3-7.7-2.3s-5.4,0.7-7.4,2.1s-3.6,3.4-4.8,6s-1.7,5.6-1.7,9.2
		s0.5,6.6,1.6,9.2c1.1,2.6,2.6,4.6,4.5,6.1c2,1.4,4.3,2.2,7,2.3c2.8,0,5.1-0.5,7-1.4s3.5-2.4,4.6-4.5c1.2-2.1,2-4.9,2.6-8.4
		L454.7,305.1L454.7,305.1z"/>
	<path class="st0" d="M465.4,316.9c-0.3,0.7-0.3,1.3-0.2,1.8s0.5,0.9,0.9,1.2s0.9,0.4,1.3,0.4h0.5v0.5h-11.6v-0.5h0.5
		c0.8,0,1.7-0.3,2.6-0.8s1.6-1.4,2.2-2.6L465.4,316.9L465.4,316.9z M477,281.9l0.2,6.6l-13.4,32.2h-4l14-31.7
		c0.1-0.2,0.3-0.6,0.6-1.2c0.3-0.6,0.6-1.3,0.9-2s0.6-1.5,0.8-2.2s0.4-1.2,0.4-1.6H477L477,281.9z M482.7,308v2.3h-15.9V308H482.7z
		 M477,281.9l17.7,38.6H485l-11.2-28.2L477,281.9z M483.5,316.9h9.5c0.6,1.2,1.4,2.1,2.2,2.6c0.9,0.5,1.7,0.8,2.5,0.8h0.4v0.5H481
		v-0.5h0.5c0.7,0,1.4-0.3,1.9-0.9C483.9,318.8,483.9,318,483.5,316.9L483.5,316.9z"/>
	<path class="st0" d="M511.6,282.2c0.7,0,1.6,0,2.7,0.1c1.1,0.1,2.2,0.2,3.3,0.3c1.1,0.1,2.1,0.2,3,0.4s1.4,0.3,1.8,0.4l-0.7,7.3
		h-0.5c0-1.9-0.7-3.4-2.1-4.5c-1.4-1.1-3.2-1.7-5.5-1.7c-2.1,0-3.8,0.5-5.1,1.5c-1.3,1-2,2.2-2,3.7c0,1.1,0.3,2,1,2.8
		s1.6,1.5,2.8,2.2l10.3,6.7c1.7,0.9,2.9,2.2,3.8,3.7c0.8,1.5,1.2,3.3,1.1,5.3c-0.2,3.5-1.5,6.3-4.1,8.2c-2.5,2-6,3-10.3,3
		c-1.6,0-3.1-0.1-4.6-0.4s-2.8-0.6-4-1.1s-2.1-1.1-2.8-1.8c-0.3-0.8-0.4-1.8-0.4-2.9c0-1.1,0.2-2.2,0.5-3.4c0.3-1.1,0.7-2.1,1.2-2.9
		h0.5c-0.1,1.8,0.2,3.5,1,5.1c0.8,1.6,2,2.8,3.6,3.7s3.4,1.4,5.6,1.3c2.4,0,4.2-0.6,5.5-1.8c1.3-1.2,2-2.6,2-4.2c0-1.1-0.3-2.1-1-3
		s-1.8-1.8-3.3-2.6l-9.5-6.3c-1.9-1.1-3.3-2.5-4.2-4.2c-0.9-1.7-1.2-3.5-1-5.5c0.2-1.9,0.7-3.5,1.7-5c0.9-1.4,2.2-2.5,3.9-3.3
		C507.4,282.6,509.4,282.2,511.6,282.2L511.6,282.2z M522.4,282.8l-0.1,1.1h-6.4v-1.1H522.4z"/>
	<path class="st0" d="M528.7,282c0.4,0.1,0.9,0.3,1.7,0.4c0.7,0.1,1.6,0.3,2.5,0.4c0.9,0.1,1.7,0.2,2.5,0.2l-6.6,0.6L528.7,282
		L528.7,282z M563.3,282.9v2.3h-34.6v-2.3H563.3z M534.7,285v0.2c-1.7,0-3,0.5-4,1.5s-1.5,2.3-1.5,4v0.6l-0.5,0V285L534.7,285
		L534.7,285z M542.1,316.9v4h-4.3v-0.5h0.7c0.9,0,1.7-0.3,2.4-1s1-1.5,1-2.4H542.1L542.1,316.9z M550,283.1v37.7h-8.1v-37.7H550z
		 M549.9,316.9h0.2c0,0.9,0.4,1.7,1,2.4c0.7,0.7,1.5,1,2.4,1h0.7v0.5h-4.3L549.9,316.9L549.9,316.9z M563.3,282v1.6l-6.6-0.6
		c0.8,0,1.6,0,2.5-0.2c0.9-0.1,1.7-0.2,2.5-0.4C562.4,282.3,563,282.1,563.3,282L563.3,282z M563.3,285v6.4l-0.5,0v-0.6
		c0-1.7-0.5-3-1.5-4s-2.3-1.5-4-1.5v-0.2L563.3,285L563.3,285z"/>
	<path class="st0" d="M570.6,286.9h-0.2c0-0.9-0.4-1.7-1-2.4c-0.7-0.7-1.5-1-2.4-1h-0.7V283h4.3L570.6,286.9L570.6,286.9z
		 M570.6,316.9v4h-4.3v-0.5h0.7c0.9,0,1.7-0.3,2.4-1s1-1.5,1-2.4H570.6L570.6,316.9z M578.5,283v37.9h-8.1V283H578.5z M593.5,283
		v2.3h-15.1V283H593.5z M590.8,301.1v2.3h-12.4v-2.3H590.8z M592.8,318.5l1.3,2.3h-15.7v-2.3H592.8z M596.8,309.8l-2.5,11.1h-10.6
		l2-2.3c1.8,0,3.4-0.4,4.8-1c1.4-0.7,2.5-1.7,3.5-3c1-1.3,1.8-2.9,2.3-4.7L596.8,309.8L596.8,309.8z M590.8,296v5.2h-5.1v-0.1
		c1.3,0,2.4-0.5,3.3-1.4s1.3-2,1.3-3.3V296L590.8,296L590.8,296z M590.8,303.2v5.2h-0.5V308c0-1.3-0.4-2.4-1.3-3.3s-2-1.3-3.3-1.4
		v-0.1L590.8,303.2L590.8,303.2z M593.5,282v1.6l-6.6-0.6c0.8,0,1.6,0,2.5-0.2c0.9-0.1,1.7-0.2,2.5-0.4
		C592.6,282.3,593.2,282.2,593.5,282L593.5,282z M593.5,285.1v6.3h-0.5v-0.6c0-1.7-0.5-3-1.5-4s-2.3-1.5-4-1.6v-0.1H593.5z"/>
	<path class="st0" d="M604.7,286.9h-0.2c0-0.9-0.4-1.7-1-2.4c-0.7-0.7-1.5-1-2.4-1h-0.7V283h4.3L604.7,286.9L604.7,286.9z
		 M604.7,316.9v4h-4.3v-0.5h0.7c0.9,0,1.7-0.3,2.4-1s1-1.5,1-2.4H604.7L604.7,316.9z M612.7,283v37.9h-8.1V283H612.7z M619,283
		c1.6,0,3.2,0.2,4.8,0.5c1.5,0.4,2.9,0.9,4.1,1.7s2.2,1.8,2.9,3.1c0.7,1.3,1.1,2.9,1.1,4.8c0,1.5-0.3,3-1,4.5s-1.6,2.8-2.9,3.8
		c-1.3,1.1-3,1.7-5,1.9c1.2,0.4,2.2,1,3.2,2c1,0.9,1.7,1.9,2.3,2.8c0,0.1,0.2,0.4,0.6,1c0.4,0.6,0.8,1.3,1.4,2.1s1.2,1.7,1.8,2.6
		s1.2,1.6,1.7,2.3c0.8,1,1.5,1.8,2.2,2.4c0.7,0.6,1.3,1,2.1,1.3c0.7,0.3,1.5,0.4,2.5,0.5v0.5h-5.3c-2,0-3.7-0.2-5.3-0.5
		c-1.6-0.3-3-0.9-4.2-1.8c-1.2-0.8-2.3-2-3.2-3.4c-0.3-0.4-0.6-1-1-1.6c-0.3-0.7-0.7-1.4-1-2.1s-0.7-1.5-1.1-2.2
		c-0.3-0.7-0.6-1.3-0.9-1.9c-0.2-0.6-0.4-1-0.5-1.4c-0.5-1.1-1-2-1.7-2.6c-0.6-0.6-1.3-0.9-2-1v-0.5h1.7c1,0,1.9-0.2,2.8-0.6
		c0.9-0.4,1.7-1,2.5-2c0.7-0.9,1.2-2.1,1.5-3.7c0.1-0.3,0.1-0.7,0.2-1.1s0.1-0.9,0-1.5c-0.1-2.6-0.8-4.5-2-5.7s-2.7-1.8-4.4-1.9
		c-0.5,0-1,0-1.7,0c-0.6,0-1.1,0-1.6,0h-1c0,0,0-0.2-0.1-0.6s-0.2-1-0.4-1.8L619,283L619,283z M612.5,316.9h0.2c0,0.9,0.3,1.7,1,2.4
		c0.7,0.7,1.5,1,2.4,1h0.7v0.5h-4.3V316.9z"/>
</g>
<g>
	<path class="st0" d="M212.1,343.6H212c0-0.6-0.2-1.1-0.6-1.5c-0.4-0.4-0.9-0.6-1.5-0.6h-0.4v-0.3h2.7V343.6L212.1,343.6z
		 M212.1,362.1v2.4h-2.7v-0.3h0.4c0.6,0,1.1-0.2,1.5-0.6s0.6-0.9,0.6-1.5L212.1,362.1L212.1,362.1z M217,341.2v23.4h-5v-23.4H217z
		 M220.9,341.2c1,0,2,0.1,2.9,0.3s1.8,0.6,2.6,1.1c0.8,0.5,1.3,1.1,1.8,1.9s0.7,1.8,0.7,3c0,0.9-0.2,1.9-0.6,2.8
		c-0.4,0.9-1,1.7-1.8,2.4c-0.8,0.7-1.8,1-3.1,1.2c0.7,0.2,1.4,0.6,2,1.2c0.6,0.6,1.1,1.2,1.4,1.7c0,0,0.1,0.2,0.4,0.6
		c0.2,0.4,0.5,0.8,0.9,1.3c0.4,0.5,0.7,1,1.1,1.6c0.4,0.5,0.7,1,1,1.4c0.5,0.6,0.9,1.1,1.3,1.5s0.8,0.6,1.3,0.8s1,0.3,1.5,0.3v0.3
		H231c-1.2,0-2.3-0.1-3.3-0.3c-1-0.2-1.9-0.6-2.6-1.1c-0.8-0.5-1.4-1.2-2-2.1c-0.2-0.3-0.4-0.6-0.6-1c-0.2-0.4-0.4-0.9-0.6-1.3
		s-0.4-0.9-0.6-1.4c-0.2-0.4-0.4-0.8-0.6-1.2c-0.2-0.4-0.3-0.6-0.3-0.8c-0.3-0.7-0.6-1.2-1-1.6c-0.4-0.4-0.8-0.6-1.2-0.6v-0.3h1
		c0.6,0,1.2-0.1,1.8-0.4c0.6-0.2,1.1-0.6,1.5-1.2c0.4-0.6,0.8-1.3,0.9-2.3c0-0.2,0.1-0.4,0.1-0.7c0-0.3,0-0.6,0-0.9
		c-0.1-1.6-0.5-2.8-1.2-3.5c-0.7-0.8-1.6-1.1-2.7-1.1c-0.3,0-0.6,0-1,0c-0.4,0-0.7,0-1,0h-0.6c0,0,0-0.1-0.1-0.4
		c-0.1-0.2-0.1-0.6-0.2-1.1L220.9,341.2L220.9,341.2z M216.9,362.1h0.1c0,0.6,0.2,1.1,0.6,1.5c0.4,0.4,0.9,0.6,1.5,0.6h0.4v0.3h-2.6
		V362.1L216.9,362.1z"/>
	<path class="st0" d="M236.6,343.6h-0.1c0-0.6-0.2-1.1-0.6-1.5c-0.4-0.4-0.9-0.6-1.5-0.6h-0.4v-0.3h2.7V343.6L236.6,343.6z
		 M236.6,362.1v2.4h-2.7v-0.3h0.4c0.6,0,1.1-0.2,1.5-0.6s0.6-0.9,0.6-1.5L236.6,362.1L236.6,362.1z M241.5,341.2v23.4h-5v-23.4
		H241.5z M250.7,341.2v1.4h-9.3v-1.4H250.7z M249.1,352.3v1.4h-7.7v-1.4H249.1z M250.3,363.1l0.8,1.4h-9.7v-1.4H250.3z M252.8,357.7
		l-1.5,6.9h-6.6l1.2-1.4c1.1,0,2.1-0.2,2.9-0.6c0.9-0.4,1.6-1.1,2.2-1.9c0.6-0.8,1.1-1.8,1.4-2.9H252.8L252.8,357.7z M249.1,349.2
		v3.2h-3.2v-0.1c0.8,0,1.5-0.3,2-0.9c0.5-0.5,0.8-1.2,0.8-2.1v-0.2L249.1,349.2L249.1,349.2z M249.1,353.7v3.2h-0.3v-0.3
		c0-0.8-0.3-1.5-0.8-2s-1.2-0.8-2-0.8v-0.1L249.1,353.7L249.1,353.7z M250.7,340.6v1l-4.1-0.4c0.5,0,1,0,1.6-0.1
		c0.6-0.1,1.1-0.1,1.5-0.2S250.5,340.6,250.7,340.6L250.7,340.6z M250.7,342.5v3.9h-0.3V346c0-1-0.3-1.9-0.9-2.5s-1.4-1-2.5-1v-0.1
		H250.7z"/>
	<path class="st0" d="M258.3,362.1c-0.2,0.5-0.2,0.8-0.1,1.1c0.1,0.3,0.3,0.5,0.6,0.7c0.3,0.2,0.5,0.2,0.8,0.2h0.3v0.3h-7.2v-0.3
		h0.3c0.5,0,1-0.2,1.6-0.5s1-0.9,1.4-1.6L258.3,362.1L258.3,362.1z M265.5,340.5l0.1,4.1l-8.3,19.9h-2.4l8.7-19.6
		c0.1-0.1,0.2-0.4,0.4-0.8s0.4-0.8,0.5-1.2c0.2-0.5,0.4-0.9,0.5-1.4s0.2-0.8,0.2-1L265.5,340.5L265.5,340.5z M269,356.6v1.4h-9.8
		v-1.4H269z M265.5,340.5l10.9,23.9h-6l-7-17.4L265.5,340.5L265.5,340.5z M269.5,362.1h5.9c0.4,0.8,0.8,1.3,1.4,1.6s1.1,0.5,1.6,0.5
		h0.3v0.3h-10.6v-0.3h0.3c0.5,0,0.8-0.2,1.2-0.5C269.7,363.3,269.7,362.8,269.5,362.1L269.5,362.1z"/>
	<path class="st0" d="M281.7,343.6h-0.1c0-0.6-0.2-1.1-0.6-1.5s-0.9-0.6-1.5-0.6H279v-0.3h2.7L281.7,343.6L281.7,343.6z
		 M281.7,362.1v2.4H279v-0.3h0.4c0.6,0,1.1-0.2,1.5-0.6s0.6-0.9,0.6-1.5L281.7,362.1L281.7,362.1z M286.6,341.2v23.4h-5v-23.4H286.6
		z M286.5,343.6v-2.4h2.7v0.3h-0.4c-0.6,0-1.1,0.2-1.5,0.6s-0.6,0.9-0.6,1.5L286.5,343.6L286.5,343.6z M295.4,363.1l0.8,1.4h-9.7
		v-1.4H295.4L295.4,363.1z M297.9,357.7l-1.5,6.9h-6.5l1.2-1.4c1.1,0,2.1-0.2,2.9-0.6c0.9-0.4,1.6-1.1,2.2-1.9s1.1-1.8,1.4-2.9
		H297.9L297.9,357.7z"/>
	<path class="st0" d="M310.7,343.6h-0.1c0-0.6-0.2-1.1-0.6-1.5s-0.9-0.6-1.5-0.6H308v-0.3h2.7L310.7,343.6L310.7,343.6z
		 M310.7,362.1v2.4H308v-0.3h0.4c0.6,0,1.1-0.2,1.5-0.6s0.6-0.9,0.6-1.5L310.7,362.1L310.7,362.1z M315.6,341.2v23.4h-5v-23.4H315.6
		z M324.8,341.2v1.4h-9.3v-1.4H324.8z M323.2,352.3v1.4h-7.7v-1.4H323.2z M324.4,363.1l0.8,1.4h-9.7v-1.4H324.4L324.4,363.1z
		 M326.8,357.7l-1.5,6.9h-6.5l1.2-1.4c1.1,0,2.1-0.2,2.9-0.6c0.9-0.4,1.6-1.1,2.2-1.9s1.1-1.8,1.4-2.9H326.8L326.8,357.7z
		 M323.2,349.2v3.2H320v-0.1c0.8,0,1.5-0.3,2-0.9c0.5-0.5,0.8-1.2,0.8-2.1v-0.2L323.2,349.2L323.2,349.2z M323.2,353.7v3.2h-0.3
		v-0.3c0-0.8-0.3-1.5-0.8-2s-1.2-0.8-2-0.8v-0.1L323.2,353.7L323.2,353.7z M324.8,340.6v1l-4.1-0.4c0.5,0,1,0,1.5-0.1
		c0.5-0.1,1-0.1,1.5-0.2S324.6,340.6,324.8,340.6L324.8,340.6z M324.8,342.5v3.9h-0.3V346c0-1-0.3-1.9-0.9-2.5c-0.6-0.6-1.4-1-2.5-1
		v-0.1H324.8z"/>
	<path class="st0" d="M337,340.7c0.5,0,1,0,1.6,0.1c0.7,0,1.3,0.1,2,0.2c0.7,0.1,1.3,0.2,1.8,0.2c0.5,0.1,0.9,0.2,1.1,0.2l-0.4,4.5
		h-0.3c0-1.2-0.4-2.1-1.3-2.8c-0.9-0.7-2-1-3.4-1c-1.3,0-2.3,0.3-3.1,0.9c-0.8,0.6-1.2,1.4-1.2,2.3c0,0.7,0.2,1.2,0.6,1.7
		s1,1,1.7,1.4l6.4,4.1c1,0.6,1.8,1.3,2.3,2.3c0.5,0.9,0.8,2,0.7,3.3c-0.1,2.2-1,3.9-2.5,5.1s-3.7,1.8-6.4,1.8c-1,0-1.9-0.1-2.9-0.2
		s-1.7-0.4-2.5-0.7c-0.7-0.3-1.3-0.7-1.7-1.1c-0.2-0.5-0.3-1.1-0.2-1.8c0-0.7,0.1-1.4,0.3-2.1c0.2-0.7,0.4-1.3,0.7-1.8h0.3
		c-0.1,1.1,0.1,2.2,0.6,3.2s1.2,1.7,2.2,2.3s2.1,0.8,3.5,0.8c1.5,0,2.6-0.4,3.4-1.1c0.8-0.7,1.2-1.6,1.2-2.6c0-0.7-0.2-1.3-0.6-1.9
		s-1.1-1.1-2-1.6l-5.9-3.9c-1.2-0.7-2-1.5-2.6-2.6c-0.5-1-0.8-2.2-0.6-3.4c0.1-1.2,0.5-2.2,1-3.1c0.6-0.9,1.4-1.6,2.4-2.1
		S335.6,340.7,337,340.7L337,340.7z M343.6,341l-0.1,0.7h-4V341H343.6L343.6,341z"/>
	<path class="st0" d="M347.5,340.5c0.2,0.1,0.6,0.2,1,0.3s1,0.2,1.5,0.2c0.6,0.1,1.1,0.1,1.5,0.1l-4.1,0.4V340.5z M368.9,341.1v1.4
		h-21.4v-1.4H368.9z M351.2,342.4v0.1c-1,0-1.8,0.3-2.5,1c-0.6,0.6-0.9,1.4-0.9,2.5v0.4l-0.3,0v-4L351.2,342.4L351.2,342.4z
		 M355.8,362.1v2.4h-2.7v-0.3h0.4c0.6,0,1.1-0.2,1.5-0.6s0.6-0.9,0.6-1.5L355.8,362.1L355.8,362.1z M360.7,341.3v23.3h-5v-23.3
		H360.7z M360.6,362.1h0.1c0,0.6,0.2,1.1,0.6,1.5s0.9,0.6,1.5,0.6h0.4v0.3h-2.7L360.6,362.1L360.6,362.1z M368.9,340.5v1l-4.1-0.4
		c0.5,0,1,0,1.5-0.1c0.5-0.1,1-0.1,1.5-0.2S368.7,340.6,368.9,340.5L368.9,340.5z M368.9,342.4v4l-0.3,0V346c0-1-0.3-1.9-0.9-2.5
		c-0.6-0.6-1.4-0.9-2.5-1v-0.1L368.9,342.4L368.9,342.4z"/>
	<path class="st0" d="M378.6,340.7c0.5,0,1,0,1.6,0.1c0.7,0,1.3,0.1,2,0.2c0.7,0.1,1.3,0.2,1.8,0.2c0.5,0.1,0.9,0.2,1.1,0.2
		l-0.4,4.5h-0.3c0-1.2-0.4-2.1-1.3-2.8c-0.9-0.7-2-1-3.4-1c-1.3,0-2.3,0.3-3.1,0.9c-0.8,0.6-1.2,1.4-1.2,2.3c0,0.7,0.2,1.2,0.6,1.7
		s1,1,1.7,1.4l6.4,4.1c1,0.6,1.8,1.3,2.3,2.3c0.5,0.9,0.8,2,0.7,3.3c-0.1,2.2-1,3.9-2.5,5.1s-3.7,1.8-6.4,1.8c-1,0-1.9-0.1-2.9-0.2
		s-1.7-0.4-2.5-0.7c-0.7-0.3-1.3-0.7-1.7-1.1c-0.2-0.5-0.3-1.1-0.2-1.8c0-0.7,0.1-1.4,0.3-2.1c0.2-0.7,0.4-1.3,0.7-1.8h0.3
		c-0.1,1.1,0.1,2.2,0.6,3.2s1.2,1.7,2.2,2.3s2.1,0.8,3.5,0.8c1.5,0,2.6-0.4,3.4-1.1c0.8-0.7,1.2-1.6,1.2-2.6c0-0.7-0.2-1.3-0.6-1.9
		s-1.1-1.1-2-1.6l-5.9-3.9c-1.2-0.7-2-1.5-2.6-2.6c-0.5-1-0.8-2.2-0.6-3.4c0.1-1.2,0.5-2.2,1-3.1c0.6-0.9,1.4-1.6,2.4-2.1
		S377.2,340.7,378.6,340.7L378.6,340.7z M385.2,341l-0.1,0.7h-4V341H385.2L385.2,341z"/>
	<path class="st0" d="M389.1,340.5c0.2,0.1,0.6,0.2,1,0.3s1,0.2,1.5,0.2c0.6,0.1,1.1,0.1,1.5,0.1l-4.1,0.4V340.5z M410.5,341.1v1.4
		h-21.4v-1.4H410.5z M392.8,342.4v0.1c-1,0-1.8,0.3-2.5,1c-0.6,0.6-0.9,1.4-0.9,2.5v0.4l-0.3,0v-4L392.8,342.4L392.8,342.4z
		 M397.4,362.1v2.4h-2.7v-0.3h0.4c0.6,0,1.1-0.2,1.5-0.6s0.6-0.9,0.6-1.5L397.4,362.1L397.4,362.1z M402.3,341.3v23.3h-5v-23.3
		H402.3z M402.2,362.1h0.1c0,0.6,0.2,1.1,0.6,1.5s0.9,0.6,1.5,0.6h0.4v0.3h-2.7L402.2,362.1L402.2,362.1z M410.5,340.5v1l-4.1-0.4
		c0.5,0,1,0,1.5-0.1c0.5-0.1,1-0.1,1.5-0.2S410.3,340.6,410.5,340.5L410.5,340.5z M410.5,342.4v4l-0.3,0V346c0-1-0.3-1.9-0.9-2.5
		c-0.6-0.6-1.4-0.9-2.5-1v-0.1L410.5,342.4L410.5,342.4z"/>
	<path class="st0" d="M415,343.6h-0.1c0-0.6-0.2-1.1-0.6-1.5s-0.9-0.6-1.5-0.6h-0.4v-0.3h2.7L415,343.6L415,343.6z M415,362.1v2.4
		h-2.7v-0.3h0.4c0.6,0,1.1-0.2,1.5-0.6s0.6-0.9,0.6-1.5L415,362.1L415,362.1z M420,341.2v23.4h-5v-23.4H420z M429.2,341.2v1.4h-9.3
		v-1.4H429.2z M427.5,352.3v1.4h-7.7v-1.4H427.5z M428.8,363.1l0.8,1.4h-9.7v-1.4H428.8L428.8,363.1z M431.2,357.7l-1.5,6.9h-6.5
		l1.2-1.4c1.1,0,2.1-0.2,2.9-0.6c0.9-0.4,1.6-1.1,2.2-1.9s1.1-1.8,1.4-2.9H431.2L431.2,357.7z M427.5,349.2v3.2h-3.2v-0.1
		c0.8,0,1.5-0.3,2-0.9c0.5-0.5,0.8-1.2,0.8-2.1v-0.2L427.5,349.2L427.5,349.2z M427.5,353.7v3.2h-0.3v-0.3c0-0.8-0.3-1.5-0.8-2
		s-1.2-0.8-2-0.8v-0.1L427.5,353.7L427.5,353.7z M429.2,340.6v1l-4.1-0.4c0.5,0,1,0,1.5-0.1c0.5-0.1,1-0.1,1.5-0.2
		S429,340.6,429.2,340.6L429.2,340.6z M429.2,342.5v3.9h-0.3V346c0-1-0.3-1.9-0.9-2.5c-0.6-0.6-1.4-1-2.5-1v-0.1H429.2z"/>
</g>
</svg>
