<?xml version="1.0" encoding="UTF-8"?>
<svg id="Layer_1" data-name="Layer 1" xmlns="http://www.w3.org/2000/svg" viewBox="0 0 665.78 419.09">
  <defs>
    <style>
      .cls-1 {
        fill: #fff;
      }
    </style>
  </defs>
  <g>
    <path class="cls-1" d="M0,318.94v-2.51c4.98.25,8.22.37,9.74.37,2.03,0,5.03-.12,9.02-.37v2.51c-2.21.68-3.46,1.17-3.77,1.49-.31.32-.47.72-.47,1.22s.13,1.16.4,2.07l7.32,25.92,4.96-17.35,2.64-9.79c.07-.32.11-.61.11-.88,0-.52-.23-.94-.69-1.25-.11-.07-1.3-.54-3.59-1.42v-2.51c2.88.25,5.12.37,6.74.37,1.47,0,3.62-.12,6.44-.37v2.51c-1.78.52-2.96,1.05-3.54,1.59-.34.29-.64.76-.91,1.41-.27.64-1.98,6.01-5.14,16.11-2.22,7.14-4.98,16.3-8.27,27.48h-2.41l-8.25-27.27c-3.13-9.94-4.91-15.37-5.34-16.29-.23-.52-.52-.94-.88-1.25-.5-.45-1.87-1.04-4.11-1.76Z"/>
    <path class="cls-1" d="M39.51,318.94v-2.51c4.29.25,8.95.37,13.99.37,5.84,0,11.85-.12,18.05-.37.05,4.73.28,8.84.67,12.33h-2.27c-.21-.72-.36-1.27-.45-1.65-.87-3.22-1.56-5.08-2.06-5.6-.5-.52-1.62-.78-3.37-.78h-10.21c-.14,3.81-.23,9.34-.27,16.6l4.65.07c2.42,0,3.92-.3,4.48-.9.56-.6,1.15-2.61,1.78-6.05h2.21c-.2,3.32-.29,6.25-.29,8.77s.1,5.43.29,9.04h-2.21c-.5-3.64-.98-5.73-1.44-6.27-.46-.54-1.86-.81-4.2-.81h-5.24v18.94h10.62c1.17,0,1.96-.09,2.35-.27.62-.3,1.19-.82,1.71-1.57,1.08-1.52,2.36-3.94,3.81-7.24h2.35c-1.03,3.72-2.14,8.21-3.33,13.45-6.06-.25-12.4-.37-19.02-.37-3,0-7.2.12-12.59.37v-2.51c2.95-.68,4.64-1.22,5.07-1.63.59-.52.88-1.83.88-3.93v-1.15l.05-13.42v-10.84l-.03-5.01c0-2.42-.1-3.92-.29-4.51-.2-.59-.57-1.05-1.13-1.39-.56-.34-2.08-.73-4.55-1.19Z"/>
    <path class="cls-1" d="M112.63,355.19l1.36,3.25c-3.08,2.57-5.92,4.4-8.52,5.47-2.61,1.07-5.33,1.61-8.18,1.61-6.01,0-10.74-2.17-14.18-6.52-3.44-4.35-5.16-10.2-5.16-17.57,0-7.81,1.94-14.1,5.82-18.87,3.88-4.76,9.24-7.15,16.08-7.15,2.19,0,4.3.22,6.34.66s4.56,1.26,7.56,2.46c-.11,1.47-.16,2.99-.16,4.57,0,2.73.13,6.08.4,10.03h-2.93c-.89-4.34-1.48-6.88-1.76-7.62-.66-1.69-1.74-3.13-3.24-4.3s-3.53-1.76-6.09-1.76c-3.9,0-6.9,1.51-9.02,4.54-2.56,3.64-3.84,8.66-3.84,15.08s1.28,11.69,3.83,15.16,5.99,5.2,10.31,5.2c3.84,0,7.64-1.41,11.39-4.24Z"/>
    <path class="cls-1" d="M152.88,330.7h-2.48c-1.23-4.76-1.98-7.46-2.25-8.1-.28-.63-.66-1.08-1.16-1.34s-2.08-.39-4.75-.39h-2.59v31.64c0,3.93.11,6.3.32,7.11.11.43.37.77.79,1.03.42.26,2.03.71,4.84,1.34v2.51c-5.42-.25-8.91-.37-10.46-.37-2.1,0-5.31.12-9.63.37v-2.51c2.84-.63,4.53-1.13,5.07-1.49.36-.25.6-.66.73-1.24.13-.58.2-2.94.2-7.1v-31.3h-4.48c-1.51,0-2.51.16-3,.47-.49.32-.89.89-1.21,1.73-.48,1.26-1.16,3.81-2.03,7.62h-2.43c.3-3.32.49-5.61.56-6.88s.15-3.73.24-7.39c7.04.25,13.92.35,20.65.3,5.69-.07,9.78-.17,12.27-.3.02,4.36.28,9.11.8,14.26Z"/>
    <path class="cls-1" d="M155.2,341.23c0-7.75,1.87-13.99,5.62-18.72,3.74-4.73,8.76-7.1,15.06-7.1,5.94,0,10.6,2.13,13.99,6.39,3.39,4.26,5.08,9.96,5.08,17.09,0,4.54-.67,8.67-2,12.4-1.05,2.96-2.41,5.45-4.07,7.49-1.66,2.03-3.37,3.55-5.11,4.54-2.6,1.47-5.73,2.2-9.39,2.2-6.08,0-10.8-2.13-14.15-6.4-3.35-4.27-5.03-10.23-5.03-17.89ZM164.43,339.41c0,8.22,1.17,14.26,3.52,18.12,1.74,2.89,4.24,4.34,7.5,4.34,2.24,0,4.13-.73,5.67-2.2,1.54-1.47,2.69-3.82,3.45-7.06s1.15-7.01,1.15-11.3c0-3.27-.23-6.41-.69-9.42-.46-3-1.09-5.35-1.89-7.05-.8-1.69-1.87-3.06-3.21-4.1-1.34-1.04-2.96-1.56-4.87-1.56-2.12,0-4,.75-5.66,2.25-1.65,1.5-2.89,3.86-3.72,7.08-.83,3.22-1.24,6.85-1.24,10.89Z"/>
    <path class="cls-1" d="M197.59,318.94v-2.51c6.02.25,9.57.37,10.65.37,1.16,0,2.83-.04,5.02-.12,2.19-.08,3.8-.12,4.83-.12,2.65,0,4.72.43,6.19,1.29,1.48.86,2.67,2.23,3.56,4.1.9,1.88,1.35,3.96,1.35,6.27,0,1.96-.32,3.86-.96,5.67-.64,1.82-1.49,3.36-2.56,4.62-.69.84-1.81,1.74-3.33,2.71,1.21,2.64,2.98,6.38,5.31,11.21,1.71,3.55,2.82,5.67,3.34,6.37.52.7,1.09,1.24,1.69,1.63.92.54,2.61,1.06,5.05,1.56v2.51c-3.02-.25-5.48-.37-7.38-.37-2.01,0-4.48.12-7.41.37-2.17-6.35-4.95-13.61-8.34-21.78-1.02-.04-2.09-.14-3.2-.27l.11,14.09c.04,1.74.15,2.82.35,3.24.2.42.47.72.83.9.25.16,1.84.6,4.77,1.32v2.51c-4.15-.25-7.48-.37-9.99-.37s-5.77.12-9.88.37v-2.51c3.01-.7,4.7-1.24,5.08-1.63.38-.38.62-1.14.73-2.27.05-.61.09-6.4.11-17.38l-.02-10.1c0-4.74-.06-7.6-.19-8.57-.11-.7-.35-1.22-.73-1.58-.38-.35-1.64-.76-3.77-1.24l-1.2-.31ZM211.43,338.63c.89.05,1.55.07,1.98.07,2.5,0,4.34-.75,5.52-2.25,1.19-1.5,1.78-3.79,1.78-6.86,0-2.89-.56-5.1-1.69-6.62s-2.65-2.29-4.57-2.29c-.79,0-1.8.08-3.05.24l.03,17.72Z"/>
    <path class="cls-1" d="M257.74,316.44v2.51l-.99.17c-2.37.36-3.78.81-4.25,1.36-.47.54-.71,1.59-.71,3.15v1.22l-.05,11.35.03,12.98.03,6.61c0,1.94.08,3.16.23,3.66s.41.87.79,1.12c.64.43,1.96.85,3.95,1.25.21.05.54.11.99.2v2.51c-3.65-.25-6.86-.37-9.63-.37s-6.12.12-10.46.37v-2.51c2.76-.65,4.27-1.05,4.54-1.19.41-.2.72-.5.93-.88.26-.52.41-1.58.42-3.18.04-3.75.05-10.13.05-19.14l-.08-12.33v-1.02c0-1.81-.2-2.97-.61-3.49s-1.79-1.03-4.13-1.52c-.27-.07-.65-.17-1.15-.31v-2.51c4.58.25,8,.37,10.28.37,2.44,0,5.72-.12,9.83-.37Z"/>
    <path class="cls-1" d="M281.91,364.51v-2.51c2.15-.5,3.4-.91,3.73-1.22.34-.32.51-.75.51-1.29,0-.32-.05-.68-.16-1.09-.28-.95-1.21-3.8-2.77-8.56-2.5-.07-4.59-.1-6.26-.1-1.37,0-3.65.03-6.84.1-2,5.93-2.99,9.18-2.99,9.75s.14.95.43,1.21c.28.26,1.55.66,3.79,1.21v2.51c-2.24-.25-4.38-.37-6.43-.37-2.21,0-4.45.12-6.72.37v-2.51c1.6-.43,2.7-.92,3.31-1.46.41-.36.78-.91,1.12-1.63.7-1.42,2.77-6.93,6.23-16.53,2.19-6.08,5.32-15.06,9.38-26.96h2.13c1.65,5.31,5.08,15.21,10.27,29.71,2.88,8.06,4.61,12.65,5.18,13.75.39.77.78,1.31,1.17,1.63.39.32,1.63.82,3.71,1.49v2.51c-3.15-.25-6.07-.37-8.78-.37s-6,.12-10,.37ZM276.81,330.03l-5.45,15.95,5.28.03c1.26,0,3.08-.01,5.44-.03l-5.27-15.95Z"/>
    <path class="cls-1" d="M315.07,318.94v-2.51c4.55.25,8.09.37,10.63.37s6.05-.12,10.36-.37v2.51c-3.66.7-5.66,1.15-5.98,1.36-.53.38-.8,1.37-.8,2.95l-.11,8.71v28.19h9.73c1.6,0,2.67-.13,3.21-.41.73-.38,1.44-1.07,2.11-2.07s1.87-3.3,3.58-6.91h2.41c-1.19,4.18-2.36,8.76-3.49,13.75-7.56-.25-13.84-.37-18.86-.37-4.11,0-8.38.12-12.8.37v-2.51c3.15-.79,4.89-1.33,5.21-1.63.32-.29.52-.84.6-1.64.08-.8.12-6.22.12-16.25l-.03-12.33v-2.17c0-3.61-.1-5.78-.29-6.5-.14-.54-.38-.92-.73-1.13-.34-.21-1.97-.68-4.87-1.41Z"/>
    <path class="cls-1" d="M374.93,364.51v-2.51c2.15-.5,3.4-.91,3.73-1.22.34-.32.51-.75.51-1.29,0-.32-.05-.68-.16-1.09-.28-.95-1.21-3.8-2.77-8.56-2.5-.07-4.59-.1-6.26-.1-1.37,0-3.65.03-6.84.1-2,5.93-2.99,9.18-2.99,9.75s.14.95.43,1.21c.28.26,1.55.66,3.79,1.21v2.51c-2.24-.25-4.38-.37-6.43-.37-2.21,0-4.45.12-6.72.37v-2.51c1.6-.43,2.7-.92,3.31-1.46.41-.36.78-.91,1.12-1.63.7-1.42,2.77-6.93,6.23-16.53,2.19-6.08,5.32-15.06,9.38-26.96h2.13c1.65,5.31,5.08,15.21,10.27,29.71,2.88,8.06,4.61,12.65,5.18,13.75.39.77.78,1.31,1.17,1.63.39.32,1.63.82,3.71,1.49v2.51c-3.15-.25-6.07-.37-8.78-.37s-6,.12-10,.37ZM369.83,330.03l-5.45,15.95,5.28.03c1.26,0,3.08-.01,5.44-.03l-5.27-15.95Z"/>
    <path class="cls-1" d="M393.95,318.94v-2.51c2.44.25,4.71.37,6.82.37s4.61-.12,7.48-.37c2.17,3.71,8.68,13.95,19.55,30.73l-.11-18.43c-.09-4.49-.23-7-.41-7.5-.19-.51-.49-.9-.92-1.19s-1.93-.65-4.51-1.1v-2.51c2.86.25,5.36.37,7.5.37s4.69-.12,7.9-.37v2.51c-.55.14-.96.23-1.23.27-2.1.41-3.35.85-3.76,1.34-.41.49-.65,1.49-.72,3-.18,3.16-.27,9.67-.27,19.51,0,6.32.1,13.55.29,21.68-.84.32-1.66.69-2.48,1.12l-10.11-16.22-15.42-23.85.11,16.12.21,15.68c.05,1.18.14,1.92.27,2.22.12.31.3.55.53.73.39.29,1.65.69,3.79,1.19.25.05.62.14,1.12.27v2.51c-3.06-.25-5.52-.37-7.38-.37-1.59,0-4.28.12-8.07.37v-2.51c.55-.13.97-.24,1.25-.3,2.04-.41,3.26-.8,3.65-1.19.25-.25.43-.6.53-1.07.11-.46.22-3.82.35-10.08.2-9.06.29-16.83.29-23.31,0-2.17-.09-3.56-.28-4.17-.19-.61-.52-1.08-1-1.42-.48-.34-1.7-.73-3.65-1.19-.3-.07-.75-.18-1.33-.34Z"/>
    <path class="cls-1" d="M474.7,355.19l1.36,3.25c-3.08,2.57-5.92,4.4-8.52,5.47-2.61,1.07-5.33,1.61-8.18,1.61-6.01,0-10.74-2.17-14.18-6.52-3.44-4.35-5.16-10.2-5.16-17.57,0-7.81,1.94-14.1,5.82-18.87,3.88-4.76,9.24-7.15,16.08-7.15,2.19,0,4.3.22,6.34.66s4.56,1.26,7.56,2.46c-.11,1.47-.16,2.99-.16,4.57,0,2.73.13,6.08.4,10.03h-2.93c-.89-4.34-1.48-6.88-1.76-7.62-.66-1.69-1.74-3.13-3.24-4.3s-3.53-1.76-6.09-1.76c-3.9,0-6.9,1.51-9.02,4.54-2.56,3.64-3.84,8.66-3.84,15.08s1.28,11.69,3.83,15.16,5.99,5.2,10.31,5.2c3.84,0,7.64-1.41,11.39-4.24Z"/>
    <path class="cls-1" d="M502.9,364.51v-2.51c2.15-.5,3.4-.91,3.73-1.22.34-.32.51-.75.51-1.29,0-.32-.05-.68-.16-1.09-.28-.95-1.21-3.8-2.77-8.56-2.5-.07-4.59-.1-6.26-.1-1.37,0-3.65.03-6.84.1-2,5.93-2.99,9.18-2.99,9.75s.14.95.43,1.21c.28.26,1.55.66,3.79,1.21v2.51c-2.24-.25-4.38-.37-6.43-.37-2.21,0-4.45.12-6.72.37v-2.51c1.6-.43,2.7-.92,3.31-1.46.41-.36.78-.91,1.12-1.63.7-1.42,2.77-6.93,6.23-16.53,2.19-6.08,5.32-15.06,9.38-26.96h2.13c1.65,5.31,5.08,15.21,10.27,29.71,2.88,8.06,4.61,12.65,5.18,13.75.39.77.78,1.31,1.17,1.63.39.32,1.63.82,3.71,1.49v2.51c-3.15-.25-6.07-.37-8.78-.37s-6,.12-10,.37ZM497.8,330.03l-5.45,15.95,5.28.03c1.26,0,3.08-.01,5.44-.03l-5.27-15.95Z"/>
    <path class="cls-1" d="M548.43,330.19h-2.67c-.59-4.32-1.48-7.22-2.67-8.7-1.19-1.48-2.81-2.21-4.86-2.21-1.83,0-3.26.6-4.28,1.81-1.02,1.21-1.53,2.75-1.53,4.62,0,1.67.47,3.18,1.41,4.54.94,1.38,3.18,3.08,6.72,5.11s6.01,4.18,7.42,6.43c1.4,2.28,2.11,5.1,2.11,8.46,0,4.06-1.21,7.62-3.62,10.68-2.41,3.06-6.3,4.59-11.67,4.59-1.92,0-3.74-.18-5.44-.54-1.3-.25-2.91-.77-4.83-1.56.3-3.97.45-7.89.45-11.76v-2.27h2.61c.68,4.5,1.51,7.5,2.51,9.01,1.33,2.06,3.18,3.08,5.55,3.08,1.88,0,3.4-.71,4.54-2.13,1.14-1.42,1.71-3.24,1.71-5.45,0-1.4-.24-2.64-.71-3.73-.47-1.08-1.17-2.07-2.11-2.95s-2.63-2.04-5.08-3.49c-3.77-2.26-6.29-4.44-7.58-6.54-1.28-2.08-1.92-4.53-1.92-7.35,0-4.16,1.21-7.6,3.63-10.33,2.42-2.73,5.9-4.1,10.46-4.1,3.02,0,6.3.73,9.84,2.2-.11,3.55-.16,6.01-.16,7.39,0,1.6.05,3.33.16,5.18Z"/>
    <path class="cls-1" d="M587.75,330.7h-2.48c-1.23-4.76-1.98-7.46-2.25-8.1-.28-.63-.66-1.08-1.16-1.34s-2.08-.39-4.75-.39h-2.59v31.64c0,3.93.11,6.3.32,7.11.11.43.37.77.79,1.03.42.26,2.03.71,4.84,1.34v2.51c-5.42-.25-8.91-.37-10.46-.37-2.1,0-5.31.12-9.63.37v-2.51c2.84-.63,4.53-1.13,5.07-1.49.36-.25.6-.66.73-1.24.13-.58.2-2.94.2-7.1v-31.3h-4.48c-1.51,0-2.51.16-3,.47-.49.32-.89.89-1.21,1.73-.48,1.26-1.16,3.81-2.03,7.62h-2.43c.3-3.32.49-5.61.56-6.88s.15-3.73.24-7.39c7.04.25,13.92.35,20.65.3,5.69-.07,9.78-.17,12.27-.3.02,4.36.28,9.11.8,14.26Z"/>
    <path class="cls-1" d="M589.3,318.94v-2.51c4.29.25,8.95.37,13.99.37,5.84,0,11.85-.12,18.05-.37.05,4.73.28,8.84.67,12.33h-2.27c-.21-.72-.36-1.27-.45-1.65-.87-3.22-1.56-5.08-2.06-5.6-.5-.52-1.62-.78-3.37-.78h-10.21c-.14,3.81-.23,9.34-.27,16.6l4.65.07c2.42,0,3.92-.3,4.48-.9.56-.6,1.15-2.61,1.78-6.05h2.21c-.2,3.32-.29,6.25-.29,8.77s.1,5.43.29,9.04h-2.21c-.5-3.64-.98-5.73-1.44-6.27-.46-.54-1.86-.81-4.2-.81h-5.24v18.94h10.62c1.17,0,1.96-.09,2.35-.27.62-.3,1.19-.82,1.71-1.57,1.08-1.52,2.36-3.94,3.81-7.24h2.35c-1.03,3.72-2.14,8.21-3.33,13.45-6.06-.25-12.4-.37-19.02-.37-3,0-7.2.12-12.59.37v-2.51c2.95-.68,4.64-1.22,5.07-1.63.59-.52.88-1.83.88-3.93v-1.15l.05-13.42v-10.84l-.03-5.01c0-2.42-.1-3.92-.29-4.51-.2-.59-.57-1.05-1.13-1.39-.56-.34-2.08-.73-4.55-1.19Z"/>
    <path class="cls-1" d="M625.63,318.94v-2.51c6.02.25,9.57.37,10.65.37,1.16,0,2.83-.04,5.02-.12,2.19-.08,3.8-.12,4.83-.12,2.65,0,4.72.43,6.19,1.29,1.48.86,2.67,2.23,3.56,4.1.9,1.88,1.35,3.96,1.35,6.27,0,1.96-.32,3.86-.96,5.67-.64,1.82-1.49,3.36-2.56,4.62-.69.84-1.81,1.74-3.33,2.71,1.21,2.64,2.98,6.38,5.31,11.21,1.71,3.55,2.82,5.67,3.34,6.37.52.7,1.09,1.24,1.69,1.63.92.54,2.61,1.06,5.05,1.56v2.51c-3.02-.25-5.48-.37-7.38-.37-2.01,0-4.48.12-7.41.37-2.17-6.35-4.95-13.61-8.34-21.78-1.02-.04-2.09-.14-3.2-.27l.11,14.09c.04,1.74.15,2.82.35,3.24.2.42.47.72.83.9.25.16,1.84.6,4.77,1.32v2.51c-4.15-.25-7.48-.37-9.99-.37s-5.77.12-9.88.37v-2.51c3.01-.7,4.7-1.24,5.08-1.63.38-.38.62-1.14.73-2.27.05-.61.09-6.4.11-17.38l-.02-10.1c0-4.74-.06-7.6-.19-8.57-.11-.7-.35-1.22-.73-1.58-.38-.35-1.64-.76-3.77-1.24l-1.2-.31ZM639.48,338.63c.89.05,1.55.07,1.98.07,2.5,0,4.34-.75,5.52-2.25,1.19-1.5,1.78-3.79,1.78-6.86,0-2.89-.56-5.1-1.69-6.62s-2.65-2.29-4.57-2.29c-.79,0-1.8.08-3.05.24l.03,17.72Z"/>
  </g>
  <g>
    <path class="cls-1" d="M216.71,390.82v-1.52c3.65.15,5.81.23,6.47.23.7,0,1.72-.02,3.05-.07,1.33-.05,2.31-.07,2.93-.07,1.61,0,2.86.26,3.76.78.9.52,1.62,1.35,2.16,2.49.54,1.14.82,2.41.82,3.8,0,1.19-.19,2.34-.58,3.44-.39,1.1-.91,2.04-1.55,2.81-.42.51-1.1,1.06-2.02,1.64.73,1.6,1.81,3.87,3.22,6.81,1.04,2.15,1.71,3.44,2.03,3.87s.66.75,1.03.99c.56.33,1.58.64,3.07.95v1.52c-1.83-.15-3.33-.23-4.48-.23-1.22,0-2.72.08-4.5.23-1.32-3.85-3-8.26-5.06-13.22-.62-.03-1.27-.08-1.94-.17l.06,8.55c.02,1.06.09,1.71.21,1.96.12.25.29.44.5.54.15.1,1.12.36,2.9.8v1.52c-2.52-.15-4.54-.23-6.06-.23s-3.5.08-6,.23v-1.52c1.83-.42,2.86-.75,3.09-.99.23-.23.38-.69.44-1.38.03-.37.05-3.89.07-10.55v-6.13c-.01-2.88-.05-4.61-.13-5.2-.06-.42-.21-.74-.45-.96-.23-.21-1-.46-2.29-.75l-.73-.19ZM225.11,402.76c.54.03.94.04,1.2.04,1.52,0,2.63-.46,3.35-1.37.72-.91,1.08-2.3,1.08-4.16,0-1.75-.34-3.09-1.02-4.02-.68-.92-1.61-1.39-2.78-1.39-.48,0-1.09.05-1.85.14l.02,10.75Z"/>
    <path class="cls-1" d="M240.95,390.82v-1.52c2.6.15,5.43.23,8.49.23,3.54,0,7.19-.08,10.95-.23.03,2.87.17,5.37.41,7.49h-1.38c-.13-.44-.22-.77-.28-1-.53-1.95-.95-3.08-1.25-3.4-.3-.31-.98-.47-2.04-.47h-6.19c-.09,2.31-.14,5.67-.16,10.08l2.82.04c1.47,0,2.38-.18,2.72-.54s.7-1.59,1.08-3.67h1.34c-.12,2.02-.18,3.79-.18,5.33s.06,3.3.18,5.49h-1.34c-.3-2.21-.59-3.48-.88-3.81s-1.13-.49-2.55-.49h-3.18v11.49h6.44c.71,0,1.19-.05,1.42-.17.38-.18.72-.5,1.04-.95.66-.93,1.43-2.39,2.31-4.39h1.42c-.63,2.26-1.3,4.98-2.02,8.16-3.68-.15-7.53-.23-11.54-.23-1.82,0-4.37.08-7.64.23v-1.52c1.79-.41,2.82-.74,3.08-.99.36-.32.54-1.11.54-2.39v-.7l.03-8.14v-6.58l-.02-3.04c0-1.47-.06-2.38-.18-2.73-.12-.36-.35-.64-.69-.84-.34-.21-1.26-.45-2.76-.72Z"/>
    <path class="cls-1" d="M277.25,418.47v-1.52c1.31-.3,2.06-.55,2.27-.74.21-.19.31-.45.31-.78,0-.19-.03-.41-.1-.66-.17-.58-.73-2.31-1.68-5.2-1.52-.04-2.78-.06-3.8-.06-.83,0-2.21.02-4.15.06-1.21,3.6-1.82,5.58-1.82,5.92s.09.57.26.73.94.4,2.3.73v1.52c-1.36-.15-2.66-.23-3.9-.23-1.34,0-2.7.08-4.08.23v-1.52c.97-.26,1.64-.56,2.01-.89.25-.22.47-.55.68-.99.42-.86,1.68-4.21,3.78-10.03,1.33-3.69,3.23-9.14,5.69-16.37h1.29c1,3.22,3.08,9.23,6.23,18.03,1.75,4.89,2.8,7.67,3.14,8.35.24.47.47.8.71.99s.99.49,2.25.91v1.52c-1.91-.15-3.69-.23-5.33-.23s-3.64.08-6.07.23ZM274.16,397.54l-3.31,9.68,3.21.02c.77,0,1.87,0,3.3-.02l-3.2-9.68Z"/>
    <path class="cls-1" d="M288.92,390.82v-1.52c2.76.15,4.91.23,6.45.23s3.67-.08,6.29-.23v1.52c-2.22.43-3.43.7-3.63.82-.32.23-.49.83-.49,1.79l-.06,5.29v17.11h5.91c.97,0,1.62-.08,1.95-.25.44-.23.87-.65,1.28-1.25.41-.6,1.14-2,2.17-4.19h1.46c-.72,2.54-1.43,5.32-2.12,8.35-4.59-.15-8.4-.23-11.45-.23-2.49,0-5.08.08-7.77.23v-1.52c1.91-.48,2.97-.81,3.16-.99s.31-.51.36-1c.05-.49.07-3.77.07-9.86l-.02-7.48v-1.32c0-2.19-.06-3.51-.18-3.95-.09-.33-.23-.56-.44-.69-.21-.13-1.2-.41-2.96-.85Z"/>
    <path class="cls-1" d="M319.52,390.82v-1.52c2.6.15,5.43.23,8.49.23,3.54,0,7.19-.08,10.95-.23.03,2.87.17,5.37.41,7.49h-1.38c-.13-.44-.22-.77-.28-1-.53-1.95-.95-3.08-1.25-3.4-.3-.31-.98-.47-2.04-.47h-6.19c-.09,2.31-.14,5.67-.16,10.08l2.82.04c1.47,0,2.38-.18,2.72-.54s.7-1.59,1.08-3.67h1.34c-.12,2.02-.18,3.79-.18,5.33s.06,3.3.18,5.49h-1.34c-.3-2.21-.59-3.48-.88-3.81s-1.13-.49-2.55-.49h-3.18v11.49h6.44c.71,0,1.19-.05,1.42-.17.38-.18.72-.5,1.04-.95.66-.93,1.43-2.39,2.31-4.39h1.42c-.63,2.26-1.3,4.98-2.02,8.16-3.68-.15-7.53-.23-11.54-.23-1.82,0-4.37.08-7.64.23v-1.52c1.79-.41,2.82-.74,3.08-.99.36-.32.54-1.11.54-2.39v-.7l.03-8.14v-6.58l-.02-3.04c0-1.47-.06-2.38-.18-2.73-.12-.36-.35-.64-.69-.84-.34-.21-1.26-.45-2.76-.72Z"/>
    <path class="cls-1" d="M357.57,397.64h-1.62c-.36-2.62-.9-4.38-1.62-5.28-.72-.9-1.71-1.34-2.95-1.34-1.11,0-1.98.37-2.6,1.1-.62.73-.93,1.67-.93,2.8,0,1.01.29,1.93.86,2.75.57.84,1.93,1.87,4.08,3.1,2.15,1.23,3.65,2.53,4.5,3.9.85,1.38,1.28,3.1,1.28,5.14,0,2.47-.73,4.63-2.19,6.48-1.46,1.86-3.82,2.78-7.08,2.78-1.17,0-2.27-.11-3.3-.33-.79-.15-1.76-.47-2.93-.95.18-2.41.28-4.79.28-7.14v-1.38h1.59c.41,2.73.92,4.55,1.52,5.47.81,1.25,1.93,1.87,3.37,1.87,1.14,0,2.06-.43,2.75-1.3.69-.86,1.04-1.97,1.04-3.31,0-.85-.14-1.6-.43-2.26s-.71-1.25-1.28-1.79c-.57-.53-1.59-1.24-3.08-2.12-2.29-1.37-3.82-2.69-4.6-3.97-.78-1.26-1.17-2.75-1.17-4.46,0-2.52.73-4.61,2.2-6.27,1.47-1.66,3.58-2.49,6.35-2.49,1.83,0,3.83.45,5.97,1.34-.07,2.15-.1,3.65-.1,4.48,0,.97.03,2.02.1,3.15Z"/>
    <path class="cls-1" d="M381.44,397.95h-1.51c-.75-2.89-1.2-4.53-1.37-4.92s-.4-.65-.7-.81c-.3-.16-1.26-.24-2.88-.24h-1.57v19.21c0,2.38.07,3.82.19,4.32.07.26.22.47.48.63.25.16,1.23.43,2.94.81v1.52c-3.29-.15-5.41-.23-6.35-.23-1.27,0-3.22.08-5.85.23v-1.52c1.73-.38,2.75-.68,3.08-.9.22-.15.36-.4.45-.75.08-.35.12-1.79.12-4.31v-19h-2.72c-.92,0-1.52.1-1.82.29-.3.19-.54.54-.74,1.05-.29.77-.7,2.31-1.23,4.63h-1.47c.18-2.02.3-3.41.34-4.17.04-.77.09-2.26.15-4.48,4.27.15,8.45.21,12.53.19,3.45-.04,5.94-.1,7.45-.19,0,2.65.17,5.53.49,8.66Z"/>
    <path class="cls-1" d="M395.6,418.47v-1.52c1.31-.3,2.06-.55,2.27-.74.21-.19.31-.45.31-.78,0-.19-.03-.41-.1-.66-.17-.58-.73-2.31-1.68-5.2-1.52-.04-2.78-.06-3.8-.06-.83,0-2.21.02-4.15.06-1.21,3.6-1.82,5.58-1.82,5.92s.09.57.26.73.94.4,2.3.73v1.52c-1.36-.15-2.66-.23-3.9-.23-1.34,0-2.7.08-4.08.23v-1.52c.97-.26,1.64-.56,2.01-.89.25-.22.47-.55.68-.99.42-.86,1.68-4.21,3.78-10.03,1.33-3.69,3.23-9.14,5.69-16.37h1.29c1,3.22,3.08,9.23,6.23,18.03,1.75,4.89,2.8,7.67,3.14,8.35.24.47.47.8.71.99s.99.49,2.25.91v1.52c-1.91-.15-3.69-.23-5.33-.23s-3.64.08-6.07.23ZM392.51,397.54l-3.31,9.68,3.21.02c.77,0,1.87,0,3.3-.02l-3.2-9.68Z"/>
    <path class="cls-1" d="M426.92,397.95h-1.51c-.75-2.89-1.2-4.53-1.37-4.92s-.4-.65-.7-.81c-.3-.16-1.26-.24-2.88-.24h-1.57v19.21c0,2.38.07,3.82.19,4.32.07.26.22.47.48.63.25.16,1.23.43,2.94.81v1.52c-3.29-.15-5.41-.23-6.35-.23-1.27,0-3.22.08-5.85.23v-1.52c1.73-.38,2.75-.68,3.08-.9.22-.15.36-.4.45-.75.08-.35.12-1.79.12-4.31v-19h-2.72c-.92,0-1.52.1-1.82.29-.3.19-.54.54-.74,1.05-.29.77-.7,2.31-1.23,4.63h-1.47c.18-2.02.3-3.41.34-4.17.04-.77.09-2.26.15-4.48,4.27.15,8.45.21,12.53.19,3.45-.04,5.94-.1,7.45-.19,0,2.65.17,5.53.49,8.66Z"/>
    <path class="cls-1" d="M427.86,390.82v-1.52c2.6.15,5.43.23,8.49.23,3.54,0,7.19-.08,10.95-.23.03,2.87.17,5.37.41,7.49h-1.38c-.13-.44-.22-.77-.28-1-.53-1.95-.95-3.08-1.25-3.4-.3-.31-.98-.47-2.04-.47h-6.19c-.09,2.31-.14,5.67-.16,10.08l2.82.04c1.47,0,2.38-.18,2.72-.54s.7-1.59,1.08-3.67h1.34c-.12,2.02-.18,3.79-.18,5.33s.06,3.3.18,5.49h-1.34c-.3-2.21-.59-3.48-.88-3.81s-1.13-.49-2.55-.49h-3.18v11.49h6.44c.71,0,1.19-.05,1.42-.17.38-.18.72-.5,1.04-.95.66-.93,1.43-2.39,2.31-4.39h1.42c-.63,2.26-1.3,4.98-2.02,8.16-3.68-.15-7.53-.23-11.54-.23-1.82,0-4.37.08-7.64.23v-1.52c1.79-.41,2.82-.74,3.08-.99.36-.32.54-1.11.54-2.39v-.7l.03-8.14v-6.58l-.02-3.04c0-1.47-.06-2.38-.18-2.73-.12-.36-.35-.64-.69-.84-.34-.21-1.26-.45-2.76-.72Z"/>
  </g>
  <g>
    <path class="cls-1" d="M229.66,36.96c-.79-2.39-1.44-4.64-1.98-6.75-.54-2.12-.99-4.18-1.39-6.16-.39-1.98-.59-3.76-.59-5.36,0-5.56,1.92-9.41,5.76-11.52,3.83-2.12,9.34-3.17,16.48-3.17h13.51V0h-115.2v3.98h4.77c4.77,0,8.8.59,12.11,1.78,3.31,1.19,6.22,3.33,8.74,6.37s4.7,7.21,6.57,12.51l74.57,212.33c.35-1.33.71-2.64,1.06-3.96,1.46-5.43,3.17-11.19,5.16-17.29,2-6.08,3.98-12.25,5.96-18.46,1.98-6.23,4.17-12.65,6.55-19.27l3.21-9.34-45.27-131.7h-.02Z"/>
    <path class="cls-1" d="M519.53,197.45l-30.37,86.21h-220.11l-1.38-3.96h7.37c.46.03.9.03,1.34,0,9.42-.61,15.53-13.9,17.49-18.6,4.67-14.49,9.44-29.08,14.33-43.76,4.4-13.23,8.83-26.34,13.27-39.35l48.48-141.04c.79-2.39,1.44-4.64,1.98-6.75.54-2.12.99-4.18,1.39-6.16.39-1.98.59-3.76.59-5.36,0-5.56-1.92-9.41-5.76-11.52-3.83-2.12-9.34-3.17-16.48-3.17h-13.51V0h115.2v3.98h-4.77c-4.77,0-8.8.59-12.11,1.78-3.31,1.19-6.22,3.33-8.74,6.37-2.52,3.04-4.7,7.22-6.57,12.51l-77.68,221.15-11.89,33.9h106.69c3.39-.05,6.55-.42,9.47-.99,30.88-6.07,47.56-38.15,52.49-48.61,5.12-10.88,10.25-21.76,15.37-32.65h3.91Z"/>
  </g>
  <path class="cls-1" d="M220.48,289.47h.8c-.51.04-.8,0-.8,0Z"/>
</svg>