<?xml version="1.0" encoding="UTF-8"?>
<svg id="Layer_1" data-name="Layer 1" xmlns="http://www.w3.org/2000/svg" viewBox="0 0 640.65 365.04">
  <defs>
    <style>
      .cls-1 {
        fill: #154270;
      }
    </style>
  </defs>
  <g>
    <path class="cls-1" d="M231.06,31.96c-.68-2.06-1.25-4.01-1.71-5.84-.46-1.83-.86-3.62-1.21-5.33-.33-1.71-.51-3.25-.51-4.63,0-4.81,1.66-8.13,4.98-9.96,3.31-1.83,8.08-2.75,14.25-2.75h11.68V0h-99.62v3.44h4.13c4.13,0,7.61.51,10.47,1.54,2.86,1.03,5.37,2.88,7.55,5.51,2.18,2.63,4.07,6.23,5.68,10.82l64.48,183.61c.31-1.15.61-2.28.92-3.43,1.26-4.69,2.75-9.67,4.46-14.95,1.73-5.26,3.44-10.59,5.16-15.96,1.71-5.39,3.6-10.94,5.67-16.66l2.77-8.08-39.15-113.89Z"/>
    <path class="cls-1" d="M481.72,170.74l-26.26,74.55h-190.34l-1.19-3.43h6.38c.39.03.78.02,1.16,0,8.14-.53,13.43-12.02,15.12-16.08,4.04-12.53,8.17-25.14,12.39-37.84,3.8-11.44,7.63-22.78,11.48-34.02l41.92-121.96c.68-2.06,1.25-4.01,1.71-5.84.46-1.83.86-3.62,1.21-5.33.33-1.71.51-3.25.51-4.63,0-4.81-1.66-8.13-4.98-9.96-3.31-1.83-8.08-2.75-14.25-2.75h-11.68V0h99.62v3.44h-4.13c-4.13,0-7.61.51-10.47,1.54-2.86,1.03-5.37,2.88-7.55,5.51-2.18,2.63-4.07,6.25-5.68,10.82l-67.17,191.24-10.28,29.31h92.26c2.93-.05,5.66-.36,8.19-.86,26.7-5.25,41.13-32.99,45.39-42.03,4.43-9.41,8.86-18.82,13.29-28.23h3.37Z"/>
  </g>
  <path class="cls-1" d="M298.06,250.31h.69c-.44.03-.69,0-.69,0Z"/>
  <g>
    <path class="cls-1" d="M14.71,286.94H5.19c-.58-1.23-1.31-2.1-2.19-2.62-.88-.52-1.74-.78-2.57-.78h-.43v-.54h17.2v.54h-.49c-.69,0-1.29.3-1.81.89-.52.59-.59,1.43-.19,2.52ZM21.42,321.94l-17.91-38.62h9.68l11.58,28.18-3.35,10.44ZM21.42,321.94l-.16-6.6,13.74-32.19h3.89l-14.34,31.7c-.07.22-.24.62-.51,1.22-.27.59-.57,1.27-.89,2.03s-.6,1.49-.84,2.19c-.23.7-.37,1.25-.41,1.65h-.49ZM33.38,286.94c.47-1.08.41-1.92-.16-2.52-.58-.59-1.21-.89-1.89-.89h-.49v-.54h11.58v.54h-.49c-.79,0-1.63.26-2.52.78-.88.52-1.61,1.4-2.19,2.62h-3.84Z"/>
    <path class="cls-1" d="M47.5,286.94h-.16c-.04-.94-.39-1.74-1.05-2.41-.67-.67-1.47-1-2.41-1h-.7v-.54h4.33v3.95ZM47.5,316.91v3.95h-4.33v-.54h.7c.94,0,1.74-.33,2.41-1,.67-.67,1.02-1.47,1.05-2.41h.16ZM55.45,282.99v37.87h-8.11v-37.87h8.11ZM55.29,286.94v-3.95h4.33v.54h-.7c-.94,0-1.74.33-2.41,1s-1.02,1.47-1.05,2.41h-.16ZM55.29,316.91h.16c.04.94.39,1.74,1.05,2.41.67.67,1.47,1,2.41,1h.7v.54h-4.33v-3.95Z"/>
    <path class="cls-1" d="M99.81,305.06l.49,9.3c-.79,1.33-1.86,2.54-3.19,3.62-1.33,1.08-2.99,1.96-4.98,2.62-1.98.67-4.33,1-7.03,1-4.4-.04-8.25-.84-11.55-2.41-3.3-1.57-5.85-3.81-7.65-6.73-1.8-2.92-2.7-6.46-2.7-10.6s.88-7.53,2.65-10.47c1.77-2.94,4.3-5.2,7.6-6.79,3.3-1.59,7.24-2.38,11.82-2.38,2.88,0,5.47.29,7.76.87,2.29.58,4.21,1.28,5.76,2.11l.05,9.25h-.49c-.97-3.57-2.56-6.12-4.76-7.65-2.2-1.53-4.78-2.3-7.74-2.3s-5.36.7-7.41,2.11c-2.06,1.41-3.64,3.39-4.76,5.95-1.12,2.56-1.68,5.63-1.68,9.2s.53,6.65,1.6,9.25c1.06,2.6,2.58,4.62,4.54,6.06,1.97,1.44,4.28,2.2,6.95,2.27,2.78,0,5.12-.45,7.03-1.35,1.91-.9,3.45-2.4,4.63-4.49,1.17-2.09,2.05-4.9,2.62-8.44h.43Z"/>
    <path class="cls-1" d="M103.7,281.96c.36.14.91.29,1.65.43.74.14,1.56.27,2.46.38.9.11,1.73.16,2.49.16l-6.6.59v-1.57ZM138.32,282.94v2.27h-34.62v-2.27h34.62ZM109.71,285.05v.16c-1.66.04-2.98.55-3.98,1.54s-1.49,2.34-1.49,4.03v.59l-.54.05v-6.38h6ZM117.12,316.91v3.95h-4.33v-.54h.7c.94,0,1.74-.33,2.41-1s1.02-1.47,1.05-2.41h.16ZM125.07,283.15v37.7h-8.11v-37.7h8.11ZM124.91,316.91h.16c.04.94.39,1.74,1.05,2.41.67.67,1.47,1,2.41,1h.7v.54h-4.33v-3.95ZM138.32,281.96v1.57l-6.6-.59c.79,0,1.63-.05,2.52-.16.88-.11,1.7-.23,2.46-.38.76-.14,1.3-.29,1.62-.43ZM138.32,285.05v6.38l-.54-.05v-.59c0-1.69-.5-3.04-1.49-4.03-.99-.99-2.34-1.51-4.03-1.54v-.16h6.06Z"/>
    <path class="cls-1" d="M162.39,282.23c4.33,0,8.09.8,11.28,2.41,3.19,1.61,5.66,3.87,7.41,6.79,1.75,2.92,2.62,6.42,2.62,10.49s-.87,7.53-2.62,10.47c-1.75,2.94-4.22,5.21-7.41,6.82-3.19,1.61-6.95,2.41-11.28,2.41s-8.09-.8-11.28-2.41c-3.19-1.6-5.65-3.87-7.38-6.79-1.73-2.92-2.6-6.42-2.6-10.49s.87-7.53,2.6-10.47c1.73-2.94,4.19-5.21,7.38-6.82,3.19-1.6,6.95-2.41,11.28-2.41ZM162.39,319.34c2.56,0,4.76-.71,6.6-2.14,1.84-1.42,3.26-3.43,4.27-6.03,1.01-2.6,1.51-5.68,1.51-9.25s-.51-6.65-1.51-9.25c-1.01-2.6-2.43-4.61-4.27-6.03-1.84-1.42-4.04-2.14-6.6-2.14s-4.72.71-6.57,2.14c-1.86,1.43-3.29,3.43-4.3,6.03-1.01,2.6-1.51,5.68-1.51,9.25s.5,6.65,1.51,9.25c1.01,2.6,2.44,4.61,4.3,6.03,1.86,1.43,4.05,2.14,6.57,2.14Z"/>
    <path class="cls-1" d="M191.71,286.94h-.16c-.04-.94-.39-1.74-1.05-2.41-.67-.67-1.47-1-2.41-1h-.7v-.54h4.33v3.95ZM191.71,316.91v3.95h-4.33v-.54h.7c.94,0,1.74-.33,2.41-1,.67-.67,1.02-1.47,1.05-2.41h.16ZM199.67,282.99v37.87h-8.11v-37.87h8.11ZM205.94,282.99c1.62,0,3.21.18,4.76.54,1.55.36,2.93.94,4.14,1.73,1.21.79,2.17,1.84,2.89,3.14.72,1.3,1.08,2.9,1.08,4.81,0,1.51-.32,3.02-.95,4.52-.63,1.5-1.6,2.78-2.89,3.84-1.3,1.06-2.98,1.7-5.03,1.92,1.15.36,2.21,1.01,3.16,1.95.96.94,1.74,1.88,2.35,2.81.04.07.24.4.62.97.38.58.85,1.29,1.41,2.14.56.85,1.14,1.7,1.76,2.57.61.87,1.17,1.62,1.68,2.27.79.97,1.51,1.76,2.16,2.35.65.59,1.33,1.03,2.06,1.3.72.27,1.55.42,2.49.46v.54h-5.3c-1.95,0-3.71-.17-5.3-.51-1.59-.34-2.99-.93-4.22-1.76-1.23-.83-2.29-1.95-3.19-3.35-.29-.43-.6-.98-.95-1.65-.34-.67-.69-1.38-1.05-2.14-.36-.76-.71-1.49-1.05-2.19-.34-.7-.64-1.34-.89-1.92-.25-.58-.43-1.03-.54-1.35-.47-1.15-1.02-2.02-1.65-2.6-.63-.58-1.31-.92-2.03-1.03v-.54h1.68c.97,0,1.92-.2,2.84-.6.92-.4,1.74-1.05,2.46-1.95.72-.9,1.23-2.15,1.51-3.73.07-.32.14-.7.19-1.14s.06-.92.03-1.46c-.11-2.6-.76-4.5-1.95-5.71-1.19-1.21-2.67-1.83-4.44-1.87-.51-.04-1.05-.04-1.65-.03-.59.02-1.14.03-1.62.03h-1s-.05-.24-.14-.62c-.09-.38-.23-.96-.41-1.76h6.98ZM199.5,316.91h.16c0,.94.34,1.74,1.03,2.41.68.67,1.5,1,2.43,1h.65v.54h-4.27v-3.95Z"/>
    <path class="cls-1" d="M231.31,286.94h-.16c-.04-.94-.39-1.74-1.05-2.41-.67-.67-1.47-1-2.41-1h-.7v-.54h4.33v3.95ZM231.31,316.91v3.95h-4.33v-.54h.7c.94,0,1.74-.33,2.41-1,.67-.67,1.02-1.47,1.05-2.41h.16ZM239.26,282.99v37.87h-8.11v-37.87h8.11ZM239.1,286.94v-3.95h4.33v.54h-.7c-.94,0-1.74.33-2.41,1s-1.02,1.47-1.05,2.41h-.16ZM239.1,316.91h.16c.04.94.39,1.74,1.05,2.41.67.67,1.47,1,2.41,1h.7v.54h-4.33v-3.95Z"/>
    <path class="cls-1" d="M252.84,316.91c-.29.72-.34,1.33-.16,1.84.18.51.49.89.92,1.16s.87.41,1.3.41h.49v.54h-11.58v-.54h.49c.83,0,1.69-.26,2.57-.78.88-.52,1.61-1.4,2.19-2.62h3.79ZM264.47,281.91l.22,6.6-13.42,32.19h-3.95l14.01-31.7c.11-.22.3-.62.57-1.22.27-.59.56-1.27.87-2.03.31-.76.59-1.49.84-2.19.25-.7.38-1.25.38-1.65h.49ZM270.15,307.98v2.27h-15.9v-2.27h15.9ZM264.47,281.91l17.69,38.62h-9.74l-11.25-28.18,3.3-10.44ZM270.96,316.91h9.47c.61,1.23,1.35,2.1,2.22,2.62.86.52,1.71.78,2.54.78h.43v.54h-17.2v-.54h.49c.72,0,1.35-.3,1.89-.89.54-.59.59-1.43.16-2.52Z"/>
    <path class="cls-1" d="M304.23,286.94h-.16c-.04-.94-.39-1.74-1.05-2.41-.67-.67-1.47-1-2.41-1h-.7v-.54h4.33v3.95ZM304.23,316.91v3.95h-4.33v-.54h.7c.94,0,1.74-.33,2.41-1,.67-.67,1.02-1.47,1.05-2.41h.16ZM312.18,282.99v37.87h-8.11v-37.87h8.11ZM312.02,286.94v-3.95h4.33v.54h-.7c-.94,0-1.74.33-2.41,1-.67.67-1.02,1.47-1.05,2.41h-.16ZM326.47,318.53l1.3,2.33h-15.74v-2.33h14.44ZM330.42,309.77l-2.49,11.09h-10.6l1.95-2.33c1.8,0,3.39-.35,4.76-1.05,1.37-.7,2.54-1.71,3.52-3.03.97-1.32,1.75-2.88,2.33-4.68h.54Z"/>
    <path class="cls-1" d="M338.53,316.91c-.29.72-.34,1.33-.16,1.84.18.51.49.89.92,1.16s.87.41,1.3.41h.49v.54h-11.58v-.54h.49c.83,0,1.69-.26,2.57-.78.88-.52,1.61-1.4,2.19-2.62h3.79ZM350.16,281.91l.22,6.6-13.42,32.19h-3.95l14.01-31.7c.11-.22.3-.62.57-1.22.27-.59.56-1.27.87-2.03.31-.76.59-1.49.84-2.19.25-.7.38-1.25.38-1.65h.49ZM355.84,307.98v2.27h-15.9v-2.27h15.9ZM350.16,281.91l17.69,38.62h-9.74l-11.25-28.18,3.3-10.44ZM356.65,316.91h9.47c.61,1.23,1.35,2.1,2.22,2.62.86.52,1.71.78,2.54.78h.43v.54h-17.2v-.54h.49c.72,0,1.35-.3,1.89-.89.54-.59.59-1.43.16-2.52Z"/>
    <path class="cls-1" d="M375.91,317.02v3.84h-4.49v-.54h1.03c.9,0,1.68-.32,2.33-.97.65-.65.97-1.42.97-2.33h.16ZM375.64,282.18l7.79,8.28.05,30.4h-7.74v-31.92c0-2.02-.22-4.27-.65-6.76h.54ZM375.64,282.18l34.51,32.89.65,6.55-34.51-32.84-.65-6.6ZM383.48,317.02c0,.9.32,1.68.97,2.33.65.65,1.42.97,2.33.97h1.03v.54h-4.49v-3.84h.16ZM398.57,282.99h4.49v3.84h-.11c-.04-.94-.37-1.72-1-2.35-.63-.63-1.42-.95-2.35-.95h-1.03v-.54ZM410.64,282.99v31.7c0,1.33.05,2.53.16,3.6.11,1.06.27,2.17.49,3.33h-.49l-7.84-8.76v-29.86h7.68ZM414.96,282.99v.54h-.97c-.9,0-1.68.32-2.33.95-.65.63-.99,1.42-1.03,2.35h-.16v-3.84h4.49Z"/>
    <path class="cls-1" d="M454.72,305.06l.49,9.3c-.79,1.33-1.86,2.54-3.19,3.62-1.33,1.08-2.99,1.96-4.98,2.62-1.98.67-4.33,1-7.03,1-4.4-.04-8.25-.84-11.55-2.41-3.3-1.57-5.85-3.81-7.65-6.73-1.8-2.92-2.7-6.46-2.7-10.6s.88-7.53,2.65-10.47c1.77-2.94,4.3-5.2,7.6-6.79,3.3-1.59,7.24-2.38,11.82-2.38,2.88,0,5.47.29,7.76.87,2.29.58,4.21,1.28,5.76,2.11l.05,9.25h-.49c-.97-3.57-2.56-6.12-4.76-7.65-2.2-1.53-4.78-2.3-7.74-2.3s-5.36.7-7.41,2.11-3.64,3.39-4.76,5.95c-1.12,2.56-1.68,5.63-1.68,9.2s.53,6.65,1.6,9.25c1.06,2.6,2.58,4.62,4.54,6.06,1.97,1.44,4.28,2.2,6.95,2.27,2.78,0,5.12-.45,7.03-1.35,1.91-.9,3.45-2.4,4.63-4.49,1.17-2.09,2.05-4.9,2.62-8.44h.43Z"/>
    <path class="cls-1" d="M465.38,316.91c-.29.72-.34,1.33-.16,1.84.18.51.49.89.92,1.16s.87.41,1.3.41h.49v.54h-11.58v-.54h.49c.83,0,1.69-.26,2.57-.78.88-.52,1.61-1.4,2.19-2.62h3.79ZM477.01,281.91l.22,6.6-13.42,32.19h-3.95l14.01-31.7c.11-.22.3-.62.57-1.22.27-.59.56-1.27.87-2.03.31-.76.59-1.49.84-2.19.25-.7.38-1.25.38-1.65h.49ZM482.69,307.98v2.27h-15.9v-2.27h15.9ZM477.01,281.91l17.69,38.62h-9.74l-11.25-28.18,3.3-10.44ZM483.5,316.91h9.47c.61,1.23,1.35,2.1,2.22,2.62.86.52,1.71.78,2.54.78h.43v.54h-17.2v-.54h.49c.72,0,1.35-.3,1.89-.89.54-.59.59-1.43.16-2.52Z"/>
    <path class="cls-1" d="M511.63,282.23c.72,0,1.61.04,2.68.11,1.06.07,2.16.17,3.3.3,1.14.13,2.13.25,2.98.38.85.13,1.43.26,1.76.41l-.65,7.3h-.54c0-1.87-.69-3.38-2.08-4.52-1.39-1.14-3.24-1.7-5.54-1.7-2.09,0-3.78.51-5.06,1.51-1.28,1.01-1.96,2.24-2.03,3.68-.04,1.08.31,2.02,1.03,2.81.72.79,1.64,1.53,2.76,2.22l10.33,6.71c1.66.94,2.91,2.16,3.76,3.68.85,1.51,1.22,3.28,1.11,5.3-.18,3.53-1.53,6.28-4.06,8.25-2.52,1.97-5.95,2.95-10.28,2.95-1.59,0-3.13-.14-4.63-.41-1.5-.27-2.82-.65-3.98-1.14s-2.07-1.07-2.76-1.76c-.29-.79-.41-1.75-.38-2.87.04-1.12.21-2.25.51-3.41.31-1.15.69-2.11,1.16-2.87h.49c-.14,1.84.19,3.54,1,5.11.81,1.57,2,2.81,3.57,3.73,1.57.92,3.44,1.36,5.6,1.33,2.38-.04,4.22-.64,5.52-1.81,1.3-1.17,1.95-2.59,1.95-4.25,0-1.12-.33-2.13-1-3.03-.67-.9-1.76-1.77-3.27-2.6l-9.47-6.27c-1.91-1.08-3.3-2.47-4.17-4.17-.87-1.69-1.21-3.53-1.03-5.52.18-1.87.74-3.52,1.68-4.95.94-1.42,2.23-2.53,3.87-3.33,1.64-.79,3.6-1.19,5.87-1.19ZM522.4,282.77l-.11,1.14h-6.38v-1.14h6.49Z"/>
    <path class="cls-1" d="M528.67,281.96c.36.14.91.29,1.65.43.74.14,1.56.27,2.46.38.9.11,1.73.16,2.49.16l-6.6.59v-1.57ZM563.29,282.94v2.27h-34.62v-2.27h34.62ZM534.68,285.05v.16c-1.66.04-2.98.55-3.98,1.54s-1.49,2.34-1.49,4.03v.59l-.54.05v-6.38h6ZM542.09,316.91v3.95h-4.33v-.54h.7c.94,0,1.74-.33,2.41-1,.67-.67,1.02-1.47,1.05-2.41h.16ZM550.04,283.15v37.7h-8.11v-37.7h8.11ZM549.88,316.91h.16c.04.94.39,1.74,1.05,2.41.67.67,1.47,1,2.41,1h.7v.54h-4.33v-3.95ZM563.29,281.96v1.57l-6.6-.59c.79,0,1.63-.05,2.52-.16.88-.11,1.7-.23,2.46-.38.76-.14,1.3-.29,1.62-.43ZM563.29,285.05v6.38l-.54-.05v-.59c0-1.69-.5-3.04-1.49-4.03-.99-.99-2.33-1.51-4.03-1.54v-.16h6.06Z"/>
    <path class="cls-1" d="M570.6,286.94h-.16c-.04-.94-.39-1.74-1.05-2.41-.67-.67-1.47-1-2.41-1h-.7v-.54h4.33v3.95ZM570.6,316.91v3.95h-4.33v-.54h.7c.94,0,1.74-.33,2.41-1,.67-.67,1.02-1.47,1.05-2.41h.16ZM578.55,282.99v37.87h-8.11v-37.87h8.11ZM593.48,282.99v2.33h-15.09v-2.33h15.09ZM590.83,301.06v2.27h-12.44v-2.27h12.44ZM592.83,318.53l1.3,2.33h-15.74v-2.33h14.44ZM596.78,309.77l-2.49,11.09h-10.6l1.95-2.33c1.8,0,3.39-.35,4.76-1.05,1.37-.7,2.54-1.71,3.52-3.03.97-1.32,1.75-2.88,2.33-4.68h.54ZM590.83,295.97v5.19h-5.14v-.11c1.33-.04,2.43-.5,3.3-1.38.87-.88,1.3-1.99,1.3-3.33v-.38h.54ZM590.83,303.22v5.19h-.54v-.43c0-1.33-.43-2.43-1.3-3.3s-1.97-1.32-3.3-1.35v-.11h5.14ZM593.48,282.02v1.57l-6.6-.59c.79,0,1.63-.05,2.52-.16.88-.11,1.7-.23,2.46-.38.76-.14,1.3-.29,1.62-.43ZM593.48,285.15v6.33h-.54v-.65c0-1.66-.5-2.99-1.49-4-.99-1.01-2.34-1.53-4.03-1.57v-.11h6.06Z"/>
    <path class="cls-1" d="M604.73,286.94h-.16c-.04-.94-.39-1.74-1.05-2.41-.67-.67-1.47-1-2.41-1h-.7v-.54h4.33v3.95ZM604.73,316.91v3.95h-4.33v-.54h.7c.94,0,1.74-.33,2.41-1,.67-.67,1.02-1.47,1.05-2.41h.16ZM612.68,282.99v37.87h-8.11v-37.87h8.11ZM618.96,282.99c1.62,0,3.21.18,4.76.54,1.55.36,2.93.94,4.14,1.73,1.21.79,2.17,1.84,2.89,3.14.72,1.3,1.08,2.9,1.08,4.81,0,1.51-.32,3.02-.95,4.52-.63,1.5-1.6,2.78-2.89,3.84-1.3,1.06-2.98,1.7-5.03,1.92,1.15.36,2.21,1.01,3.17,1.95.96.94,1.74,1.88,2.35,2.81.04.07.24.4.62.97.38.58.85,1.29,1.41,2.14.56.85,1.15,1.7,1.76,2.57s1.17,1.62,1.68,2.27c.79.97,1.51,1.76,2.16,2.35.65.59,1.33,1.03,2.06,1.3.72.27,1.55.42,2.49.46v.54h-5.3c-1.95,0-3.71-.17-5.3-.51-1.59-.34-2.99-.93-4.22-1.76-1.23-.83-2.29-1.95-3.19-3.35-.29-.43-.6-.98-.95-1.65-.34-.67-.69-1.38-1.05-2.14-.36-.76-.71-1.49-1.06-2.19-.34-.7-.64-1.34-.89-1.92-.25-.58-.43-1.03-.54-1.35-.47-1.15-1.02-2.02-1.65-2.6-.63-.58-1.31-.92-2.03-1.03v-.54h1.68c.97,0,1.92-.2,2.84-.6.92-.4,1.74-1.05,2.46-1.95.72-.9,1.23-2.15,1.51-3.73.07-.32.14-.7.19-1.14s.06-.92.03-1.46c-.11-2.6-.76-4.5-1.95-5.71-1.19-1.21-2.67-1.83-4.44-1.87-.5-.04-1.05-.04-1.65-.03-.6.02-1.14.03-1.62.03h-1s-.05-.24-.14-.62c-.09-.38-.23-.96-.41-1.76h6.98ZM612.52,316.91h.16c0,.94.34,1.74,1.03,2.41.68.67,1.5,1,2.43,1h.65v.54h-4.27v-3.95Z"/>
  </g>
  <g>
    <path class="cls-1" d="M212.1,343.61h-.1c-.02-.58-.24-1.08-.65-1.49-.41-.41-.91-.62-1.49-.62h-.43v-.33h2.67v2.44ZM212.1,362.13v2.44h-2.67v-.33h.43c.58,0,1.08-.21,1.49-.62s.63-.91.65-1.49h.1ZM217.01,341.17v23.4h-5.02v-23.4h5.02ZM220.89,341.17c1,0,1.98.11,2.94.33.96.22,1.81.58,2.56,1.07.75.49,1.34,1.14,1.79,1.94.45.8.67,1.79.67,2.98,0,.94-.2,1.87-.58,2.79-.39.93-.99,1.72-1.79,2.37-.8.66-1.84,1.05-3.11,1.19.71.22,1.37.62,1.96,1.2.59.58,1.08,1.16,1.45,1.74.02.04.15.25.38.6.23.36.52.8.87,1.32.35.52.71,1.05,1.09,1.59.38.53.72,1,1.04,1.4.49.6.94,1.09,1.34,1.45s.82.64,1.27.8.96.26,1.54.28v.33h-3.28c-1.2,0-2.3-.11-3.28-.32-.98-.21-1.85-.57-2.61-1.09-.76-.51-1.42-1.2-1.97-2.07-.18-.27-.37-.61-.59-1.02-.21-.41-.43-.85-.65-1.32-.22-.47-.44-.92-.65-1.35-.21-.43-.4-.83-.55-1.19-.16-.36-.27-.64-.33-.84-.29-.71-.63-1.25-1.02-1.6-.39-.36-.81-.57-1.25-.64v-.33h1.04c.6,0,1.19-.12,1.76-.37.57-.24,1.08-.65,1.52-1.2.45-.56.76-1.33.94-2.31.04-.2.08-.43.12-.7.03-.27.04-.57.02-.9-.07-1.6-.47-2.78-1.2-3.53-.74-.75-1.65-1.13-2.74-1.15-.31-.02-.65-.03-1.02-.02-.37.01-.7.02-1,.02h-.62s-.03-.15-.08-.38c-.06-.23-.14-.6-.25-1.09h4.31ZM216.91,362.13h.1c0,.58.21,1.08.64,1.49.42.41.92.62,1.5.62h.4v.33h-2.64v-2.44Z"/>
    <path class="cls-1" d="M236.57,343.61h-.1c-.02-.58-.24-1.08-.65-1.49-.41-.41-.91-.62-1.49-.62h-.43v-.33h2.67v2.44ZM236.57,362.13v2.44h-2.67v-.33h.43c.58,0,1.08-.21,1.49-.62.41-.41.63-.91.65-1.49h.1ZM241.49,341.17v23.4h-5.02v-23.4h5.02ZM250.71,341.17v1.44h-9.33v-1.44h9.33ZM249.08,352.33v1.4h-7.69v-1.4h7.69ZM250.31,363.13l.8,1.44h-9.73v-1.44h8.93ZM252.75,357.72l-1.54,6.85h-6.55l1.2-1.44c1.11,0,2.1-.22,2.94-.65.85-.43,1.57-1.06,2.17-1.87.6-.81,1.08-1.78,1.44-2.89h.33ZM249.08,349.19v3.21h-3.18v-.07c.82-.02,1.5-.31,2.04-.85.53-.55.8-1.23.8-2.06v-.23h.33ZM249.08,353.67v3.21h-.33v-.27c0-.82-.27-1.5-.8-2.04s-1.22-.81-2.04-.84v-.07h3.18ZM250.71,340.56v.97l-4.08-.37c.49,0,1.01-.03,1.55-.1.55-.07,1.05-.14,1.52-.23.47-.09.8-.18,1-.27ZM250.71,342.5v3.91h-.33v-.4c0-1.03-.31-1.85-.92-2.47-.61-.62-1.44-.95-2.49-.97v-.07h3.74Z"/>
    <path class="cls-1" d="M258.27,362.13c-.18.45-.21.83-.1,1.14.11.31.3.55.57.72.27.17.53.25.8.25h.3v.33h-7.16v-.33h.3c.51,0,1.04-.16,1.59-.48.55-.32,1-.86,1.35-1.62h2.34ZM265.46,340.5l.13,4.08-8.29,19.89h-2.44l8.66-19.59c.07-.13.18-.38.35-.75.17-.37.35-.79.53-1.25.19-.47.36-.92.52-1.35.16-.43.23-.77.23-1.02h.3ZM268.97,356.61v1.4h-9.83v-1.4h9.83ZM265.46,340.5l10.93,23.87h-6.02l-6.95-17.42,2.04-6.45ZM269.47,362.13h5.85c.38.76.84,1.3,1.37,1.62.53.32,1.06.48,1.57.48h.27v.33h-10.63v-.33h.3c.45,0,.84-.18,1.17-.55.33-.37.37-.89.1-1.56Z"/>
    <path class="cls-1" d="M281.67,343.61h-.1c-.02-.58-.24-1.08-.65-1.49-.41-.41-.91-.62-1.49-.62h-.43v-.33h2.67v2.44ZM281.67,362.13v2.44h-2.67v-.33h.43c.58,0,1.08-.21,1.49-.62.41-.41.63-.91.65-1.49h.1ZM286.59,341.17v23.4h-5.02v-23.4h5.02ZM286.49,343.61v-2.44h2.67v.33h-.43c-.58,0-1.08.21-1.49.62-.41.41-.63.91-.65,1.49h-.1ZM295.42,363.13l.8,1.44h-9.73v-1.44h8.93ZM297.86,357.72l-1.54,6.85h-6.55l1.2-1.44c1.11,0,2.1-.22,2.94-.65.85-.43,1.57-1.06,2.17-1.87.6-.81,1.08-1.78,1.44-2.89h.33Z"/>
    <path class="cls-1" d="M310.66,343.61h-.1c-.02-.58-.24-1.08-.65-1.49-.41-.41-.91-.62-1.49-.62h-.43v-.33h2.67v2.44ZM310.66,362.13v2.44h-2.67v-.33h.43c.58,0,1.08-.21,1.49-.62.41-.41.63-.91.65-1.49h.1ZM315.58,341.17v23.4h-5.02v-23.4h5.02ZM324.8,341.17v1.44h-9.33v-1.44h9.33ZM323.17,352.33v1.4h-7.69v-1.4h7.69ZM324.4,363.13l.8,1.44h-9.73v-1.44h8.93ZM326.84,357.72l-1.54,6.85h-6.55l1.2-1.44c1.11,0,2.1-.22,2.94-.65.85-.43,1.57-1.06,2.17-1.87.6-.81,1.08-1.78,1.44-2.89h.33ZM323.17,349.19v3.21h-3.18v-.07c.82-.02,1.5-.31,2.04-.85.53-.55.8-1.23.8-2.06v-.23h.33ZM323.17,353.67v3.21h-.33v-.27c0-.82-.27-1.5-.8-2.04s-1.22-.81-2.04-.84v-.07h3.18ZM324.8,340.56v.97l-4.08-.37c.49,0,1.01-.03,1.55-.1.55-.07,1.05-.14,1.52-.23.47-.09.8-.18,1-.27ZM324.8,342.5v3.91h-.33v-.4c0-1.03-.31-1.85-.92-2.47-.61-.62-1.44-.95-2.49-.97v-.07h3.74Z"/>
    <path class="cls-1" d="M336.98,340.7c.45,0,1,.02,1.65.07.66.04,1.34.11,2.04.18.7.08,1.31.16,1.84.23.52.08.89.16,1.09.25l-.4,4.51h-.33c0-1.16-.43-2.09-1.29-2.79-.86-.7-2-1.05-3.43-1.05-1.29,0-2.34.31-3.13.94-.79.62-1.21,1.38-1.25,2.27-.02.67.19,1.25.64,1.74s1.01.95,1.71,1.37l6.39,4.15c1.03.58,1.8,1.34,2.32,2.27.52.94.75,2.03.69,3.28-.11,2.18-.95,3.88-2.51,5.1-1.56,1.22-3.68,1.82-6.35,1.82-.98,0-1.93-.08-2.86-.25-.93-.17-1.74-.4-2.46-.7-.71-.3-1.28-.66-1.7-1.09-.18-.49-.26-1.08-.23-1.77.02-.69.13-1.39.32-2.11.19-.71.43-1.3.72-1.77h.3c-.09,1.14.12,2.19.62,3.16.5.97,1.24,1.74,2.21,2.31s2.12.84,3.46.82c1.47-.02,2.61-.4,3.41-1.12.8-.72,1.2-1.6,1.2-2.62,0-.69-.21-1.31-.62-1.87-.41-.56-1.09-1.09-2.02-1.6l-5.85-3.88c-1.18-.67-2.04-1.53-2.57-2.57-.53-1.05-.75-2.18-.64-3.41.11-1.16.46-2.18,1.04-3.06.58-.88,1.38-1.57,2.39-2.06,1.01-.49,2.22-.74,3.63-.74ZM343.63,341.03l-.07.7h-3.95v-.7h4.01Z"/>
    <path class="cls-1" d="M347.51,340.53c.22.09.56.18,1.02.27.46.09.96.17,1.52.23.56.07,1.07.1,1.54.1l-4.08.37v-.97ZM368.91,341.13v1.4h-21.4v-1.4h21.4ZM351.22,342.44v.1c-1.03.02-1.84.34-2.46.95-.61.61-.92,1.44-.92,2.49v.37l-.33.03v-3.95h3.71ZM355.8,362.13v2.44h-2.67v-.33h.43c.58,0,1.08-.21,1.49-.62.41-.41.63-.91.65-1.49h.1ZM360.71,341.27v23.3h-5.02v-23.3h5.02ZM360.61,362.13h.1c.02.58.24,1.08.65,1.49.41.41.91.62,1.49.62h.43v.33h-2.67v-2.44ZM368.91,340.53v.97l-4.08-.37c.49,0,1.01-.03,1.55-.1.55-.07,1.05-.14,1.52-.23s.8-.18,1-.27ZM368.91,342.44v3.95l-.33-.03v-.37c0-1.05-.31-1.88-.92-2.49-.61-.61-1.44-.93-2.49-.95v-.1h3.74Z"/>
    <path class="cls-1" d="M378.6,340.7c.45,0,1,.02,1.65.07.66.04,1.34.11,2.04.18.7.08,1.31.16,1.84.23.52.08.89.16,1.09.25l-.4,4.51h-.33c0-1.16-.43-2.09-1.29-2.79-.86-.7-2-1.05-3.43-1.05-1.29,0-2.34.31-3.13.94-.79.62-1.21,1.38-1.25,2.27-.02.67.19,1.25.64,1.74s1.01.95,1.71,1.37l6.39,4.15c1.03.58,1.8,1.34,2.32,2.27.52.94.75,2.03.69,3.28-.11,2.18-.95,3.88-2.51,5.1-1.56,1.22-3.68,1.82-6.35,1.82-.98,0-1.93-.08-2.86-.25-.93-.17-1.74-.4-2.46-.7-.71-.3-1.28-.66-1.7-1.09-.18-.49-.26-1.08-.23-1.77.02-.69.13-1.39.32-2.11.19-.71.43-1.3.72-1.77h.3c-.09,1.14.12,2.19.62,3.16.5.97,1.24,1.74,2.21,2.31s2.12.84,3.46.82c1.47-.02,2.61-.4,3.41-1.12.8-.72,1.2-1.6,1.2-2.62,0-.69-.21-1.31-.62-1.87-.41-.56-1.09-1.09-2.02-1.6l-5.85-3.88c-1.18-.67-2.04-1.53-2.57-2.57-.53-1.05-.75-2.18-.64-3.41.11-1.16.46-2.18,1.04-3.06.58-.88,1.38-1.57,2.39-2.06,1.01-.49,2.22-.74,3.63-.74ZM385.25,341.03l-.07.7h-3.95v-.7h4.01Z"/>
    <path class="cls-1" d="M389.13,340.53c.22.09.56.18,1.02.27.46.09.96.17,1.52.23.56.07,1.07.1,1.54.1l-4.08.37v-.97ZM410.53,341.13v1.4h-21.4v-1.4h21.4ZM392.84,342.44v.1c-1.03.02-1.84.34-2.46.95-.61.61-.92,1.44-.92,2.49v.37l-.33.03v-3.95h3.71ZM397.42,362.13v2.44h-2.67v-.33h.43c.58,0,1.08-.21,1.49-.62.41-.41.63-.91.65-1.49h.1ZM402.34,341.27v23.3h-5.02v-23.3h5.02ZM402.24,362.13h.1c.02.58.24,1.08.65,1.49.41.41.91.62,1.49.62h.43v.33h-2.67v-2.44ZM410.53,340.53v.97l-4.08-.37c.49,0,1.01-.03,1.55-.1.55-.07,1.05-.14,1.52-.23s.8-.18,1-.27ZM410.53,342.44v3.95l-.33-.03v-.37c0-1.05-.31-1.88-.92-2.49-.61-.61-1.44-.93-2.49-.95v-.1h3.74Z"/>
    <path class="cls-1" d="M415.04,343.61h-.1c-.02-.58-.24-1.08-.65-1.49-.41-.41-.91-.62-1.49-.62h-.43v-.33h2.67v2.44ZM415.04,362.13v2.44h-2.67v-.33h.43c.58,0,1.08-.21,1.49-.62.41-.41.63-.91.65-1.49h.1ZM419.96,341.17v23.4h-5.02v-23.4h5.02ZM429.19,341.17v1.44h-9.33v-1.44h9.33ZM427.55,352.33v1.4h-7.69v-1.4h7.69ZM428.79,363.13l.8,1.44h-9.73v-1.44h8.93ZM431.23,357.72l-1.54,6.85h-6.55l1.2-1.44c1.11,0,2.1-.22,2.94-.65.85-.43,1.57-1.06,2.17-1.87.6-.81,1.08-1.78,1.44-2.89h.33ZM427.55,349.19v3.21h-3.18v-.07c.82-.02,1.5-.31,2.04-.85.53-.55.8-1.23.8-2.06v-.23h.33ZM427.55,353.67v3.21h-.33v-.27c0-.82-.27-1.5-.8-2.04s-1.22-.81-2.04-.84v-.07h3.18ZM429.19,340.56v.97l-4.08-.37c.49,0,1.01-.03,1.55-.1.55-.07,1.05-.14,1.52-.23.47-.09.8-.18,1-.27ZM429.19,342.5v3.91h-.33v-.4c0-1.03-.31-1.85-.92-2.47-.61-.62-1.44-.95-2.49-.97v-.07h3.74Z"/>
  </g>
</svg>