<?xml version="1.0" encoding="UTF-8"?>
<svg id="Layer_1" data-name="Layer 1" xmlns="http://www.w3.org/2000/svg" viewBox="0 0 640.7 365">
  <defs>
    <style>
      .cls-1 {
        fill: #154270;
      }
    </style>
  </defs>
  <path class="cls-1" d="M252.25,201.4c1.3-4.7,2.8-9.7,4.5-14.9,1.7-5.3,3.4-10.6,5.2-16,1.7-5.4,3.6-10.9,5.7-16.7l2.8-8.1-39.4-113.7c-.7-2.1-1.2-4-1.7-5.8s-.9-3.6-1.2-5.3-.5-3.2-.5-4.6c0-4.8,1.7-8.1,5-10,3.3-1.8,8.1-2.8,14.2-2.8h11.7V0h-99.6v3.4h4.1c4.1,0,7.6.5,10.5,1.5,2.9,1,5.4,2.9,7.6,5.5s4.1,6.2,5.7,10.8l64.5,183.6c.3-1.1.6-2.3.9-3.4Z"/>
  <path class="cls-1" d="M481.65,170.6h-3.3c-4.4,9.4-8.9,18.8-13.3,28.2-4.3,9-18.7,36.8-45.4,42-2.5.5-5.3.8-8.2.9h-92.3l10.3-29.3L396.65,21.2c1.6-4.6,3.6-8.2,5.7-10.8,2.1-2.6,4.6-4.5,7.5-5.5,2.9-1,6.4-1.5,10.5-1.5h4.1V0h-99.6v3.5h11.7c6.1,0,10.9,1,14.2,2.8,3.3,1.9,5,5.2,5,10,0,1.4-.2,2.9-.5,4.6-.3,1.7-.7,3.5-1.2,5.3s-1,3.7-1.7,5.8l-41.9,122c-3.9,11.2-7.7,22.6-11.5,34-4.2,12.7-8.4,25.3-12.4,37.8-1.7,4.1-7,15.6-15.1,16.1h-7.6l1.2,3.4h190.3l26.3-74.6v-.1Z"/>
  <path class="cls-1" d="M30.75,283.5h.5c.7,0,1.3.3,1.9.9.54.54.65,1.24.31,2.17l-9.68,22.59-9.15-22.25h.02c-.4-1-.3-1.9.2-2.5.5-.6,1.1-.9,1.8-.9h.5v-.5H-.05v.5h.4c.9,0,1.7.3,2.6.8.81.45,1.46,1.25,2.02,2.28l16.38,35.32.03-.1h.57c0-.4.2-.9.4-1.6.2-.7.5-1.5.8-2.2s.6-1.4.9-2c.3-.6.4-1,.5-1.2l12.59-27.9h.01c.6-1.2,1.3-2.1,2.2-2.6.9-.5,1.7-.8,2.5-.8h.5v-.5h-11.6v.5Z"/>
  <path class="cls-1" d="M55.25,283h-12.1v.5h.7c.9,0,1.7.3,2.4,1,.6.7,1,1.5,1,2.4h.1v30.1h-.1c0,.9-.3,1.7-1,2.4s-1.5,1-2.4,1h-.7v.5h12.3v-.1h4.1v-.5h-.7c-.9,0-1.7-.3-2.4-1-.6-.7-1-1.5-1-2.4v-30.1c0-.9.3-1.7,1-2.4s1.5-1,2.4-1h.7v-.5h-4.3v.1Z"/>
  <path class="cls-1" d="M99.05,305.1c-.5,3.5-1.4,6.3-2.6,8.4-1.2,2.1-2.7,3.6-4.6,4.5-1.9.9-4.2,1.4-7,1.4-2.6-.1-4.9-.9-6.9-2.3-1.9-1.5-3.4-3.5-4.5-6.1-1.1-2.6-1.6-5.6-1.6-9.2s.5-6.6,1.7-9.2c1.2-2.6,2.7-4.6,4.8-6,2-1.4,4.5-2.1,7.4-2.1s5.5.8,7.7,2.3c2.2,1.5,3.8,4,4.8,7.6h.5l-.1-9.2c-1.6-.8-3.5-1.5-5.8-2.1-2.3-.6-4.9-.9-7.8-.9-4.6,0-8.5.8-11.8,2.4-3.3,1.6-5.9,3.8-7.6,6.8s-2.6,6.4-2.6,10.5.8,7.7,2.7,10.6c1.9,2.9,4.3,5.1,7.7,6.7,3.4,1.6,7.2,2.4,11.6,2.4,2.7,0,5-.3,7-1,2-.6,3.7-1.5,5-2.6,1.3-1.1,2.4-2.3,3.2-3.6l-.5-9.3h-.7Z"/>
  <path class="cls-1" d="M103.65,282s.07.02.1.03v-.03h-.1Z"/>
  <path class="cls-1" d="M134.15,282.8c-.19.04-.38.07-.57.1h-24.79c-.31-.03-.61-.06-.94-.1-.9-.1-1.8-.3-2.5-.4-.74-.09-1.22-.27-1.6-.37v.87h-.1v8.4h.5v-.6c0-1.7.5-3,1.5-4s2.3-1.5,4-1.5h7.3v31.8c-.1.9-.4,1.7-1.1,2.4-.7.7-1.5,1-2.4,1h-.7v.5h4.3v-.1h8s4.2,0,4.2,0v-.5h-.7c-.9,0-1.7-.3-2.4-1-.7-.7-1.1-1.5-1.1-2.4v-31.7h7.2v.1c1.7,0,3,.5,4,1.5s1.5,2.3,1.5,4v.6h.5v-9.4c-.3.1-.8.3-1.6.4-.8.2-1.6.3-2.5.4Z"/>
  <path class="cls-1" d="M173.65,284.6c-3.2-1.6-7-2.4-11.3-2.4s-8.1.8-11.3,2.4c-3.2,1.6-5.7,3.9-7.4,6.8-1.7,3-2.6,6.4-2.6,10.5s.9,7.6,2.6,10.5c1.8,2.9,4.2,5.2,7.4,6.8,3.2,1.6,6.9,2.4,11.3,2.4s8.1-.8,11.3-2.4,5.7-3.8,7.4-6.8,2.6-6.4,2.6-10.5-.9-7.6-2.6-10.5c-1.7-2.9-4.2-5.2-7.4-6.8ZM173.25,311.2c-1,2.6-2.5,4.6-4.3,6-1.8,1.4-4,2.1-6.6,2.1s-4.7-.7-6.6-2.1-3.3-3.4-4.3-6c-1-2.6-1.5-5.7-1.5-9.2s.5-6.6,1.5-9.2c1-2.6,2.4-4.6,4.3-6,1.9-1.4,4-2.1,6.6-2.1s4.8.7,6.6,2.1c1.9,1.4,3.3,3.4,4.3,6,1,2.6,1.5,5.7,1.5,9.2s-.5,6.6-1.5,9.2Z"/>
  <path class="cls-1" d="M213.05,318.5c1.2.9,2.6,1.5,4.2,1.8,1.6.3,3.4.5,5.3.5h4.4v.1h12.3v-.1h4.2v-.5h-.7c-.9,0-1.7-.3-2.4-1-.7-.7-1.1-1.5-1.1-2.4v-30.67c.15-.67.45-1.28,1-1.83.7-.7,1.5-1,2.4-1h.7v-.5h-4.3v.1h-12.1v.5h.6c.9,0,1.7.3,2.4,1s1.1,1.5,1.1,2.4h.1v30.1c-.1.9-.4,1.7-1.1,2.4-.65.65-1.38.94-2.2.98v-.08c-.9-.1-1.8-.2-2.5-.5-.8-.3-1.5-.7-2.1-1.3-.7-.6-1.4-1.4-2.2-2.4-.5-.7-1.1-1.4-1.7-2.3-.7-.9-1.3-1.8-1.8-2.6-.5-.8-1-1.5-1.4-2.1-.4-.6-.6-.9-.6-1-.7-.9-1.4-1.9-2.4-2.8-1-1-2.1-1.6-3.2-2,2-.2,3.7-.8,5-1.9,1.3-1,2.3-2.3,2.9-3.8.6-1.5.9-3,.9-4.5,0-1.9-.4-3.5-1.1-4.8-.7-1.3-1.7-2.3-2.9-3.1-1.2-.8-2.5-1.3-4.1-1.7-1.6-.3-3.2-.5-4.8-.5l-6.4-.1s.02.07.03.1h-12.23v.5h.7c.9,0,1.7.3,2.4,1s1.1,1.5,1.1,2.4h.1v30.1c-.1.9-.4,1.7-1.1,2.4s-1.5,1-2.4,1h-.7v.5h12.3v-.1h4v-.5h-.6c-.9,0-1.7-.3-2.4-1-.7-.7-1-1.5-1-2.4v-33.24c.11.43.2.78.2,1.04,0,.4.1.6.1.6h4.2c1.7.1,3.3.7,4.4,1.9,1.1,1.2,1.8,3.1,1.9,5.7.1.6.1,1.1,0,1.5-.1.4-.1.8-.2,1.1-.3,1.6-.8,2.8-1.5,3.7-.8,1-1.6,1.6-2.5,2-.9.4-1.8.6-2.8.6h-1.7v.5c.7.1,1.4.4,2,1,.6.6,1.1,1.5,1.6,2.6.1.4.3.8.5,1.4.3.6.5,1.2.9,1.9.4.7.7,1.5,1.1,2.2s.8,1.4,1.1,2.1c.3.6.6,1.2.9,1.6.9,1.4,2,2.6,3.2,3.4Z"/>
  <path class="cls-1" d="M268.85,320.3h-.5v.5h17.2v-.5h-.4c-.8,0-1.6-.3-2.5-.8-.7-.44-1.39-1.2-1.96-2.18l-16.24-35.42-.03.1h-.37c0,.4-.2.9-.4,1.6-.2.7-.5,1.5-.8,2.2s-.6,1.4-.9,2c-.3.6-.5,1-.6,1.2l-12.32,27.9h-.08c-.6,1.2-1.3,2.1-2.2,2.6-.9.5-1.8.8-2.6.8h-.5v.5h11.6v-.5h-.5c-.4,0-.9-.1-1.3-.4-.4-.3-.8-.7-.9-1.2-.07-.33-.08-.71,0-1.12l3.03-7.28h12.82l2.62,6.6h-.07c.4,1.1.3,1.9-.2,2.5-.5.6-1.2.9-1.9.9ZM256.54,308l5.6-13.46,5.35,13.46h-10.95Z"/>
  <path class="cls-1" d="M329.85,309.9c-.5,1.8-1.3,3.4-2.3,4.7s-2.1,2.3-3.5,3c-1,.43-2.11.75-3.32.9h-8.58v-31.7c0-.9.3-1.7,1-2.4.7-.7,1.5-1,2.4-1h.7v-.5h-4.3v.1h-12.1v.5h.7c.9,0,1.7.3,2.4,1,.6.7,1,1.5,1,2.4h.1v30.1h-.1c0,.9-.3,1.7-1,2.4-.7.7-1.5,1-2.4,1h-.7v.5h12.3v-.1h5.19l-.09.1h10.6l2.5-11.1-.5.1Z"/>
  <path class="cls-1" d="M354.45,320.3h-.5v.5h17.2v-.5h-.4c-.8,0-1.6-.3-2.5-.8-.55-.34-1.1-.89-1.58-1.58l-16.52-36.02-.03.1h-.47c0,.4-.2.9-.4,1.6-.2.7-.5,1.5-.8,2.2s-.6,1.4-.9,2c-.3.6-.5,1-.6,1.2l-12.4,28.09c-.58,1.1-1.25,1.94-2.1,2.41-.9.5-1.8.8-2.6.8h-.5v.5h11.6v-.5h-.5c-.4,0-.9-.1-1.3-.4-.4-.3-.8-.7-.9-1.2-.07-.33-.08-.71,0-1.12l3.03-7.28h12.82l2.62,6.6h-.17c.5,1.1.4,1.9-.2,2.5-.5.6-1.2.9-1.9.9ZM342.24,308l5.6-13.46,5.35,13.46h-10.95Z"/>
  <path class="cls-1" d="M410.65,286.9c0-1,.4-1.7,1-2.4s1.4-1,2.3-1h1v-.5h-16.4v.4h1c1,0,1.8.3,2.4,1,.6.7,1,1.5,1,2.4h0v21.53l-27.4-26.13h-.5c.4,2.5.6,4.8.6,6.8v28c0,.9-.4,1.6-1,2.3s-1.4,1-2.3,1h-1v.5h4.3v.1h7.7v-.1h4.4v-.5h-1c-.9,0-1.6-.4-2.3-1s-1-1.4-1-2.3h-.1v-21.35l27.3,25.95v-.13s.1.13.1.13h.5c-.2-1.1-.4-2.2-.5-3.3-.2-1.1-.2-2.3-.2-3.6v-27.8h.1Z"/>
  <path class="cls-1" d="M454.15,305.1c-.6,3.5-1.4,6.3-2.6,8.4-1.1,2.1-2.7,3.6-4.6,4.5-1.9.9-4.2,1.4-7,1.4-2.7-.1-5-.9-7-2.3-1.9-1.5-3.4-3.5-4.5-6.1-1.1-2.6-1.6-5.6-1.6-9.2s.5-6.6,1.7-9.2c1.2-2.6,2.8-4.6,4.8-6,2-1.4,4.5-2.1,7.4-2.1s5.5.8,7.7,2.3c2.2,1.5,3.8,4,4.8,7.6h.5v-9.2c-1.6-.8-3.5-1.5-5.8-2.1-2.3-.6-4.9-.9-7.8-.9-4.6,0-8.5.8-11.8,2.4-3.3,1.6-5.9,3.8-7.6,6.8s-2.6,6.4-2.6,10.5,1,7.7,2.7,10.6,4.3,5.1,7.6,6.7c3.3,1.6,7.1,2.4,11.5,2.4,2.7,0,5-.3,7-1,2-.6,3.7-1.5,5-2.6,1.3-1.1,2.4-2.3,3.2-3.6l-.5-9.3h-.5Z"/>
  <path class="cls-1" d="M495.15,319.5c-.7-.44-1.39-1.2-1.96-2.18l-16.24-35.42-.03.1h-.47c0,.4-.2.9-.4,1.6-.2.7-.5,1.5-.8,2.2s-.6,1.4-.9,2c-.3.6-.5,1-.6,1.2l-12.73,28.83c-.48.74-1.02,1.31-1.67,1.67-.9.5-1.8.8-2.6.8h-.5v.5h11.6v-.5h-.5c-.4,0-.9-.1-1.3-.4-.4-.3-.8-.7-.9-1.2s-.1-1.1.2-1.8h-.02l2.75-6.6h12.82l2.62,6.6h-.07c.4,1.1.4,1.9-.1,2.5-.5.6-1.2.9-1.9.9h-.5v.5h17.1v-.5h-.4c-.8,0-1.6-.3-2.5-.8ZM469.04,308l5.6-13.46,5.35,13.46h-10.95Z"/>
  <path class="cls-1" d="M520.55,301.4l-10.3-6.7c-1.2-.7-2.1-1.4-2.8-2.2s-1-1.7-1-2.8c0-1.5.7-2.7,2-3.7s3-1.5,5.1-1.5c2.3,0,4.1.6,5.5,1.7,1.4,1.1,2.1,2.6,2.1,4.5h.5l.7-7.3s-.04,0-.05-.01l.05-.59h-3c-.57-.08-1.16-.14-1.8-.2-1.1-.1-2.2-.2-3.3-.3-1.1-.1-2-.1-2.7-.1-2.2,0-4.2.4-5.8,1.1-1.7.8-3,1.9-3.9,3.3-1,1.5-1.5,3.1-1.7,5-.2,2,.1,3.8,1,5.5.9,1.7,2.3,3.1,4.2,4.2l9.5,6.3c1.5.8,2.6,1.7,3.3,2.6.7.9,1,1.9,1,3,0,1.6-.7,3-2,4.2-1.3,1.2-3.1,1.8-5.5,1.8-2.2.1-4-.4-5.6-1.3-1.6-.9-2.8-2.1-3.6-3.7-.8-1.6-1.1-3.3-1-5.1h-.5c-.5.8-.9,1.8-1.2,2.9-.3,1.2-.5,2.3-.5,3.4s.1,2.1.4,2.9c.7.7,1.6,1.3,2.8,1.8s2.5.8,4,1.1,3,.4,4.6.4c4.3,0,7.8-1,10.3-3,2.6-1.9,3.9-4.7,4.1-8.2.1-2-.3-3.8-1.1-5.3-.9-1.5-2.1-2.8-3.8-3.7Z"/>
  <path class="cls-1" d="M559.15,282.8c-.19.04-.38.07-.57.1h-24.79c-.31-.03-.61-.06-.94-.1-.9-.1-1.8-.3-2.5-.4-.8-.1-1.3-.3-1.7-.4l.06.9h-.06v8.4h.5v-.6c0-1.7.5-3,1.5-4s2.3-1.5,4-1.5h7.2v31.8c0,.9-.3,1.7-1,2.4s-1.5,1-2.4,1h-.7v.5h4.3v-.1h7.9s4.2,0,4.2,0v-.5h-.7c-.9,0-1.7-.3-2.4-1-.6-.7-1-1.5-1-2.4h-.1v-31.7h7.3v.1c1.7,0,3,.5,4,1.5s1.5,2.3,1.5,4v.6h.5v-9.4c-.3.1-.9.3-1.6.4-.8.2-1.6.3-2.5.4Z"/>
  <path class="cls-1" d="M593.95,314.6c-1,1.3-2.1,2.3-3.5,3-1,.43-2.11.75-3.32.9h-8.68v-15.1h7.9c1,.18,1.87.57,2.6,1.3.9.9,1.3,2,1.3,3.3v.4h.5v-12.4h-.5v.4c0,1.3-.4,2.4-1.3,3.3-.9.9-2,1.4-3.3,1.4h-7.2v-15.8h9.79c1.31.2,2.37.66,3.21,1.5,1,1,1.5,2.3,1.5,4v.6h.5v-6.3h0v-3.1c-.3.2-.9.3-1.6.4-.8.2-1.6.3-2.5.4-.9.2-1.7.2-2.5.2h-20.6v.5h.7c.9,0,1.7.3,2.4,1,.6.7,1,1.5,1,2.4h0v30.1c0,.9-.3,1.7-1,2.4s-1.5,1-2.4,1h-.7v.5h12.2v-.1h5.29l-.09.1h10.6l2.5-11.1-.5.1c-.5,1.8-1.3,3.4-2.3,4.7Z"/>
  <path class="cls-1" d="M638.25,319.8c-.8-.3-1.4-.7-2.1-1.3-.7-.6-1.4-1.4-2.2-2.4-.5-.7-1.1-1.4-1.7-2.3-.6-.9-1.2-1.8-1.8-2.6-.6-.8-1-1.5-1.4-2.1-.4-.6-.6-.9-.6-1-.6-.9-1.3-1.9-2.3-2.8-1-1-2-1.6-3.2-2,2-.2,3.7-.8,5-1.9,1.3-1,2.2-2.3,2.9-3.8s1-3,1-4.5c0-1.9-.4-3.5-1.1-4.8-.7-1.3-1.7-2.3-2.9-3.1-1.2-.8-2.6-1.3-4.1-1.7-1.6-.3-3.2-.5-4.8-.5l-6.9-.1s.02.07.02.1h-11.72v.5h.7c.9,0,1.7.3,2.4,1,.6.7,1,1.5,1,2.4h.1v30.1h-.1c0,.9-.3,1.7-1,2.4s-1.5,1-2.4,1h-.7v.5h12.3v-.1h4.1v-.5h-.7c-.9,0-1.7-.3-2.4-1-.7-.7-1-1.5-1-2.4v-31.6h4.2c1.7.1,3.2.7,4.4,1.9s1.9,3.1,2,5.7c.1.6.1,1.1,0,1.5-.1.4-.1.8-.2,1.1-.3,1.6-.8,2.8-1.5,3.7-.8,1-1.6,1.6-2.5,2-.9.4-1.8.6-2.8.6h-1.7v.5c.7.1,1.4.4,2,1,.7.6,1.2,1.5,1.7,2.6.1.4.3.8.5,1.4.3.6.6,1.2.9,1.9.4.7.8,1.5,1.1,2.2s.7,1.4,1,2.1c.4.6.7,1.2,1,1.6.9,1.4,2,2.6,3.2,3.4,1.2.9,2.6,1.5,4.2,1.8s3.3.5,5.3.5h5.3v-.5c-1-.1-1.8-.2-2.5-.5Z"/>
  <g>
    <path class="cls-1" d="M243.11,353.8c.8,0,1.5.3,2,.8s.8,1.2.8,2v.3h.3v-3.2h-3.1v.1Z"/>
    <polygon class="cls-1" points="249.91 357.7 249.89 357.8 249.91 357.8 249.91 357.7"/>
    <path class="cls-1" d="M249.51,357.8c-.3,1.1-.8,2.1-1.4,2.9s-1.3,1.5-2.2,1.9c-.49.24-1.06.4-1.67.5h-5.63v-9.4h7.6v-4.5l-.4-.1v.2c0,.9-.3,1.6-.8,2.1-.5.6-1.2.9-2,.9h-4.4v-9.7h6.36c.67.15,1.21.47,1.64.9.6.6.9,1.5.9,2.5v.4h.3v-5.8c-.2,0-.6.2-1,.3-.4.1-.9.1-1.5.2-.6.1-1.1.1-1.6.1h-12.6v.3h.4c.6,0,1.1.2,1.5.6s.6.9.6,1.5v18.5h-.1c0,.6-.2,1.1-.6,1.5s-.9.6-1.5.6h-.4v.06c-.37-.04-.73-.11-1.1-.26-.5-.2-.9-.4-1.3-.8-.4-.4-.8-.9-1.3-1.5-.3-.4-.6-.9-1-1.4-.4-.6-.7-1.1-1.1-1.6-.4-.5-.7-.9-.9-1.3-.3-.4-.4-.6-.4-.6-.3-.5-.8-1.1-1.4-1.7-.6-.6-1.3-1-2-1.2,1.3-.2,2.3-.5,3.1-1.2s1.4-1.5,1.8-2.4c.4-.9.6-1.9.6-2.8,0-1.2-.2-2.2-.7-3s-1-1.4-1.8-1.9c-.8-.5-1.7-.9-2.6-1.1-.9-.2-1.9-.3-2.9-.3l-3.9.09v-.09h-7.5v.3h.4c.6,0,1.1.2,1.5.6s.6.9.6,1.5v18.5h-.1c0,.6-.2,1.1-.6,1.5s-.9.6-1.5.6h-.4v.3h2.6v.1h5v-.1h2.5v-.3h-.4c-.6,0-1.1-.2-1.5-.6s-.6-.9-.6-1.5v-19.3h2.6c1.1,0,2,.3,2.7,1.1.7.7,1.1,1.9,1.2,3.5v.9c0,.3-.1.5-.1.7-.1,1-.5,1.7-.9,2.3-.4.6-.9,1-1.5,1.2-.6.3-1.2.4-1.8.4h-1v.3c.4,0,.8.2,1.2.6s.7.9,1,1.6c0,.2.1.4.3.8.2.4.4.8.6,1.2.2.5.4,1,.6,1.4.2.4.4.9.6,1.3.2.4.4.7.6,1,.6.9,1.2,1.6,2,2.1.7.5,1.6.9,2.6,1.1s2.1.3,3.3.3h3.3v-.1h2.2v.1h5v-.1h3.29l-.09.1h6.6l1.48-6.8h-.38Z"/>
    <path class="cls-1" d="M273.91,363.7c-.6-.3-1-.8-1.4-1.6h-.05l-9.85-21.6h-.3c0,.2-.1.5-.2,1-.1.5-.3.9-.5,1.4-.1.4-.3.8-.5,1.2-.2.4-.3.7-.4.8l-7.59,17.1h0c-.4.7-.8,1.3-1.4,1.6-.6.3-1.1.5-1.6.5h-.3v.3h2.24l-.04.1h2.4l.04-.1h2.56v-.3h-.3c-.3,0-.5,0-.8-.2s-.5-.4-.6-.7c-.1-.3-.1-.6.1-1.09l1.72-4.11h7.81l1.71,4.25c.16.62.16,1.08.07,1.45-.4.3-.7.5-1.2.5h-.3v.3h10.6v-.3h-.3c-.5,0-1-.2-1.6-.5ZM257.71,356.6l3.39-8.14,3.27,8.14h-6.67Z"/>
    <path class="cls-1" d="M390.11,363.7c-.6-.3-1-.8-1.4-1.6h-.05l-9.85-21.6h-.3c0,.2-.1.5-.2,1-.1.5-.3.9-.5,1.4-.1.4-.3.8-.5,1.2-.2.4-.3.7-.4.8l-7.59,17.1h0c-.4.7-.8,1.3-1.4,1.6-.6.3-1.1.5-1.6.5h-.3v.3h2.24l-.04.1h2.4l.04-.1h2.56v-.3h-.3c-.3,0-.5,0-.8-.2s-.5-.4-.6-.7c-.1-.3-.1-.6.1-1.09l1.72-4.11h7.81l1.71,4.25c.16.62.16,1.08.07,1.45-.4.3-.7.5-1.2.5h-.3v.3h10.6v-.3h-.3c-.5,0-1-.2-1.6-.5ZM373.91,356.6l3.39-8.14,3.27,8.14h-6.67Z"/>
    <path class="cls-1" d="M293.31,360.7c-.6.8-1.3,1.5-2.2,1.9-.49.24-1.06.4-1.67.5h-5.73v-19.5h.1c0-.6.2-1.1.6-1.5.4-.4.9-.6,1.5-.6h.4v-.3h-10.2v.3h.5c.6,0,1.1.2,1.5.6.4.4.6.9.6,1.5v18.5h-.1c0,.6-.2,1.1-.6,1.5-.4.4-.9.6-1.5.6h-.4v.3h2.6v.1h5v-.1h3.39l-.09.1h6.5l1.48-6.8h-.28c-.3,1.1-.8,2.1-1.4,2.9Z"/>
    <polygon class="cls-1" points="295.01 357.8 295.01 357.7 294.99 357.8 295.01 357.8"/>
    <polygon class="cls-1" points="323.91 357.8 323.91 357.7 323.89 357.8 323.91 357.8"/>
    <path class="cls-1" d="M322.21,360.7c-.6.8-1.3,1.5-2.2,1.9-.49.24-1.06.4-1.67.5h-5.63v-9.4h7.6v-4.5l-.4-.1v.2c0,.9-.3,1.6-.8,2.1-.5.6-1.2.9-2,.9h-4.4v-9.7h6.36c.67.15,1.21.47,1.64.9.6.6.9,1.5.9,2.5v.4h.3v-5.8c-.2,0-.6.2-1.1.3-.5.1-1,.1-1.5.2-.5.1-1,.1-1.5.1h-12.7v.3h.5c.6,0,1.1.2,1.5.6.4.4.6.9.6,1.5v18.5h-.1c0,.6-.2,1.1-.6,1.5-.4.4-.9.6-1.5.6h-.4v.3h2.6v.1h5v-.1h3.29l-.09.1h6.5l1.48-6.8h-.28c-.3,1.1-.8,2.1-1.4,2.9Z"/>
    <path class="cls-1" d="M317.21,353.8c.8,0,1.5.3,2,.8s.8,1.2.8,2v.3h.3v-3.2h-3.1v.1Z"/>
    <path class="cls-1" d="M339.61,352.5l-6.4-4.1c-.7-.4-1.3-.9-1.7-1.4-.4-.5-.6-1-.6-1.7,0-.9.4-1.7,1.2-2.3.8-.6,1.8-.9,3.1-.9,1.4,0,2.5.3,3.4,1,.9.7,1.3,1.6,1.3,2.8h.3l.37-4.2h.03l.1-.7h-3c-.7-.1-1.3-.2-2-.2-.6-.1-1.1-.1-1.6-.1-1.4,0-2.8.1-3.8.6s-1.8,1.2-2.4,2.1c-.5.9-.9,1.9-1,3.1-.2,1.2.1,2.4.6,3.4.6,1.1,1.4,1.9,2.6,2.6l5.9,3.9c.9.5,1.6,1,2,1.6.4.6.6,1.2.6,1.9,0,1-.4,1.9-1.2,2.6s-1.9,1.1-3.4,1.1c-1.4,0-2.5-.2-3.5-.8s-1.7-1.3-2.2-2.3-.7-2.1-.6-3.2h-.3c-.3.5-.5,1.1-.7,1.8s-.3,1.4-.3,2.1c-.1.7,0,1.3.2,1.8.4.4,1,.8,1.7,1.1.8.3,1.5.6,2.5.7,1,.1,1.9.2,2.9.2,2.7,0,4.9-.6,6.4-1.8s2.4-2.9,2.5-5.1c.1-1.3-.2-2.4-.7-3.3-.5-1-1.3-1.7-2.3-2.3Z"/>
    <path class="cls-1" d="M363.41,341c-.5.1-1,.1-1.5.1h-13.3c-.4,0-.9,0-1.5-.1-.5,0-1.1-.1-1.5-.2-.4-.1-.8-.2-1-.3h-.1v1h.1s0,1,0,1h0v3.9h.3v-.4c0-1.1.3-1.9.9-2.5.7-.7,1.5-1,2.5-1h4.5v19.6h-.1c0,.6-.2,1.1-.6,1.5-.4.4-.9.6-1.5.6h-.4v.3h2.6v.1h5v-.1h2.5v-.3h-.4c-.6,0-1.1-.2-1.5-.6s-.6-.9-.6-1.5v-19.6h4.5c1.1.1,1.9.4,2.5,1s.9,1.5.9,2.5v.4h.3v-5.9c-.2.1-.6.2-1.1.3-.5.1-1,.1-1.5.2Z"/>
    <path class="cls-1" d="M410.91,341c-.5.1-1,.1-1.5.1h-13.3c-.4,0-.9,0-1.5-.1-.5,0-1.1-.1-1.5-.2-.4-.1-.8-.2-1-.3h-.1v1h.1s0,.9,0,.9v4h.3v-.4c0-1.1.3-1.9.9-2.5.7-.7,1.5-1,2.5-1h4.5v19.6h-.1c0,.6-.2,1.1-.6,1.5s-.9.6-1.5.6h-.4v.3h2.6v.1h5v-.1h2.5v-.3h-.4c-.6,0-1.1-.2-1.5-.6-.4-.4-.6-.9-.6-1.5h0v-19.6h4.5c1.1.1,1.9.4,2.5,1,.6.6.9,1.5.9,2.5v.4h.3v-5.9c-.2.1-.6.2-1.1.3-.5.1-1,.1-1.5.2Z"/>
    <path class="cls-1" d="M432.51,360.7c-.6.8-1.3,1.5-2.2,1.9-.49.24-1.06.4-1.67.5h-5.63v-9.4h7.5v-4.5l-.4-.1v.2c0,.9-.3,1.6-.8,2.1-.5.6-1.2.9-2,.9h-4.3v-9.7h6.36c.67.15,1.21.47,1.64.9.6.6.9,1.5.9,2.5v.4h.3v-5.8c-.2,0-.6.2-1.1.3-.5.1-1,.1-1.5.2-.5.1-1,.1-1.5.1h-12.7v.3h.4c.6,0,1.1.2,1.5.6.4.4.6.9.6,1.5h.1v18.5h-.2c0,.6-.2,1.1-.6,1.5-.4.4-.9.6-1.5.6h-.4v.3h2.7v.1h5v-.1h3.29l-.09.1h6.5l1.48-6.8h-.28c-.3,1.1-.8,2.1-1.4,2.9Z"/>
    <polygon class="cls-1" points="428.31 357.8 428.31 357.7 428.29 357.8 428.31 357.8"/>
  </g>
</svg>