<?xml version="1.0" encoding="UTF-8"?>
<svg id="Layer_1" data-name="Layer 1" xmlns="http://www.w3.org/2000/svg" viewBox="0 0 654.45 436.5">
  <defs>
    <style>
      .cls-1 {
        fill: #154270;
      }
    </style>
  </defs>
  <g>
    <g>
      <path class="cls-1" d="M4.12,346.03c-.2-.73-.44-1.28-.73-1.67-.28-.38-.62-.66-1-.82-.38-.16-.82-.24-1.3-.24H0v-.61h19.32v.61h-2.66c-.73,0-1.21.12-1.45.36-.24.24-.36.63-.36,1.15,0,.28.02.59.06.91s.1.67.18,1.03c.08.36.18.79.3,1.27l5.51,20.84c.2.65.43,1.5.7,2.57.26,1.07.52,2.19.79,3.36.26,1.17.5,2.25.73,3.24.22.99.37,1.71.45,2.15.24-1.01.47-1.97.7-2.88.22-.91.47-1.9.76-2.97.28-1.07.59-2.31.91-3.73l5.27-20.23c.2-.89.37-1.64.52-2.24.14-.61.23-1.13.27-1.58.04-.44.06-.85.06-1.21,0-.73-.23-1.25-.7-1.57-.47-.32-1.28-.48-2.45-.48h-2.73v-.61h12.11v.61h-1.88c-.69,0-1.26.1-1.73.3-.47.2-.85.54-1.15,1-.3.47-.57,1.14-.82,2.03l-10.06,39.31h-6.84l-11.69-39.92Z"/>
      <path class="cls-1" d="M39.43,385.95v-.61h2c.57,0,1.06-.09,1.48-.27.42-.18.77-.52,1.03-1.03.26-.51.39-1.22.39-2.15v-34.83c0-1.13-.13-1.96-.39-2.48-.26-.52-.62-.87-1.06-1.03-.45-.16-.95-.24-1.51-.24h-1.94v-.61h31.5l.42,11.27h-.61l-.18-2c-.2-2.14-.65-3.84-1.33-5.09-.69-1.25-1.71-2.16-3.06-2.73-1.35-.56-3.12-.85-5.3-.85h-5.88v19.75h13.45v.61h-13.45v21.69h7.63c2.18,0,3.95-.28,5.3-.85,1.35-.57,2.38-1.48,3.09-2.76.71-1.27,1.14-2.98,1.3-5.12l.18-1.94h.61l-.42,11.27h-33.26Z"/>
      <path class="cls-1" d="M96.74,386.55c-4.4,0-8.04-.93-10.9-2.79-2.87-1.86-5-4.45-6.39-7.78-1.39-3.33-2.09-7.24-2.09-11.72s.74-8.26,2.21-11.57c1.47-3.31,3.65-5.91,6.54-7.78s6.45-2.82,10.69-2.82c2.95,0,5.39.32,7.33.97s3.4,1.5,4.39,2.57c.99,1.07,1.48,2.27,1.48,3.6,0,1.57-.68,2.91-2.03,4-1.35,1.09-3.42,1.64-6.21,1.64,0-2.87-.17-5.19-.52-6.97-.34-1.78-.93-3.09-1.76-3.94s-1.93-1.27-3.3-1.27c-1.86,0-3.34.71-4.45,2.12s-1.91,3.69-2.39,6.84-.73,7.35-.73,12.6.31,9.46.94,12.63c.63,3.17,1.67,5.45,3.12,6.84,1.45,1.39,3.39,2.09,5.82,2.09,2.87,0,5.1-.96,6.69-2.88,1.6-1.92,2.53-4.65,2.82-8.21.81.28,1.35.76,1.64,1.42.28.67.42,1.3.42,1.91,0,.85-.2,1.77-.61,2.76-.4.99-1.09,1.91-2.06,2.76-.97.85-2.32,1.56-4.06,2.12-1.74.57-3.94.85-6.6.85Z"/>
      <path class="cls-1" d="M120.18,385.95v-.61h1.82c.77,0,1.39-.11,1.88-.33.48-.22.84-.63,1.06-1.21.22-.58.33-1.38.33-2.39v-38.1h-2.24c-2.3,0-4.14.26-5.51.79-1.37.52-2.38,1.42-3.03,2.7-.65,1.27-1.05,3-1.21,5.18l-.18,2.72h-.61l.42-11.99h35.44l.42,11.99h-.61l-.18-2.72c-.16-2.18-.57-3.91-1.21-5.18-.65-1.27-1.66-2.17-3.03-2.7-1.37-.52-3.19-.79-5.45-.79h-2.18v38.16c0,1.01.11,1.8.33,2.36.22.57.57.96,1.06,1.18s1.11.33,1.88.33h1.76v.61h-20.96Z"/>
      <path class="cls-1" d="M169.67,386.55c-4.28,0-7.83-.93-10.66-2.79-2.83-1.86-4.94-4.46-6.33-7.82-1.39-3.35-2.09-7.27-2.09-11.75s.7-8.38,2.09-11.69c1.39-3.31,3.51-5.88,6.36-7.72,2.85-1.84,6.41-2.76,10.69-2.76s7.52.92,10.33,2.76c2.81,1.84,4.95,4.42,6.42,7.75s2.21,7.24,2.21,11.72-.74,8.39-2.21,11.72-3.62,5.93-6.45,7.78-6.28,2.79-10.36,2.79ZM169.67,385.95c1.49,0,2.74-.34,3.73-1.03.99-.69,1.79-1.85,2.39-3.48.61-1.64,1.04-3.86,1.3-6.66.26-2.81.39-6.31.39-10.51s-.13-7.64-.39-10.45c-.26-2.81-.7-5.03-1.3-6.66-.61-1.64-1.4-2.8-2.39-3.48-.99-.69-2.21-1.03-3.66-1.03s-2.69.34-3.7,1.03c-1.01.69-1.83,1.85-2.45,3.48-.63,1.64-1.07,3.86-1.33,6.66-.26,2.81-.39,6.29-.39,10.45s.13,7.7.39,10.51c.26,2.81.7,5.03,1.3,6.66.61,1.64,1.41,2.8,2.42,3.48,1.01.69,2.24,1.03,3.7,1.03Z"/>
      <path class="cls-1" d="M192.75,385.95v-.61h2.06c.61,0,1.12-.1,1.54-.3.42-.2.75-.55.97-1.06.22-.51.33-1.2.33-2.09v-35.07c0-.93-.12-1.65-.36-2.15-.24-.5-.57-.86-.97-1.06-.4-.2-.91-.3-1.51-.3h-2.06v-.61h19.32c4,0,7.17.47,9.51,1.39,2.34.93,4.03,2.25,5.06,3.97,1.03,1.72,1.54,3.75,1.54,6.09s-.36,4.2-1.09,5.69c-.73,1.49-1.71,2.68-2.94,3.54-1.23.87-2.66,1.53-4.27,1.97l6.84,12.66c.93,1.78,1.68,3.16,2.24,4.15.57.99,1.02,1.71,1.36,2.15.34.44.63.73.85.85s.41.18.58.18h.12v.61h-2.67c-1.78,0-3.36-.08-4.75-.24-1.39-.16-2.6-.45-3.6-.88-1.01-.42-1.88-1.01-2.61-1.76-.73-.75-1.35-1.69-1.88-2.82l-6.6-14.48h-1.39v16.11c0,.89.09,1.58.27,2.09s.46.86.85,1.06c.38.2.88.3,1.48.3h1.27v.61h-19.51ZM210.8,365.17c1.45,0,2.61-.37,3.48-1.12.87-.75,1.49-1.93,1.88-3.54.38-1.61.58-3.73.58-6.36s-.2-4.72-.61-6.3c-.4-1.57-1.05-2.73-1.94-3.45s-2.06-1.09-3.51-1.09h-2.3v21.87h2.42Z"/>
      <path class="cls-1" d="M233.03,385.95v-.61h2.67c.56,0,1.01-.1,1.33-.3.32-.2.56-.52.7-.97.14-.44.21-1.05.21-1.82v-35.56c0-.89-.07-1.56-.21-2.03-.14-.46-.37-.81-.7-1.03s-.77-.33-1.33-.33h-2.67v-.61h20.6v.61h-2.79c-.52,0-.96.11-1.3.33-.34.22-.58.57-.7,1.06-.12.48-.18,1.17-.18,2.06v35.38c0,.81.06,1.44.18,1.91.12.46.35.8.7,1,.34.2.78.3,1.3.3h2.79v.61h-20.6Z"/>
      <path class="cls-1" d="M255.02,385.95v-.61h2.12c.73,0,1.36-.12,1.91-.36.55-.24,1.02-.69,1.42-1.33.4-.65.77-1.51,1.09-2.61l10.84-38.34h8.36l11.81,38.83c.32.93.67,1.68,1.03,2.24s.77.97,1.21,1.21c.44.24.97.36,1.57.36h.42v.61h-19.63v-.61h2.61c.85,0,1.42-.18,1.73-.55.3-.36.45-.85.45-1.45,0-.32-.03-.64-.09-.97-.06-.32-.13-.67-.21-1.03-.08-.36-.16-.71-.24-1.03l-2.73-10.18h-13.45l-2.54,9.21c-.16.57-.3,1.09-.42,1.57-.12.49-.21.93-.27,1.33s-.09.77-.09,1.09c0,.69.16,1.19.48,1.51.32.32.85.49,1.57.49h3.82v.61h-12.78ZM265.44,369.53h13.08l-4.36-16.66c-.2-.73-.4-1.5-.61-2.33-.2-.83-.42-1.7-.67-2.61s-.46-1.85-.67-2.82c-.16.69-.32,1.35-.48,2-.16.65-.33,1.29-.52,1.94-.18.65-.36,1.27-.54,1.88-.18.61-.35,1.21-.52,1.82l-4.73,16.78Z"/>
      <path class="cls-1" d="M309.48,385.95v-.61h2c.52,0,1.01-.1,1.45-.3.44-.2.8-.56,1.06-1.09.26-.52.39-1.27.39-2.24v-34.71c0-1.05-.13-1.83-.39-2.33-.26-.5-.63-.86-1.09-1.06-.47-.2-.98-.3-1.54-.3h-1.88v-.61h20.6v.61h-2c-.61,0-1.13.09-1.57.27-.44.18-.78.52-1,1.03-.22.51-.33,1.22-.33,2.15v38.59h5.94c2.58,0,4.66-.33,6.24-1,1.57-.67,2.77-1.75,3.57-3.24.81-1.49,1.29-3.49,1.45-6l.18-2.79h.61l-.48,13.63h-33.19Z"/>
      <path class="cls-1" d="M344.91,385.95v-.61h2.12c.73,0,1.36-.12,1.91-.36.55-.24,1.02-.69,1.42-1.33.4-.65.77-1.51,1.09-2.61l10.84-38.34h8.36l11.81,38.83c.32.93.67,1.68,1.03,2.24s.77.97,1.21,1.21c.44.24.97.36,1.57.36h.42v.61h-19.63v-.61h2.61c.85,0,1.42-.18,1.73-.55.3-.36.45-.85.45-1.45,0-.32-.03-.64-.09-.97-.06-.32-.13-.67-.21-1.03-.08-.36-.16-.71-.24-1.03l-2.73-10.18h-13.45l-2.54,9.21c-.16.57-.3,1.09-.42,1.57-.12.49-.21.93-.27,1.33s-.09.77-.09,1.09c0,.69.16,1.19.48,1.51.32.32.85.49,1.57.49h3.82v.61h-12.78ZM355.33,369.53h13.08l-4.36-16.66c-.2-.73-.4-1.5-.61-2.33-.2-.83-.42-1.7-.67-2.61s-.46-1.85-.67-2.82c-.16.69-.32,1.35-.48,2-.16.65-.33,1.29-.52,1.94-.18.65-.36,1.27-.54,1.88-.18.61-.35,1.21-.52,1.82l-4.73,16.78Z"/>
      <path class="cls-1" d="M387.86,385.95v-.61h3.15c.73,0,1.32-.1,1.79-.3.46-.2.81-.58,1.03-1.15.22-.57.33-1.33.33-2.3v-34.77c0-.93-.1-1.65-.3-2.15-.2-.5-.49-.86-.88-1.06-.38-.2-.88-.3-1.48-.3h-3.63v-.61h15.99l18.17,32.23v-28.11c0-.89-.08-1.58-.24-2.09-.16-.5-.43-.87-.82-1.09s-.88-.33-1.48-.33h-4.24v-.61h14.17v.61h-4.12c-.61,0-1.1.11-1.48.33-.39.22-.68.62-.88,1.18s-.3,1.31-.3,2.24v38.89h-5.15l-22.72-40.22v35.86c0,.97.07,1.74.21,2.3.14.57.4.95.79,1.15.38.2.9.3,1.54.3h4.24v.61h-13.69Z"/>
      <path class="cls-1" d="M452.13,386.55c-4.4,0-8.04-.93-10.9-2.79s-5-4.45-6.39-7.78c-1.39-3.33-2.09-7.24-2.09-11.72s.74-8.26,2.21-11.57c1.47-3.31,3.65-5.91,6.54-7.78s6.45-2.82,10.69-2.82c2.95,0,5.39.32,7.33.97,1.94.65,3.4,1.5,4.39,2.57.99,1.07,1.48,2.27,1.48,3.6,0,1.57-.68,2.91-2.03,4-1.35,1.09-3.42,1.64-6.21,1.64,0-2.87-.17-5.19-.52-6.97-.34-1.78-.93-3.09-1.76-3.94-.83-.85-1.93-1.27-3.3-1.27-1.86,0-3.34.71-4.45,2.12s-1.91,3.69-2.39,6.84c-.49,3.15-.73,7.35-.73,12.6s.31,9.46.94,12.63c.63,3.17,1.67,5.45,3.12,6.84,1.45,1.39,3.39,2.09,5.82,2.09,2.87,0,5.1-.96,6.69-2.88,1.59-1.92,2.53-4.65,2.82-8.21.81.28,1.35.76,1.64,1.42.28.67.42,1.3.42,1.91,0,.85-.2,1.77-.61,2.76s-1.09,1.91-2.06,2.76c-.97.85-2.32,1.56-4.06,2.12-1.74.57-3.94.85-6.6.85Z"/>
      <path class="cls-1" d="M468.12,385.95v-.61h2.12c.73,0,1.36-.12,1.91-.36s1.02-.69,1.42-1.33c.4-.65.77-1.51,1.09-2.61l10.84-38.34h8.36l11.81,38.83c.32.93.67,1.68,1.03,2.24.36.57.77.97,1.21,1.21s.97.36,1.57.36h.42v.61h-19.63v-.61h2.61c.85,0,1.42-.18,1.73-.55.3-.36.45-.85.45-1.45,0-.32-.03-.64-.09-.97-.06-.32-.13-.67-.21-1.03-.08-.36-.16-.71-.24-1.03l-2.73-10.18h-13.45l-2.54,9.21c-.16.57-.3,1.09-.42,1.57-.12.49-.21.93-.27,1.33s-.09.77-.09,1.09c0,.69.16,1.19.48,1.51.32.32.85.49,1.57.49h3.82v.61h-12.78ZM478.54,369.53h13.08l-4.36-16.66c-.2-.73-.41-1.5-.61-2.33-.2-.83-.42-1.7-.67-2.61-.24-.91-.46-1.85-.67-2.82-.16.69-.32,1.35-.48,2-.16.65-.33,1.29-.52,1.94-.18.65-.36,1.27-.54,1.88-.18.61-.35,1.21-.52,1.82l-4.73,16.78Z"/>
      <path class="cls-1" d="M525.13,386.55c-2.87,0-5.22-.27-7.06-.82-1.84-.55-3.25-1.25-4.24-2.12-.99-.87-1.67-1.8-2.06-2.79s-.58-1.91-.58-2.76c0-1.62.34-2.87,1.03-3.76.69-.89,1.57-1.52,2.67-1.91,1.09-.38,2.24-.58,3.45-.58,0,3.19.29,5.83.88,7.91.58,2.08,1.49,3.63,2.72,4.63,1.23,1.01,2.8,1.51,4.7,1.51,2.18,0,3.85-.62,5-1.85,1.15-1.23,1.73-2.96,1.73-5.18,0-2.1-.46-3.79-1.39-5.06-.93-1.27-2.19-2.35-3.79-3.24-1.6-.89-3.42-1.8-5.48-2.73-1.74-.89-3.27-1.79-4.6-2.7-1.33-.91-2.41-1.89-3.24-2.94-.83-1.05-1.45-2.2-1.88-3.45-.42-1.25-.63-2.62-.63-4.12,0-2.62.64-4.88,1.94-6.76,1.29-1.88,3.03-3.31,5.21-4.3s4.62-1.48,7.33-1.48c2.87,0,5.22.37,7.06,1.12,1.84.75,3.18,1.7,4.03,2.85.85,1.15,1.27,2.37,1.27,3.66,0,1.41-.57,2.6-1.7,3.54-1.13.95-3.15,1.42-6.06,1.42,0-4.2-.47-7.25-1.42-9.15-.95-1.9-2.43-2.85-4.45-2.85-.97,0-1.91.22-2.82.67-.91.45-1.66,1.15-2.24,2.12s-.88,2.26-.88,3.88.34,2.92,1.03,4.03c.69,1.11,1.81,2.15,3.36,3.12,1.55.97,3.64,2.06,6.27,3.27,2.46,1.13,4.46,2.32,6,3.57s2.66,2.64,3.36,4.18c.71,1.54,1.06,3.33,1.06,5.39,0,2.79-.64,5.19-1.91,7.21-1.27,2.02-3.07,3.59-5.39,4.72s-5.08,1.7-8.27,1.7Z"/>
      <path class="cls-1" d="M549.29,385.95v-.61h1.82c.77,0,1.39-.11,1.88-.33.48-.22.84-.63,1.06-1.21.22-.58.33-1.38.33-2.39v-38.1h-2.24c-2.3,0-4.14.26-5.51.79s-2.38,1.42-3.03,2.7c-.65,1.27-1.05,3-1.21,5.18l-.18,2.72h-.61l.42-11.99h35.44l.42,11.99h-.61l-.18-2.72c-.16-2.18-.57-3.91-1.21-5.18-.65-1.27-1.66-2.17-3.03-2.7s-3.19-.79-5.45-.79h-2.18v38.16c0,1.01.11,1.8.33,2.36.22.57.57.96,1.06,1.18.48.22,1.11.33,1.88.33h1.76v.61h-20.96Z"/>
      <path class="cls-1" d="M579.16,385.95v-.61h2c.56,0,1.06-.09,1.48-.27.42-.18.77-.52,1.03-1.03s.39-1.22.39-2.15v-34.83c0-1.13-.13-1.96-.39-2.48s-.62-.87-1.06-1.03c-.44-.16-.95-.24-1.51-.24h-1.94v-.61h31.5l.42,11.27h-.61l-.18-2c-.2-2.14-.65-3.84-1.33-5.09-.69-1.25-1.71-2.16-3.06-2.73-1.35-.56-3.12-.85-5.3-.85h-5.88v19.75h13.45v.61h-13.45v21.69h7.63c2.18,0,3.95-.28,5.3-.85,1.35-.57,2.38-1.48,3.09-2.76.71-1.27,1.14-2.98,1.3-5.12l.18-1.94h.61l-.42,11.27h-33.26Z"/>
      <path class="cls-1" d="M615.32,385.95v-.61h2.06c.61,0,1.12-.1,1.55-.3.42-.2.75-.55.97-1.06.22-.51.33-1.2.33-2.09v-35.07c0-.93-.12-1.65-.36-2.15-.24-.5-.57-.86-.97-1.06-.4-.2-.91-.3-1.51-.3h-2.06v-.61h19.32c4,0,7.17.47,9.51,1.39s4.03,2.25,5.06,3.97c1.03,1.72,1.54,3.75,1.54,6.09s-.36,4.2-1.09,5.69c-.73,1.49-1.71,2.68-2.94,3.54-1.23.87-2.66,1.53-4.27,1.97l6.85,12.66c.93,1.78,1.67,3.16,2.24,4.15.57.99,1.02,1.71,1.36,2.15s.63.73.85.85c.22.12.41.18.58.18h.12v.61h-2.67c-1.78,0-3.36-.08-4.76-.24-1.39-.16-2.6-.45-3.6-.88-1.01-.42-1.88-1.01-2.61-1.76-.73-.75-1.35-1.69-1.88-2.82l-6.6-14.48h-1.39v16.11c0,.89.09,1.58.27,2.09s.46.86.85,1.06c.38.2.88.3,1.48.3h1.27v.61h-19.51ZM633.37,365.17c1.45,0,2.61-.37,3.48-1.12.87-.75,1.49-1.93,1.88-3.54.38-1.61.58-3.73.58-6.36s-.2-4.72-.61-6.3-1.05-2.73-1.94-3.45c-.89-.73-2.06-1.09-3.51-1.09h-2.3v21.87h2.42Z"/>
    </g>
    <g>
      <path class="cls-1" d="M210.87,436.13v-.37h1.27c.37,0,.69-.06.95-.19s.46-.34.6-.66c.14-.31.21-.74.21-1.29v-21.68c0-.57-.07-1.02-.22-1.33-.15-.31-.35-.53-.6-.65s-.56-.19-.94-.19h-1.27v-.38h11.94c2.47,0,4.43.29,5.88.86s2.49,1.39,3.13,2.45c.64,1.06.95,2.31.95,3.76s-.22,2.6-.67,3.52-1.05,1.65-1.82,2.19-1.64.94-2.64,1.22l4.23,7.82c.57,1.1,1.04,1.95,1.39,2.57.35.61.63,1.05.84,1.33.21.27.39.45.52.52.14.08.26.11.36.11h.07v.37h-1.65c-1.1,0-2.08-.05-2.94-.15-.86-.1-1.6-.28-2.23-.54-.62-.26-1.16-.62-1.61-1.09-.45-.46-.84-1.04-1.16-1.74l-4.08-8.95h-.86v9.96c0,.55.06.98.17,1.29.11.31.29.53.52.66.24.12.54.19.92.19h.79v.37h-12.05ZM222.02,423.29c.9,0,1.62-.23,2.15-.69.54-.46.92-1.19,1.16-2.19.24-1,.36-2.31.36-3.93s-.13-2.92-.37-3.89c-.25-.97-.65-1.68-1.2-2.13-.55-.45-1.27-.67-2.17-.67h-1.42v13.51h1.5Z"/>
      <path class="cls-1" d="M235.76,436.13v-.37h1.24c.35,0,.66-.06.92-.17.26-.11.47-.32.64-.64.16-.31.24-.75.24-1.33v-21.53c0-.7-.08-1.21-.24-1.53-.16-.32-.38-.54-.66-.64-.27-.1-.59-.15-.94-.15h-1.2v-.38h19.47l.26,6.96h-.37l-.11-1.24c-.13-1.32-.4-2.37-.82-3.14-.42-.77-1.05-1.34-1.89-1.68-.84-.35-1.93-.52-3.28-.52h-3.63v12.2h8.31v.38h-8.31v13.4h4.72c1.35,0,2.44-.17,3.28-.52.84-.35,1.47-.92,1.91-1.7.44-.79.71-1.84.81-3.16l.11-1.2h.37l-.26,6.96h-20.55Z"/>
      <path class="cls-1" d="M257.63,436.13v-.37h1.31c.45,0,.84-.08,1.18-.22s.63-.42.88-.82c.25-.4.47-.94.67-1.61l6.7-23.7h5.17l7.3,24c.2.57.41,1.04.64,1.38.22.35.47.6.75.75.27.15.6.22.97.22h.26v.37h-12.13v-.37h1.61c.52,0,.88-.11,1.07-.34s.28-.52.28-.9c0-.2-.02-.4-.06-.6-.04-.2-.08-.41-.13-.64-.05-.22-.1-.44-.15-.64l-1.68-6.29h-8.31l-1.57,5.69c-.1.35-.19.67-.26.97-.07.3-.13.57-.17.82-.04.25-.06.47-.06.67,0,.42.1.74.3.94.2.2.52.3.97.3h2.36v.37h-7.9ZM264.07,425.98h8.09l-2.7-10.3c-.12-.45-.25-.93-.37-1.44-.13-.51-.26-1.05-.41-1.61-.15-.56-.29-1.14-.41-1.74-.1.42-.2.84-.3,1.24-.1.4-.21.8-.32,1.2-.11.4-.22.79-.34,1.16s-.22.75-.32,1.12l-2.92,10.37Z"/>
      <path class="cls-1" d="M284.17,436.13v-.37h1.24c.32,0,.62-.06.9-.19.27-.12.49-.35.66-.67.16-.32.24-.79.24-1.39v-21.45c0-.65-.08-1.13-.24-1.44-.16-.31-.39-.53-.67-.65s-.61-.19-.95-.19h-1.16v-.38h12.73v.38h-1.24c-.37,0-.7.06-.97.17-.27.11-.48.32-.62.64-.14.31-.21.76-.21,1.33v23.85h3.67c1.6,0,2.88-.21,3.86-.62s1.71-1.08,2.21-2c.5-.92.8-2.16.9-3.71l.11-1.72h.37l-.3,8.42h-20.52Z"/>
      <path class="cls-1" d="M313.67,436.13v-.37h1.24c.35,0,.66-.06.92-.17.26-.11.47-.32.64-.64.16-.31.24-.75.24-1.33v-21.53c0-.7-.08-1.21-.24-1.53-.16-.32-.38-.54-.66-.64-.27-.1-.59-.15-.94-.15h-1.2v-.38h19.47l.26,6.96h-.37l-.11-1.24c-.13-1.32-.4-2.37-.82-3.14-.42-.77-1.05-1.34-1.89-1.68-.84-.35-1.93-.52-3.28-.52h-3.63v12.2h8.31v.38h-8.31v13.4h4.72c1.35,0,2.44-.17,3.28-.52.84-.35,1.47-.92,1.91-1.7.44-.79.71-1.84.81-3.16l.11-1.2h.37l-.26,6.96h-20.55Z"/>
      <path class="cls-1" d="M344.71,436.5c-1.77,0-3.23-.17-4.36-.51-1.14-.34-2.01-.77-2.62-1.31-.61-.54-1.04-1.11-1.27-1.72s-.36-1.18-.36-1.7c0-1,.21-1.77.64-2.32.42-.55.97-.94,1.65-1.18.67-.24,1.39-.35,2.13-.35,0,1.97.18,3.6.54,4.89s.92,2.24,1.68,2.86,1.73.94,2.9.94c1.35,0,2.38-.38,3.09-1.14s1.07-1.83,1.07-3.2c0-1.3-.29-2.34-.86-3.13-.57-.79-1.35-1.45-2.34-2-.99-.55-2.11-1.11-3.39-1.68-1.07-.55-2.02-1.1-2.85-1.67-.82-.56-1.49-1.17-2-1.82-.51-.65-.9-1.36-1.16-2.13-.26-.77-.39-1.62-.39-2.55,0-1.62.4-3.01,1.2-4.17.8-1.16,1.87-2.05,3.22-2.66,1.35-.61,2.86-.92,4.53-.92,1.77,0,3.23.23,4.36.69,1.14.46,1.97,1.05,2.49,1.76s.79,1.47.79,2.27c0,.87-.35,1.6-1.05,2.19-.7.59-1.95.88-3.74.88,0-2.6-.29-4.48-.88-5.65-.59-1.17-1.5-1.76-2.75-1.76-.6,0-1.18.14-1.74.41-.56.28-1.02.71-1.39,1.31-.36.6-.54,1.4-.54,2.4s.21,1.8.64,2.49c.42.69,1.12,1.33,2.08,1.93.96.6,2.25,1.27,3.87,2.02,1.52.7,2.76,1.44,3.71,2.21.95.77,1.64,1.63,2.08,2.58.44.95.66,2.06.66,3.33,0,1.72-.39,3.21-1.18,4.46-.79,1.25-1.9,2.22-3.33,2.92-1.44.7-3.14,1.05-5.11,1.05Z"/>
      <path class="cls-1" d="M359.65,436.13v-.37h1.12c.47,0,.86-.07,1.16-.21.3-.14.52-.39.66-.75.14-.36.21-.85.21-1.48v-23.55h-1.39c-1.42,0-2.56.16-3.41.49-.85.32-1.47.88-1.87,1.67-.4.79-.65,1.85-.75,3.2l-.11,1.68h-.37l.26-7.41h21.9l.26,7.41h-.37l-.11-1.68c-.1-1.35-.35-2.41-.75-3.2s-1.02-1.34-1.87-1.67c-.85-.32-1.97-.49-3.37-.49h-1.35v23.59c0,.63.07,1.11.21,1.46s.36.59.66.73c.3.14.69.21,1.16.21h1.09v.37h-12.95Z"/>
      <path class="cls-1" d="M375.63,436.13v-.37h1.31c.45,0,.84-.08,1.18-.22s.63-.42.88-.82c.25-.4.47-.94.67-1.61l6.7-23.7h5.17l7.3,24c.2.57.41,1.04.64,1.38.22.35.47.6.75.75.27.15.6.22.97.22h.26v.37h-12.13v-.37h1.61c.52,0,.88-.11,1.07-.34s.28-.52.28-.9c0-.2-.02-.4-.06-.6-.04-.2-.08-.41-.13-.64-.05-.22-.1-.44-.15-.64l-1.68-6.29h-8.31l-1.57,5.69c-.1.35-.19.67-.26.97-.07.3-.13.57-.17.82-.04.25-.06.47-.06.67,0,.42.1.74.3.94.2.2.52.3.97.3h2.36v.37h-7.9ZM382.07,425.98h8.09l-2.7-10.3c-.12-.45-.25-.93-.37-1.44-.13-.51-.26-1.05-.41-1.61-.15-.56-.29-1.14-.41-1.74-.1.42-.2.84-.3,1.24-.1.4-.21.8-.32,1.2-.11.4-.22.79-.34,1.16s-.22.75-.32,1.12l-2.92,10.37Z"/>
      <path class="cls-1" d="M404.31,436.13v-.37h1.12c.47,0,.86-.07,1.16-.21.3-.14.52-.39.66-.75.14-.36.21-.85.21-1.48v-23.55h-1.39c-1.42,0-2.56.16-3.41.49-.85.32-1.47.88-1.87,1.67-.4.79-.65,1.85-.75,3.2l-.11,1.68h-.37l.26-7.41h21.9l.26,7.41h-.38l-.11-1.68c-.1-1.35-.35-2.41-.75-3.2-.4-.79-1.02-1.34-1.87-1.67-.85-.32-1.97-.49-3.37-.49h-1.35v23.59c0,.63.07,1.11.21,1.46.14.35.36.59.66.73.3.14.69.21,1.16.21h1.09v.37h-12.95Z"/>
      <path class="cls-1" d="M422.77,436.13v-.37h1.24c.35,0,.65-.06.92-.17.26-.11.47-.32.64-.64.16-.31.24-.75.24-1.33v-21.53c0-.7-.08-1.21-.24-1.53s-.38-.54-.65-.64c-.28-.1-.59-.15-.94-.15h-1.2v-.38h19.47l.26,6.96h-.37l-.11-1.24c-.12-1.32-.4-2.37-.82-3.14-.42-.77-1.05-1.34-1.89-1.68-.84-.35-1.93-.52-3.28-.52h-3.63v12.2h8.31v.38h-8.31v13.4h4.72c1.35,0,2.44-.17,3.27-.52.84-.35,1.47-.92,1.91-1.7s.71-1.84.81-3.16l.11-1.2h.38l-.26,6.96h-20.55Z"/>
    </g>
    <g>
      <path class="cls-1" d="M224,36.96c-.79-2.39-1.44-4.64-1.98-6.75-.54-2.12-.99-4.18-1.39-6.16-.39-1.98-.59-3.76-.59-5.36,0-5.56,1.92-9.41,5.76-11.52,3.83-2.12,9.34-3.17,16.48-3.17h13.51V0h-115.2v3.98h4.77c4.77,0,8.8.59,12.11,1.78,3.31,1.19,6.22,3.33,8.74,6.37,2.52,3.04,4.7,7.21,6.57,12.51l74.57,212.33c.35-1.33.71-2.64,1.06-3.96,1.46-5.43,3.17-11.19,5.16-17.29,2-6.08,3.98-12.25,5.96-18.46,1.98-6.23,4.17-12.65,6.55-19.27l3.21-9.34-45.27-131.7Z"/>
      <path class="cls-1" d="M513.87,197.45l-30.37,86.21h-220.11l-1.38-3.96h7.37c.46.03.9.03,1.34,0,9.42-.61,15.53-13.9,17.49-18.6,4.67-14.49,9.44-29.08,14.33-43.76,4.4-13.23,8.83-26.34,13.27-39.35l48.48-141.04c.79-2.39,1.44-4.64,1.98-6.75.54-2.12.99-4.18,1.39-6.16.39-1.98.59-3.76.59-5.36,0-5.56-1.92-9.41-5.76-11.52-3.83-2.12-9.34-3.17-16.48-3.17h-13.51V0h115.2v3.98h-4.77c-4.77,0-8.8.59-12.11,1.78-3.31,1.19-6.22,3.33-8.74,6.37-2.52,3.04-4.7,7.22-6.57,12.51l-77.68,221.15-11.89,33.9h106.69c3.39-.05,6.55-.42,9.47-.99,30.88-6.07,47.56-38.15,52.49-48.61,5.12-10.88,10.25-21.76,15.37-32.65h3.89Z"/>
    </g>
  </g>
  <path class="cls-1" d="M218.52,289.47h.8c-.51.04-.8,0-.8,0Z"/>
</svg>